SplineFontDB: 3.0
FontName: VeranaSansDemi-Regular
FullName: Verana Sans Demi Regular
FamilyName: Verana Sans Demi
Weight: Normal
Copyright: Copyright (c) Arkandis Digital fondry, from initial release of Bitstream VeraSans Font modified  and under Public Domain.
Version: 1.002
ItalicAngle: 0
UnderlinePosition: -100
UnderlineWidth: 50
Ascent: 760
Descent: 240
sfntRevision: 0x00010041
LayerCount: 2
Layer: 0 0 "Arri+AOgA-re"  1
Layer: 1 0 "Avant"  0
NeedsXUIDChange: 1
XUID: [1021 905 1196402830 6190741]
BaseHoriz: 2 'ideo' 'romn'
BaseScript: 'latn' 1  -135 0
FSType: 8
OS2Version: 2
OS2_WeightWidthSlopeOnly: 0
OS2_UseTypoMetrics: 1
CreationTime: 1214138659
ModificationTime: 1312111514
PfmFamily: 17
TTFWeight: 400
TTFWidth: 5
LineGap: 200
VLineGap: 0
Panose: 2 11 5 4 2 2 2 2 0 3
OS2TypoAscent: 0
OS2TypoAOffset: 1
OS2TypoDescent: 0
OS2TypoDOffset: 1
OS2TypoLinegap: 200
OS2WinAscent: 0
OS2WinAOffset: 1
OS2WinDescent: 0
OS2WinDOffset: 1
HheadAscent: -168
HheadAOffset: 1
HheadDescent: -4
HheadDOffset: 1
OS2SubXSize: 650
OS2SubYSize: 600
OS2SubXOff: 0
OS2SubYOff: 75
OS2SupXSize: 650
OS2SupYSize: 600
OS2SupXOff: 0
OS2SupYOff: 350
OS2StrikeYSize: 100
OS2StrikeYPos: 328
OS2Vendor: 'ADFP'
OS2CodePages: 00000003.00000000
OS2UnicodeRanges: 800000af.5000204a.00000000.00000000
Lookup: 1 0 0 "'aalt' Activer toutes les variantes dans Latin lookup 0"  {"sous-table 'aalt' Activer toutes les variantes dans Latin lookup 0"  } ['aalt' ('latn' <'dflt' > ) ]
Lookup: 3 0 0 "'aalt' Activer toutes les variantes dans Latin lookup 1"  {"sous-table 'aalt' Activer toutes les variantes dans Latin lookup 1"  } ['aalt' ('latn' <'dflt' > ) ]
Lookup: 1 0 0 "'numr' Num+AOkA-rateurs dans Latin lookup 2"  {"sous-table 'numr' Num+AOkA-rateurs dans Latin lookup 2"  } ['numr' ('latn' <'dflt' > ) ]
Lookup: 1 0 0 "'dnom' D+AOkA-nominateurs dans Latin lookup 3"  {"sous-table 'dnom' D+AOkA-nominateurs dans Latin lookup 3"  } ['dnom' ('latn' <'dflt' > ) ]

StartChar: .notdef
Encoding: 65536 -1 0
Width: 571
Flags: W
HStem: -177 49<90 480> 657 48<90 480>
VStem: 48 42<-128 657> 480 43<-128 657>
LayerCount: 2
Fore
SplineSet
48 -177 m 1
 48 705 l 1
 523 705 l 1
 523 -177 l 1
 48 -177 l 1
90 -128 m 1
 480 -128 l 1
 480 657 l 1
 90 657 l 1
 90 -128 l 1
EndSplineSet
Validated: 1
EndChar

StartChar: exclam
Encoding: 33 33 2
Width: 433
Flags: W
HStem: 0 168<133 300> 709 20G<133 300>
VStem: 133 167<0 168 391.083 729>
LayerCount: 2
Fore
SplineSet
133 729 m 1
 300 729 l 1
 300 450 l 1
 276 248 l 1
 157 248 l 1
 133 450 l 1
 133 729 l 1
133 168 m 1
 300 168 l 1
 300 0 l 1
 133 0 l 1
 133 168 l 1
EndSplineSet
Validated: 1
Position2: "sous-table 'cpsp' Chasses pour composition en capitales dans Latin lookup 1" dx=5 dy=0 dh=10 dv=0
EndChar

StartChar: quotedbl
Encoding: 34 34 3
Width: 494
Flags: W
HStem: 458 271<90 192 301 404>
VStem: 90 102<458 729> 301 103<458 729>
LayerCount: 2
Fore
SplineSet
404 729 m 1
 404 458 l 1
 301 458 l 1
 301 729 l 1
 404 729 l 1
192 729 m 1
 192 458 l 1
 90 458 l 1
 90 729 l 1
 192 729 l 1
EndSplineSet
Validated: 1
EndChar

StartChar: numbersign
Encoding: 35 35 4
Width: 796
Flags: W
HStem: 0 21G<151 249.868 381 478.868> 189 99<65 196 313 426 543 677> 430 98<119 252 372 482 601 731>
LayerCount: 2
Fore
SplineSet
417 718 m 1
 372 528 l 1
 507 528 l 1
 553 718 l 1
 646 718 l 1
 601 528 l 1
 731 528 l 1
 731 430 l 1
 577 430 l 1
 543 288 l 1
 677 288 l 1
 677 189 l 1
 520 189 l 1
 474 0 l 1
 381 0 l 1
 426 189 l 1
 291 189 l 1
 245 0 l 1
 151 0 l 1
 196 189 l 1
 65 189 l 1
 65 288 l 1
 218 288 l 1
 252 430 l 1
 119 430 l 1
 119 528 l 1
 277 528 l 1
 323 718 l 1
 417 718 l 1
482 430 m 1
 347 430 l 1
 313 288 l 1
 448 288 l 1
 482 430 l 1
EndSplineSet
Validated: 1
EndChar

StartChar: dollar
Encoding: 36 36 5
Width: 661
Flags: W
HStem: 0 105<172.143 298 364 437.368> 496 118<502.777 556> 542 105<236.047 298 364 493.444> 740 20G<298 364>
VStem: 76 135<428.278 519.12> 298 66<-147 0 107 252 405 542 647.109 760> 461 135<127.133 228.313>
LayerCount: 2
Fore
SplineSet
364 -147 m 1xde
 298 -147 l 1
 298 0 l 1
 219 3 144 18 74 45 c 1
 74 168 l 1
 147 128 221 108 298 105 c 1
 298 265 l 1
 279 270 l 1
 131 298 76 351 76 458 c 0
 76 573 156 642 298 647 c 1xbe
 298 760 l 1
 364 760 l 1
 364 649 l 1
 428 644 493 632 556 614 c 1
 556 496 l 1
 493 525 430 540 364 543 c 1
 364 395 l 1
 385 389 l 1
 464 376 519 356 551 325 c 0
 581 295 596 250 596 193 c 0
 596 74 520 10 364 1 c 1
 364 -147 l 1xde
298 405 m 1
 298 542 l 1
 244 539 211 513 211 475 c 0
 211 434 240 412 298 405 c 1
364 252 m 1
 364 107 l 1
 429 108 461 130 461 177 c 0
 461 223 434 245 364 252 c 1
EndSplineSet
Validated: 1
EndChar

StartChar: percent
Encoding: 37 37 6
Width: 951
Flags: W
HStem: -14 75<690.52 789.267> 305 73<690.52 789.267> 350 73<160.586 260.009> 668 74<160.586 260.009>
VStem: 30 102<454.207 637.749> 289 102<454.207 637.749> 558 104<91.1546 274.435> 817 104<91.1546 274.435>
LayerCount: 2
Fore
SplineSet
740 305 m 0xdf
 690 305 662 262 662 183 c 0
 662 104 690 61 740 61 c 0
 790 61 817 104 817 183 c 0
 817 262 790 305 740 305 c 0xdf
740 378 m 0
 852 378 921 304 921 183 c 0
 921 61 852 -14 740 -14 c 0
 628 -14 558 61 558 183 c 0
 558 304 628 378 740 378 c 0
303 -14 m 1
 209 -14 l 1
 647 742 l 1
 741 742 l 1
 303 -14 l 1
210 742 m 0
 323 742 391 668 391 546 c 0
 391 425 323 350 210 350 c 0xbf
 98 350 30 425 30 546 c 0
 30 668 98 742 210 742 c 0
210 668 m 0
 160 668 132 625 132 546 c 0
 132 467 160 423 210 423 c 0
 261 423 289 467 289 546 c 0
 289 625 261 668 210 668 c 0
EndSplineSet
Validated: 1
Ligature2: "sous-table Remplacement de ligature lookups12" zero fraction zero
Ligature2: "sous-table Remplacement de ligature lookups12" zero slash zero
EndChar

StartChar: ampersand
Encoding: 38 38 7
Width: 828
Flags: W
HStem: -14 117<272.869 433.397> -2 21G<580.182 788> 632 110<333.083 505.455>
VStem: 57 148<170.067 319.647> 162 154<516.083 615.954> 622 135<325.439 434>
LayerCount: 2
Fore
SplineSet
363 482 m 1xac
 563 257 l 1
 600 303 619 361 622 434 c 1
 757 434 l 1
 749 315 712 223 649 154 c 1
 788 -2 l 1
 598 -2 l 1x6c
 549 53 l 1
 483 8 410 -14 327 -14 c 0
 247 -14 181 8 131 53 c 0
 81 97 57 156 57 226 c 0xb4
 57 322 100 391 201 461 c 1
 174 497 162 532 162 570 c 0
 162 673 247 742 375 742 c 0
 430 742 492 734 557 716 c 1
 557 585 l 1
 500 618 448 632 400 632 c 0
 346 632 316 610 316 572 c 0
 316 547 332 519 363 482 c 1xac
276 368 m 1
 228 336 205 295 205 245 c 0
 205 206 220 172 247 144 c 1
 276 117 310 103 349 103 c 0xb4
 395 103 434 119 468 149 c 1
 276 368 l 1
EndSplineSet
Validated: 1
Position2: "sous-table 'cpsp' Chasses pour composition en capitales dans Latin lookup 1" dx=5 dy=0 dh=10 dv=0
EndChar

StartChar: quotesingle
Encoding: 39 39 8
Width: 290
Flags: W
HStem: 458 271<90 200>
VStem: 90 110<458 729>
LayerCount: 2
Fore
SplineSet
200 729 m 1
 200 458 l 1
 90 458 l 1
 90 729 l 1
 200 729 l 1
EndSplineSet
Validated: 1
EndChar

StartChar: parenleft
Encoding: 40 40 9
Width: 435
Flags: W
HStem: 739 20G<176 359>
VStem: 82 150<144.302 482.558>
LayerCount: 2
Fore
SplineSet
359 -132 m 1
 224 -132 l 1
 127 29 82 170 82 313 c 0
 82 456 128 598 224 759 c 1
 359 759 l 1
 273 603 232 458 232 314 c 0
 232 170 273 23 359 -132 c 1
EndSplineSet
Validated: 1
EndChar

StartChar: parenright
Encoding: 41 41 10
Width: 435
Flags: W
HStem: 739 20G<76 258.5>
VStem: 202 151<144.302 482.558>
LayerCount: 2
Fore
SplineSet
76 -132 m 1
 161 23 202 170 202 314 c 0
 202 458 161 603 76 759 c 1
 210 759 l 1
 307 598 353 456 353 313 c 0
 353 170 308 29 210 -132 c 1
 76 -132 l 1
EndSplineSet
Validated: 1
EndChar

StartChar: asterisk
Encoding: 42 42 11
Width: 496
Flags: W
HStem: 722 20G<212 284>
VStem: 212 72<278 449 571 742>
LayerCount: 2
Fore
SplineSet
477 596 m 1
 319 510 l 1
 477 422 l 1
 447 358 l 1
 284 449 l 1
 284 278 l 1
 212 278 l 1
 212 449 l 1
 49 358 l 1
 19 422 l 1
 179 510 l 1
 19 596 l 1
 49 661 l 1
 212 571 l 1
 212 742 l 1
 284 742 l 1
 284 571 l 1
 447 661 l 1
 477 596 l 1
EndSplineSet
Validated: 1
EndChar

StartChar: plus
Encoding: 43 43 12
Width: 797
Flags: W
HStem: 0 21G<348 449> 259 109<101 348 449 696>
VStem: 348 101<0 259 368 627>
LayerCount: 2
Fore
SplineSet
449 627 m 1
 449 368 l 1
 696 368 l 1
 696 259 l 1
 449 259 l 1
 449 0 l 1
 348 0 l 1
 348 259 l 1
 101 259 l 1
 101 368 l 1
 348 368 l 1
 348 627 l 1
 449 627 l 1
EndSplineSet
Validated: 1
EndChar

StartChar: comma
Encoding: 44 44 13
Width: 361
Flags: W
HStem: -142 331<101 145>
VStem: 101 163<40 189>
LayerCount: 2
Fore
SplineSet
101 189 m 1
 264 189 l 1
 264 40 l 1
 145 -142 l 1
 50 -142 l 1
 101 40 l 1
 101 189 l 1
EndSplineSet
Validated: 1
EndChar

StartChar: hyphen
Encoding: 45 45 14
Width: 394
Flags: W
HStem: 217 142<51 343>
VStem: 51 292<217 359>
LayerCount: 2
Fore
SplineSet
51 359 m 1
 343 359 l 1
 343 217 l 1
 51 217 l 1
 51 359 l 1
EndSplineSet
Validated: 1
AlternateSubs2: "sous-table 'aalt' Activer toutes les variantes dans Latin lookup 1" endash emdash minus
EndChar

StartChar: period
Encoding: 46 46 15
Width: 361
Flags: W
HStem: 0 189<97 264>
VStem: 97 167<0 189>
LayerCount: 2
Fore
SplineSet
97 189 m 1
 264 189 l 1
 264 0 l 1
 97 0 l 1
 97 189 l 1
EndSplineSet
Validated: 1
Substitution2: "sous-table 'aalt' Activer toutes les variantes dans Latin lookup 0" ellipsis
EndChar

StartChar: slash
Encoding: 47 47 16
Width: 347
Flags: W
HStem: 709 20G<244.893 347>
LayerCount: 2
Fore
SplineSet
251 729 m 1
 347 729 l 1
 95 -93 l 1
 0 -93 l 1
 251 729 l 1
EndSplineSet
Validated: 1
Substitution2: "sous-table 'dnom' D+AOkA-nominateurs dans Latin lookup 3" fraction
Substitution2: "sous-table 'numr' Num+AOkA-rateurs dans Latin lookup 2" fraction
Substitution2: "sous-table 'aalt' Activer toutes les variantes dans Latin lookup 0" fraction
EndChar

StartChar: zero
Encoding: 48 48 17
Width: 662
Flags: W
HStem: -14 119<270.265 395.429> 622 120<266.427 390.848>
VStem: 46 168<194.223 533.834> 448 168<194.223 533.673>
LayerCount: 2
Fore
SplineSet
448 365 m 0
 448 458 439 525 421 563 c 1
 404 602 374 622 331 622 c 0
 247 622 214 554 214 365 c 0
 214 174 247 105 331 105 c 0
 415 105 448 174 448 365 c 0
616 364 m 0
 616 123 513 -14 331 -14 c 0
 148 -14 46 123 46 364 c 0
 46 605 148 742 331 742 c 0
 513 742 616 605 616 364 c 0
EndSplineSet
Validated: 1
Position2: "sous-table 'cpsp' Chasses pour composition en capitales dans Latin lookup 1" dx=5 dy=0 dh=10 dv=0
EndChar

StartChar: one
Encoding: 49 49 18
Width: 660
Flags: W
HStem: 0 124<111 272 434 595> 709 20G<170.03 434>
VStem: 272 162<124 609>
LayerCount: 2
Fore
SplineSet
111 124 m 1
 272 124 l 1
 272 609 l 1
 107 573 l 1
 107 696 l 1
 267 729 l 1
 434 729 l 1
 434 124 l 1
 595 124 l 1
 595 0 l 1
 111 0 l 1
 111 124 l 1
EndSplineSet
Validated: 1
Position2: "sous-table 'cpsp' Chasses pour composition en capitales dans Latin lookup 1" dx=5 dy=0 dh=10 dv=0
EndChar

StartChar: two
Encoding: 50 50 19
Width: 661
Flags: W
HStem: 0 133<265 578> 546 21G<76 113.5> 623 119<177.705 349.884>
VStem: 403 168<430.153 574.312>
LayerCount: 2
Fore
SplineSet
265 133 m 1
 578 133 l 1
 578 0 l 1
 75 0 l 1
 75 133 l 1
 332 370 l 2
 381 414 403 457 403 502 c 0
 403 574 352 623 273 623 c 0
 217 623 151 596 76 546 c 1
 76 701 l 1
 156 728 236 742 311 742 c 0
 476 742 571 662 571 526 c 0
 571 487 562 451 542 416 c 0
 522 382 481 336 419 278 c 2
 265 133 l 1
EndSplineSet
Validated: 1
Position2: "sous-table 'cpsp' Chasses pour composition en capitales dans Latin lookup 1" dx=5 dy=0 dh=10 dv=0
EndChar

StartChar: three
Encoding: 51 51 20
Width: 662
Flags: W
HStem: -14 119<139.281 365.95> 318 114<187 361.756> 622 120<143.435 359.812>
VStem: 402 167<467.555 585.422> 418 168<152.46 273.424>
LayerCount: 2
Fore
SplineSet
440 393 m 1xf0
 536 368 586 303 586 205 c 0
 586 62 479 -14 277 -14 c 0
 206 -14 133 -3 64 20 c 1
 64 160 l 1
 131 124 197 105 261 105 c 0
 363 105 418 144 418 212 c 0xe8
 418 283 363 318 254 318 c 2
 187 318 l 1
 187 432 l 1
 258 432 l 2
 355 432 402 463 402 528 c 0
 402 588 354 622 268 622 c 0
 212 622 152 608 94 580 c 1
 94 712 l 1
 165 733 234 742 301 742 c 0
 481 742 569 681 569 557 c 0
 569 471 525 417 440 393 c 1xf0
EndSplineSet
Validated: 1
Position2: "sous-table 'cpsp' Chasses pour composition en capitales dans Latin lookup 1" dx=5 dy=0 dh=10 dv=0
EndChar

StartChar: four
Encoding: 52 52 21
Width: 662
Flags: W
HStem: 0 21G<355 517> 135 129<143 355 517 618> 709 20G<311.14 517>
VStem: 355 162<0 135 264 581>
LayerCount: 2
Fore
SplineSet
355 581 m 1
 143 264 l 1
 355 264 l 1
 355 581 l 1
324 729 m 1
 517 729 l 1
 517 264 l 1
 618 264 l 1
 618 135 l 1
 517 135 l 1
 517 0 l 1
 355 0 l 1
 355 135 l 1
 43 135 l 1
 43 292 l 1
 324 729 l 1
EndSplineSet
Validated: 1
Position2: "sous-table 'cpsp' Chasses pour composition en capitales dans Latin lookup 1" dx=5 dy=0 dh=10 dv=0
EndChar

StartChar: five
Encoding: 53 53 22
Width: 660
Flags: W
HStem: -14 119<170.53 365.387> 366 120<236.751 367.153> 597 132<236 545>
VStem: 101 135<475 597> 427 167<161.798 307.414>
LayerCount: 2
Fore
SplineSet
101 729 m 1
 545 729 l 1
 545 597 l 1
 236 597 l 1
 236 475 l 1
 265 482 296 486 328 486 c 0
 497 486 594 394 594 236 c 0
 594 158 569 97 518 53 c 0
 467 8 396 -14 305 -14 c 0
 227 -14 149 1 73 32 c 1
 73 175 l 1
 149 129 216 105 276 105 c 0
 370 105 427 156 427 236 c 0
 427 316 370 366 276 366 c 0
 224 366 168 352 101 322 c 1
 101 729 l 1
EndSplineSet
Validated: 1
Position2: "sous-table 'cpsp' Chasses pour composition en capitales dans Latin lookup 1" dx=5 dy=0 dh=10 dv=0
EndChar

StartChar: six
Encoding: 54 54 23
Width: 661
Flags: W
HStem: -14 109<279.271 411.011> 365 112<279.069 410.304> 626 115<313.753 515.955>
VStem: 59 181<188.421 435> 449 161<135.125 323.898>
LayerCount: 2
Fore
SplineSet
345 365 m 0
 276 365 240 319 240 230 c 0
 240 141 276 95 345 95 c 0
 415 95 449 141 449 230 c 0
 449 319 415 365 345 365 c 0
565 711 m 1
 565 582 l 1
 508 612 457 626 408 626 c 0
 297 626 233 560 223 430 c 1
 266 461 315 477 375 477 c 0
 445 477 502 455 545 412 c 0
 589 369 610 312 610 242 c 0
 610 165 586 102 538 56 c 0
 489 9 425 -14 343 -14 c 0
 163 -14 59 119 59 354 c 0
 59 475 88 570 146 639 c 1
 205 707 284 741 385 741 c 0
 448 741 508 732 565 711 c 1
EndSplineSet
Validated: 1
Position2: "sous-table 'cpsp' Chasses pour composition en capitales dans Latin lookup 1" dx=5 dy=0 dh=10 dv=0
EndChar

StartChar: seven
Encoding: 55 55 24
Width: 662
Flags: W
HStem: 0 21G<145 320.74> 597 132<64 407>
LayerCount: 2
Fore
SplineSet
64 729 m 1
 586 729 l 1
 586 627 l 1
 312 0 l 1
 145 0 l 1
 407 597 l 1
 64 597 l 1
 64 729 l 1
EndSplineSet
Validated: 1
Position2: "sous-table 'cpsp' Chasses pour composition en capitales dans Latin lookup 1" dx=5 dy=0 dh=10 dv=0
EndChar

StartChar: eight
Encoding: 56 56 25
Width: 662
Flags: W
HStem: -14 109<258.094 403.264> 330 110<262.828 398.395> 632 110<263.834 398.605>
VStem: 58 159<135.486 289.534> 74 158<469.825 600.21> 429 158<469.825 603.129> 444 159<135.486 289.534>
LayerCount: 2
Fore
SplineSet
331 330 m 0xf2
 257 330 217 289 217 213 c 0
 217 137 257 95 331 95 c 0
 403 95 444 137 444 213 c 0
 444 289 403 330 331 330 c 0xf2
205 388 m 1
 119 416 74 471 74 555 c 0
 74 678 163 742 331 742 c 0
 498 742 587 678 587 555 c 0xec
 587 471 542 416 456 388 c 1
 553 361 603 297 603 203 c 0
 603 60 511 -14 331 -14 c 0
 151 -14 58 60 58 203 c 0
 58 297 108 361 205 388 c 1
232 536 m 0
 232 475 268 440 331 440 c 0
 394 440 429 475 429 536 c 0
 429 599 394 632 331 632 c 0
 268 632 232 597 232 536 c 0
EndSplineSet
Validated: 1
Position2: "sous-table 'cpsp' Chasses pour composition en capitales dans Latin lookup 1" dx=5 dy=0 dh=10 dv=0
EndChar

StartChar: nine
Encoding: 57 57 26
Width: 661
Flags: W
HStem: -14 114<142.901 344.747> 248 114<248.913 379.931> 631 110<249.826 379.537>
VStem: 49 161<403.498 589.644> 419 181<294.043 538.54>
LayerCount: 2
Fore
SplineSet
93 14 m 1
 93 144 l 1
 149 115 201 100 251 100 c 0
 362 100 426 166 436 297 c 1
 393 266 344 248 284 248 c 0
 213 248 156 271 112 313 c 1
 70 356 49 414 49 483 c 0
 49 562 72 623 120 670 c 0
 169 717 234 741 315 741 c 0
 497 741 600 608 600 373 c 0
 600 251 570 157 512 88 c 0
 453 19 374 -14 273 -14 c 0
 209 -14 149 -5 93 14 c 1
314 362 m 0
 383 362 419 407 419 497 c 0
 419 586 383 631 314 631 c 0
 246 631 210 586 210 497 c 0
 210 407 246 362 314 362 c 0
EndSplineSet
Validated: 1
Position2: "sous-table 'cpsp' Chasses pour composition en capitales dans Latin lookup 1" dx=5 dy=0 dh=10 dv=0
EndChar

StartChar: colon
Encoding: 58 58 27
Width: 382
Flags: W
HStem: 0 184<107 275> 363 184<107 275>
VStem: 107 168<0 184 363 547>
LayerCount: 2
Fore
SplineSet
107 547 m 1
 275 547 l 1
 275 363 l 1
 107 363 l 1
 107 547 l 1
107 184 m 1
 275 184 l 1
 275 0 l 1
 107 0 l 1
 107 184 l 1
EndSplineSet
Validated: 1
EndChar

StartChar: semicolon
Encoding: 59 59 28
Width: 379
Flags: W
HStem: 364 183<109 273>
VStem: 109 164<38 185 364 547>
LayerCount: 2
Fore
SplineSet
109 185 m 1
 273 185 l 1
 273 38 l 1
 154 -142 l 1
 60 -142 l 1
 109 38 l 1
 109 185 l 1
109 547 m 1
 273 547 l 1
 273 364 l 1
 109 364 l 1
 109 547 l 1
EndSplineSet
Validated: 1
EndChar

StartChar: less
Encoding: 60 60 29
Width: 796
Flags: W
LayerCount: 2
Fore
SplineSet
695 481 m 1
 236 313 l 1
 695 147 l 1
 695 30 l 1
 101 259 l 1
 101 369 l 1
 695 597 l 1
 695 481 l 1
EndSplineSet
Validated: 1
EndChar

StartChar: equal
Encoding: 61 61 30
Width: 797
Flags: W
HStem: 144 110<101 696> 372 110<101 696>
LayerCount: 2
Fore
SplineSet
101 482 m 1
 696 482 l 1
 696 372 l 1
 101 372 l 1
 101 482 l 1
101 254 m 1
 696 254 l 1
 696 144 l 1
 101 144 l 1
 101 254 l 1
EndSplineSet
Validated: 1
EndChar

StartChar: greater
Encoding: 62 62 31
Width: 796
Flags: W
LayerCount: 2
Fore
SplineSet
101 481 m 1
 101 597 l 1
 695 369 l 1
 695 259 l 1
 101 30 l 1
 101 147 l 1
 560 313 l 1
 101 481 l 1
EndSplineSet
Validated: 1
EndChar

StartChar: question
Encoding: 63 63 32
Width: 552
Flags: W
HStem: 0 168<166 326> 556 21G<66 98> 623 119<147.353 307.306>
VStem: 166 160<0 168 249 325.344> 334 156<484.838 597.769>
LayerCount: 2
Fore
SplineSet
326 249 m 1
 166 249 l 1
 166 269 l 2
 166 296 171 319 183 339 c 0
 194 359 214 386 247 417 c 2
 278 445 l 1
 316 483 334 513 334 544 c 0
 334 592 298 623 239 623 c 0
 188 623 130 600 66 556 c 1
 66 704 l 1
 142 731 201 742 259 742 c 0
 410 742 490 677 490 555 c 0
 490 492 469 446 411 390 c 2
 381 361 l 1
 336 319 326 298 326 267 c 2
 326 249 l 1
166 168 m 1
 326 168 l 1
 326 0 l 1
 166 0 l 1
 166 168 l 1
EndSplineSet
Validated: 1
Position2: "sous-table 'cpsp' Chasses pour composition en capitales dans Latin lookup 1" dx=5 dy=0 dh=10 dv=0
EndChar

StartChar: at
Encoding: 64 64 33
Width: 949
Flags: W
HStem: -174 83<358.723 594.567> -25 20G<672 712.622> 46 81<416.991 533.691 670 729> 398 82<417.089 534.761> 621 82<363.449 608.452>
VStem: 63 72<137.737 389.247> 283 93<172.436 352.415> 580 90<180.838 344.823 405 470> 810 72<215.517 430.921>
LayerCount: 2
Fore
SplineSet
376 263 m 0
 376 179 414 127 476 127 c 0
 536 127 576 180 576 263 c 0
 576 346 537 398 475 398 c 0
 415 398 376 346 376 263 c 0
580 119 m 1
 561 74 515 46 459 46 c 0
 406 46 364 65 332 105 c 0
 299 146 283 197 283 262 c 0
 283 327 299 379 332 420 c 0
 364 460 406 480 459 480 c 0
 515 480 561 452 580 405 c 1
 580 470 l 1
 670 470 l 1
 670 127 l 1
 758 140 810 211 810 319 c 0
 810 385 791 444 753 494 c 0
 691 575 595 621 489 621 c 0
 415 621 345 601 287 560 c 1
 191 495 135 387 135 265 c 0
 135 165 170 76 236 9 c 0
 301 -57 386 -91 481 -91 c 0
 559 -91 643 -58 701 -5 c 1
 744 -79 l 1
 668 -141 575 -174 482 -174 c 0
 368 -174 263 -129 185 -49 c 1
 104 32 63 143 63 265 c 0
 63 383 105 495 185 576 c 1
 261 657 370 703 482 703 c 0
 619 703 736 646 813 541 c 0
 859 477 882 402 882 321 c 0
 882 146 778 43 596 43 c 2
 580 43 l 1
 580 119 l 1
EndSplineSet
Validated: 1
EndChar

StartChar: A
Encoding: 65 65 34
Width: 735
Flags: W
HStem: 0 21G<5 182.519 552.481 730> 135 130<264 471> 709 20G<256.894 478.106>
LayerCount: 2
Fore
SplineSet
515 135 m 1
 220 135 l 1
 176 0 l 1
 5 0 l 1
 264 729 l 1
 471 729 l 1
 730 0 l 1
 559 0 l 1
 515 135 l 1
264 265 m 1
 471 265 l 1
 368 565 l 1
 264 265 l 1
EndSplineSet
Validated: 1
Position2: "sous-table 'cpsp' Chasses pour composition en capitales dans Latin lookup 1" dx=5 dy=0 dh=10 dv=0
EndChar

StartChar: B
Encoding: 66 66 35
Width: 723
Flags: W
HStem: 0 121<259 449.229> 323 121<259 436.133> 609 120<259 436.75>
VStem: 87 172<121 323 444 609> 461 167<468.526 585.471> 490 167<157.123 290.116>
LayerCount: 2
Fore
SplineSet
366 444 m 2xf8
 428 444 461 472 461 527 c 0
 461 581 428 609 366 609 c 2
 259 609 l 1
 259 444 l 1
 366 444 l 2xf8
371 121 m 2
 450 121 490 155 490 223 c 0xf4
 490 290 450 323 371 323 c 2
 259 323 l 1
 259 121 l 1
 371 121 l 2
534 391 m 1
 612 368 657 301 657 208 c 0xf4
 657 69 568 0 385 0 c 2
 87 0 l 1
 87 729 l 1
 356 729 l 2
 547 729 628 672 628 539 c 0xf8
 628 467 595 415 534 391 c 1
EndSplineSet
Validated: 1
Position2: "sous-table 'cpsp' Chasses pour composition en capitales dans Latin lookup 1" dx=5 dy=0 dh=10 dv=0
EndChar

StartChar: C
Encoding: 67 67 36
Width: 698
Flags: W
HStem: -14 128<337.88 552.006> 614 128<337.88 552.006>
VStem: 48 173<242.581 485.173>
LayerCount: 2
Fore
SplineSet
637 39 m 1
 572 3 501 -14 425 -14 c 0
 310 -14 217 20 149 87 c 0
 81 155 48 247 48 364 c 0
 48 480 81 573 149 640 c 0
 217 707 310 742 425 742 c 0
 501 742 572 725 637 689 c 1
 637 543 l 1
 572 593 510 614 439 614 c 0
 303 614 221 520 221 364 c 0
 221 208 303 114 439 114 c 0
 510 114 572 135 637 185 c 1
 637 39 l 1
EndSplineSet
Validated: 1
Position2: "sous-table 'cpsp' Chasses pour composition en capitales dans Latin lookup 1" dx=5 dy=0 dh=10 dv=0
EndChar

StartChar: D
Encoding: 68 68 37
Width: 788
Flags: W
HStem: 0 135<258 446.127> 594 135<258 447.51>
VStem: 87 171<135 594> 566 173<251.81 479.115>
LayerCount: 2
Fore
SplineSet
258 594 m 1
 258 135 l 1
 329 135 l 2
 482 135 566 216 566 366 c 0
 566 515 484 594 329 594 c 2
 258 594 l 1
87 729 m 1
 273 729 l 2
 380 729 458 721 511 705 c 0
 562 690 606 663 643 625 c 0
 708 560 739 474 739 366 c 0
 739 257 708 170 643 105 c 0
 606 67 561 41 510 24 c 1
 457 8 378 0 273 0 c 2
 87 0 l 1
 87 729 l 1
EndSplineSet
Validated: 1
Position2: "sous-table 'cpsp' Chasses pour composition en capitales dans Latin lookup 1" dx=5 dy=0 dh=10 dv=0
EndChar

StartChar: E
Encoding: 69 69 38
Width: 648
Flags: W
HStem: 0 136<258 579> 312 136<258 550> 594 135<258 569>
VStem: 87 171<136 312 448 594>
LayerCount: 2
Fore
SplineSet
87 729 m 1
 569 729 l 1
 569 594 l 1
 258 594 l 1
 258 448 l 1
 550 448 l 1
 550 312 l 1
 258 312 l 1
 258 136 l 1
 579 136 l 1
 579 0 l 1
 87 0 l 1
 87 729 l 1
EndSplineSet
Validated: 1
Position2: "sous-table 'cpsp' Chasses pour composition en capitales dans Latin lookup 1" dx=5 dy=0 dh=10 dv=0
EndChar

StartChar: F
Encoding: 70 70 39
Width: 649
Flags: W
HStem: 0 21G<87 259> 312 136<259 551> 594 135<259 569>
VStem: 87 172<0 312 448 594>
LayerCount: 2
Fore
SplineSet
87 729 m 1
 569 729 l 1
 569 594 l 1
 259 594 l 1
 259 448 l 1
 551 448 l 1
 551 312 l 1
 259 312 l 1
 259 0 l 1
 87 0 l 1
 87 729 l 1
EndSplineSet
Validated: 1
Position2: "sous-table 'cpsp' Chasses pour composition en capitales dans Latin lookup 1" dx=5 dy=0 dh=10 dv=0
EndChar

StartChar: G
Encoding: 71 71 40
Width: 779
Flags: W
HStem: -14 128<340.368 548.212> 282 119<438 549> 614 128<343.792 584.257>
VStem: 47 173<241.7 483.449> 549 160<123.69 282>
LayerCount: 2
Fore
SplineSet
709 53 m 1
 621 8 525 -14 423 -14 c 0
 308 -14 216 20 148 87 c 0
 80 155 47 247 47 364 c 0
 47 480 81 574 149 641 c 1
 219 707 313 742 433 742 c 0
 525 742 609 725 684 689 c 1
 684 543 l 1
 608 592 532 614 455 614 c 0
 306 614 220 524 220 364 c 0
 220 204 302 114 446 114 c 0
 487 114 521 119 549 131 c 1
 549 282 l 1
 438 282 l 1
 438 401 l 1
 709 401 l 1
 709 53 l 1
EndSplineSet
Validated: 1
Position2: "sous-table 'cpsp' Chasses pour composition en capitales dans Latin lookup 1" dx=5 dy=0 dh=10 dv=0
EndChar

StartChar: H
Encoding: 72 72 41
Width: 794
Flags: W
HStem: 0 21G<87 257 537 707> 312 136<257 537> 709 20G<87 257 537 707>
VStem: 87 170<0 312 448 729> 537 170<0 312 448 729>
LayerCount: 2
Fore
SplineSet
87 729 m 1
 257 729 l 1
 257 448 l 1
 537 448 l 1
 537 729 l 1
 707 729 l 1
 707 0 l 1
 537 0 l 1
 537 312 l 1
 257 312 l 1
 257 0 l 1
 87 0 l 1
 87 729 l 1
EndSplineSet
Validated: 1
Position2: "sous-table 'cpsp' Chasses pour composition en capitales dans Latin lookup 1" dx=5 dy=0 dh=10 dv=0
EndChar

StartChar: I
Encoding: 73 73 42
Width: 355
Flags: W
HStem: 0 21G<88 267> 709 20G<88 267>
VStem: 88 179<0 729>
LayerCount: 2
Fore
SplineSet
88 729 m 1
 267 729 l 1
 267 0 l 1
 88 0 l 1
 88 729 l 1
EndSplineSet
Validated: 1
Position2: "sous-table 'cpsp' Chasses pour composition en capitales dans Latin lookup 1" dx=5 dy=0 dh=10 dv=0
EndChar

StartChar: J
Encoding: 74 74 43
Width: 353
Flags: W
HStem: -200 134<-53 45.7871> 709 20G<94 266>
VStem: 94 172<-15.758 729>
LayerCount: 2
Fore
SplineSet
94 729 m 1
 266 729 l 1
 266 69 l 2
 266 -111 171 -200 -22 -200 c 2
 -53 -200 l 1
 -53 -66 l 1
 -31 -66 l 2
 52 -66 94 -20 94 69 c 2
 94 729 l 1
EndSplineSet
Validated: 1
Position2: "sous-table 'cpsp' Chasses pour composition en capitales dans Latin lookup 1" dx=5 dy=0 dh=10 dv=0
EndChar

StartChar: K
Encoding: 75 75 44
Width: 736
Flags: W
HStem: 0 21G<87 258 526.274 764> 709 20G<87 258 508 729>
VStem: 87 171<0 292 459 729>
LayerCount: 2
Fore
SplineSet
87 729 m 1
 258 729 l 1
 258 459 l 1
 528 729 l 1
 729 729 l 1
 389 385 l 1
 764 0 l 1
 546 0 l 1
 258 292 l 1
 258 0 l 1
 87 0 l 1
 87 729 l 1
EndSplineSet
Validated: 1
Position2: "sous-table 'cpsp' Chasses pour composition en capitales dans Latin lookup 1" dx=5 dy=0 dh=10 dv=0
EndChar

StartChar: L
Encoding: 76 76 45
Width: 605
Flags: W
HStem: 0 136<258 579> 709 20G<87 258>
VStem: 87 171<136 729>
LayerCount: 2
Fore
SplineSet
87 729 m 1
 258 729 l 1
 258 136 l 1
 579 136 l 1
 579 0 l 1
 87 0 l 1
 87 729 l 1
EndSplineSet
Validated: 1
Position2: "sous-table 'cpsp' Chasses pour composition en capitales dans Latin lookup 1" dx=5 dy=0 dh=10 dv=0
EndChar

StartChar: M
Encoding: 77 77 46
Width: 945
Flags: W
HStem: 0 21G<87 249 696 858> 709 20G<87 316.304 628.646 858>
VStem: 87 162<0 540> 696 162<0 540>
LayerCount: 2
Fore
SplineSet
87 729 m 1
 308 729 l 1
 472 334 l 1
 637 729 l 1
 858 729 l 1
 858 0 l 1
 696 0 l 1
 696 540 l 1
 526 142 l 1
 419 142 l 1
 249 540 l 1
 249 0 l 1
 87 0 l 1
 87 729 l 1
EndSplineSet
Validated: 1
Position2: "sous-table 'cpsp' Chasses pour composition en capitales dans Latin lookup 1" dx=5 dy=0 dh=10 dv=0
EndChar

StartChar: N
Encoding: 78 78 47
Width: 794
Flags: W
HStem: 0 21G<87 249 503.546 707> 709 20G<87 290.454 545 707>
VStem: 87 162<0 507> 545 162<222 729>
LayerCount: 2
Fore
SplineSet
87 729 m 1
 280 729 l 1
 545 222 l 1
 545 729 l 1
 707 729 l 1
 707 0 l 1
 514 0 l 1
 249 507 l 1
 249 0 l 1
 87 0 l 1
 87 729 l 1
EndSplineSet
Validated: 1
Position2: "sous-table 'cpsp' Chasses pour composition en capitales dans Latin lookup 1" dx=5 dy=0 dh=10 dv=0
EndChar

StartChar: O
Encoding: 79 79 48
Width: 809
Flags: W
HStem: -14 128<320.066 489.395> 614 128<320.066 489.395>
VStem: 48 173<231.669 498.204> 588 173<231.669 498.204>
LayerCount: 2
Fore
SplineSet
405 614 m 0
 288 614 221 522 221 364 c 0
 221 206 288 114 405 114 c 0
 521 114 588 206 588 364 c 0
 588 522 521 614 405 614 c 0
405 742 m 0
 515 742 603 707 666 641 c 0
 730 574 761 481 761 364 c 0
 761 246 730 153 666 86 c 0
 603 19 515 -14 405 -14 c 0
 294 -14 207 19 143 86 c 0
 79 153 48 246 48 364 c 0
 48 481 79 574 143 641 c 0
 207 707 294 742 405 742 c 0
EndSplineSet
Validated: 1
Position2: "sous-table 'cpsp' Chasses pour composition en capitales dans Latin lookup 1" dx=5 dy=0 dh=10 dv=0
EndChar

StartChar: P
Encoding: 80 80 49
Width: 696
Flags: W
HStem: 0 21G<87 259> 256 129<259 439.598> 600 129<259 439.598>
VStem: 87 172<0 256 385 600> 484 173<425.545 560.075>
LayerCount: 2
Fore
SplineSet
87 729 m 1
 385 729 l 2
 560 729 657 644 657 493 c 0
 657 341 560 256 385 256 c 2
 259 256 l 1
 259 0 l 1
 87 0 l 1
 87 729 l 1
259 600 m 1
 259 385 l 1
 366 385 l 2
 440 385 484 424 484 493 c 0
 484 562 440 600 366 600 c 2
 259 600 l 1
EndSplineSet
Validated: 1
Position2: "sous-table 'cpsp' Chasses pour composition en capitales dans Latin lookup 1" dx=5 dy=0 dh=10 dv=0
EndChar

StartChar: Q
Encoding: 81 81 50
Width: 809
Flags: W
HStem: -11 126<319.374 427> 614 128<320.066 489.697>
VStem: 48 173<229.918 498.664> 588 173<230.47 496.949>
LayerCount: 2
Fore
SplineSet
427 -11 m 1
 409 -11 l 2
 296 -11 207 22 143 88 c 0
 79 155 48 247 48 365 c 0
 48 482 79 574 143 641 c 0
 207 707 294 742 405 742 c 0
 516 742 604 708 667 642 c 0
 730 576 761 483 761 365 c 0
 761 199 691 77 563 16 c 1
 706 -146 l 1
 542 -146 l 1
 427 -11 l 1
405 614 m 0
 288 614 221 522 221 365 c 0
 221 204 286 115 405 115 c 0
 521 115 588 207 588 365 c 0
 588 522 521 614 405 614 c 0
EndSplineSet
Validated: 1
Position2: "sous-table 'cpsp' Chasses pour composition en capitales dans Latin lookup 1" dx=5 dy=0 dh=10 dv=0
EndChar

StartChar: R
Encoding: 82 82 51
Width: 731
Flags: W
HStem: 0 21G<87 258 519.879 712> 280 122<258 389.648> 601 128<258 422.225>
VStem: 87 171<0 280 402 601> 454 167<432.456 573.417>
LayerCount: 2
Fore
SplineSet
340 402 m 2
 422 402 454 431 454 503 c 0
 454 573 422 601 340 601 c 2
 258 601 l 1
 258 402 l 1
 340 402 l 2
258 280 m 1
 258 0 l 1
 87 0 l 1
 87 729 l 1
 359 729 l 2
 540 729 621 668 621 531 c 0
 621 434 575 371 485 342 c 1
 536 330 573 290 613 204 c 1
 712 0 l 1
 529 0 l 1
 446 182 l 1
 409 258 377 280 315 280 c 2
 258 280 l 1
EndSplineSet
Validated: 1
Position2: "sous-table 'cpsp' Chasses pour composition en capitales dans Latin lookup 1" dx=5 dy=0 dh=10 dv=0
EndChar

StartChar: S
Encoding: 83 83 52
Width: 683
Flags: W
HStem: -14 128<192.703 415.274> 558 21G<532 570> 614 128<252.065 485.987>
VStem: 68 151<485.208 582.441> 453 161<146.773 251.621>
LayerCount: 2
Fore
SplineSet
570 707 m 1
 570 558 l 1
 494 596 420 614 355 614 c 0
 264 614 219 588 219 532 c 0
 219 489 244 469 323 452 c 2
 401 436 l 2
 555 404 614 344 614 222 c 0
 614 63 526 -14 339 -14 c 0
 251 -14 160 2 71 37 c 1
 71 191 l 1
 160 140 244 114 321 114 c 0
 405 114 453 144 453 199 c 0
 453 247 430 270 339 291 c 2
 268 307 l 2
 130 339 68 403 68 518 c 0
 68 662 159 742 326 742 c 0
 402 742 483 731 570 707 c 1
EndSplineSet
Validated: 1
Position2: "sous-table 'cpsp' Chasses pour composition en capitales dans Latin lookup 1" dx=5 dy=0 dh=10 dv=0
EndChar

StartChar: T
Encoding: 84 84 53
Width: 648
Flags: W
HStem: 0 21G<239 409> 594 135<5 239 409 643>
VStem: 239 170<0 594>
LayerCount: 2
Fore
SplineSet
5 729 m 1
 643 729 l 1
 643 594 l 1
 409 594 l 1
 409 0 l 1
 239 0 l 1
 239 594 l 1
 5 594 l 1
 5 729 l 1
EndSplineSet
Validated: 1
Position2: "sous-table 'cpsp' Chasses pour composition en capitales dans Latin lookup 1" dx=5 dy=0 dh=10 dv=0
EndChar

StartChar: U
Encoding: 85 85 54
Width: 771
Flags: W
HStem: -14 129<306.541 464.01> 709 20G<87 256 515 684>
VStem: 87 169<170.689 729> 515 169<170.689 729>
LayerCount: 2
Fore
SplineSet
87 729 m 1
 256 729 l 1
 256 291 l 2
 256 165 294 115 385 115 c 0
 477 115 515 165 515 291 c 2
 515 729 l 1
 684 729 l 1
 684 291 l 2
 684 84 587 -14 385 -14 c 0
 184 -14 87 84 87 291 c 2
 87 729 l 1
EndSplineSet
Validated: 1
Position2: "sous-table 'cpsp' Chasses pour composition en capitales dans Latin lookup 1" dx=5 dy=0 dh=10 dv=0
EndChar

StartChar: V
Encoding: 86 86 55
Width: 735
Flags: W
HStem: 0 21G<256.894 478.106> 709 20G<5 183.046 551.991 730>
LayerCount: 2
Fore
SplineSet
5 729 m 1
 176 729 l 1
 368 184 l 1
 559 729 l 1
 730 729 l 1
 471 0 l 1
 264 0 l 1
 5 729 l 1
EndSplineSet
Validated: 1
Position2: "sous-table 'cpsp' Chasses pour composition en capitales dans Latin lookup 1" dx=5 dy=0 dh=10 dv=0
EndChar

StartChar: W
Encoding: 87 87 56
Width: 1046
Flags: W
HStem: 0 21G<188.473 396.67 649.33 857.499> 709 20G<28 194.693 436.345 609.655 851.307 1017>
LayerCount: 2
Fore
SplineSet
28 729 m 1
 190 729 l 1
 316 192 l 1
 441 729 l 1
 605 729 l 1
 730 192 l 1
 856 729 l 1
 1017 729 l 1
 853 0 l 1
 654 0 l 1
 523 561 l 1
 392 0 l 1
 193 0 l 1
 28 729 l 1
EndSplineSet
Validated: 1
Position2: "sous-table 'cpsp' Chasses pour composition en capitales dans Latin lookup 1" dx=5 dy=0 dh=10 dv=0
EndChar

StartChar: X
Encoding: 88 88 57
Width: 733
Flags: W
HStem: 0 21G<18 211.281 520.719 714> 709 20G<28 220.305 510.778 704>
LayerCount: 2
Fore
SplineSet
468 372 m 1
 714 0 l 1
 534 0 l 1
 366 253 l 1
 198 0 l 1
 18 0 l 1
 264 372 l 1
 28 729 l 1
 207 729 l 1
 366 490 l 1
 524 729 l 1
 704 729 l 1
 468 372 l 1
EndSplineSet
Validated: 1
Position2: "sous-table 'cpsp' Chasses pour composition en capitales dans Latin lookup 1" dx=5 dy=0 dh=10 dv=0
EndChar

StartChar: Y
Encoding: 89 89 58
Width: 688
Flags: W
HStem: 0 21G<259 428> 709 20G<-10 191.377 495.547 697>
VStem: 259 169<0 307>
LayerCount: 2
Fore
SplineSet
-10 729 m 1
 179 729 l 1
 343 464 l 1
 508 729 l 1
 697 729 l 1
 428 307 l 1
 428 0 l 1
 259 0 l 1
 259 307 l 1
 -10 729 l 1
EndSplineSet
Validated: 1
Position2: "sous-table 'cpsp' Chasses pour composition en capitales dans Latin lookup 1" dx=5 dy=0 dh=10 dv=0
EndChar

StartChar: Z
Encoding: 90 90 59
Width: 690
Flags: W
HStem: 0 137<256 647> 593 136<53 423>
LayerCount: 2
Fore
SplineSet
53 729 m 1
 635 729 l 1
 635 620 l 1
 256 137 l 1
 647 137 l 1
 647 0 l 1
 43 0 l 1
 43 109 l 1
 423 593 l 1
 53 593 l 1
 53 729 l 1
EndSplineSet
Validated: 1
Position2: "sous-table 'cpsp' Chasses pour composition en capitales dans Latin lookup 1" dx=5 dy=0 dh=10 dv=0
EndChar

StartChar: bracketleft
Encoding: 91 91 60
Width: 435
Flags: W
HStem: -132 103<234 370> 657 103<234 370>
VStem: 82 288<-132 -29 657 760> 82 152<-29 657>
LayerCount: 2
Fore
SplineSet
82 760 m 1xe0
 370 760 l 1
 370 657 l 1xe0
 234 657 l 1
 234 -29 l 1xd0
 370 -29 l 1
 370 -132 l 1
 82 -132 l 1
 82 760 l 1xe0
EndSplineSet
Validated: 1
EndChar

StartChar: backslash
Encoding: 92 92 61
Width: 347
Flags: W
HStem: 709 20G<0 101.131>
LayerCount: 2
Fore
SplineSet
251 -93 m 1
 0 729 l 1
 95 729 l 1
 347 -93 l 1
 251 -93 l 1
EndSplineSet
Validated: 1
EndChar

StartChar: bracketright
Encoding: 93 93 62
Width: 435
Flags: W
HStem: -132 103<65 201> 657 103<65 201>
VStem: 65 288<-132 -29 657 760> 201 152<-29 657>
LayerCount: 2
Fore
SplineSet
353 -132 m 1xe0
 65 -132 l 1
 65 -29 l 1xe0
 201 -29 l 1
 201 657 l 1xd0
 65 657 l 1
 65 760 l 1
 353 760 l 1
 353 -132 l 1xe0
EndSplineSet
Validated: 1
EndChar

StartChar: asciicircum
Encoding: 94 94 63
Width: 796
Flags: W
HStem: 457 272
LayerCount: 2
Fore
SplineSet
453 729 m 1
 700 457 l 1
 594 457 l 1
 398 610 l 1
 202 457 l 1
 96 457 l 1
 343 729 l 1
 453 729 l 1
EndSplineSet
Validated: 1
EndChar

StartChar: underscore
Encoding: 95 95 64
Width: 475
Flags: W
HStem: -236 93<0 475>
LayerCount: 2
Fore
SplineSet
475 -143 m 1
 475 -236 l 1
 0 -236 l 1
 0 -143 l 1
 475 -143 l 1
EndSplineSet
Validated: 1
EndChar

StartChar: grave
Encoding: 96 96 65
Width: 475
Flags: W
HStem: 616 184
VStem: 44 262
LayerCount: 2
Fore
SplineSet
171 800 m 1
 306 616 l 1
 220 616 l 1
 44 800 l 1
 171 800 l 1
EndSplineSet
Validated: 1
EndChar

StartChar: a
Encoding: 97 97 66
Width: 641
Flags: W
HStem: -14 108<192.5 323.669> 0 21G<407 566> 249 97<224.223 407> 452 108<138.784 373.38>
VStem: 41 156<117.587 222.138> 407 159<0 83 148.012 249 346 419.06>
LayerCount: 2
Fore
SplineSet
312 249 m 2xbc
 236 249 197 223 197 171 c 0
 197 123 231 94 287 94 c 0
 355 94 407 150 407 225 c 2
 407 249 l 1
 312 249 l 2xbc
566 313 m 2
 566 0 l 1
 407 0 l 1x7c
 407 83 l 1
 359 14 304 -14 219 -14 c 0
 166 -14 123 2 90 35 c 0
 57 67 41 110 41 162 c 0
 41 289 122 346 301 346 c 2
 407 346 l 1
 407 365 l 2
 407 424 363 452 269 452 c 0
 198 452 137 436 85 405 c 1
 85 533 l 1
 156 552 228 560 301 560 c 0
 488 560 566 487 566 313 c 2
EndSplineSet
Validated: 1
Substitution2: "sous-table Substitution simple lookups10" ordfeminine
Substitution2: "sous-table 'aalt' Activer toutes les variantes dans Latin lookup 0" ordfeminine
EndChar

StartChar: b
Encoding: 98 98 67
Width: 680
Flags: W
HStem: -14 118<321.333 425.154> -1 21G<80 239> 438 119<322.848 425.154> 740 20G<80 239>
VStem: 80 159<-1 80 161.226 380.774 462 760> 477 160<161.672 379.954>
LayerCount: 2
Fore
SplineSet
357 104 m 0xbc
 435 104 477 163 477 271 c 0
 477 379 435 438 357 438 c 0
 281 438 239 379 239 271 c 0
 239 163 281 104 357 104 c 0xbc
239 462 m 1
 287 527 344 557 420 557 c 0
 483 557 536 530 576 477 c 0
 617 424 637 355 637 271 c 0
 637 186 617 117 576 65 c 1
 536 12 483 -14 420 -14 c 0xbc
 344 -14 287 15 239 80 c 1
 239 -1 l 1
 80 -1 l 1x7c
 80 760 l 1
 239 760 l 1
 239 462 l 1
EndSplineSet
Validated: 1
EndChar

StartChar: c
Encoding: 99 99 68
Width: 564
Flags: W
HStem: -14 117<274.5 457.99> 443 117<274.5 455.651>
VStem: 41 162<179.127 366.873>
LayerCount: 2
Fore
SplineSet
500 531 m 1
 500 393 l 1
 455 428 411 443 363 443 c 0
 263 443 203 381 203 273 c 0
 203 165 263 103 363 103 c 0
 415 103 462 119 500 153 c 1
 500 14 l 1
 448 -5 394 -14 341 -14 c 0
 153 -14 41 93 41 273 c 0
 41 453 153 560 341 560 c 0
 395 560 447 551 500 531 c 1
EndSplineSet
Validated: 1
EndChar

StartChar: d
Encoding: 100 100 69
Width: 680
Flags: W
HStem: -14 118<254.802 358.39> -1 21G<440 600> 438 119<254.802 356.881> 740 20G<440 600>
VStem: 43 160<161.672 379.954> 440 160<-1 80 161.226 380.774 462 760>
LayerCount: 2
Fore
SplineSet
440 462 m 1xbc
 440 760 l 1
 600 760 l 1
 600 -1 l 1
 440 -1 l 1x7c
 440 80 l 1
 392 15 336 -14 260 -14 c 0
 196 -14 144 12 104 65 c 1
 63 117 43 186 43 271 c 0
 43 355 63 424 104 477 c 0
 144 530 196 557 260 557 c 0
 336 557 392 527 440 462 c 1xbc
323 104 m 0xbc
 399 104 440 163 440 271 c 0
 440 379 399 438 323 438 c 0
 245 438 203 379 203 271 c 0
 203 163 245 104 323 104 c 0xbc
EndSplineSet
Validated: 1
EndChar

StartChar: e
Encoding: 101 101 70
Width: 644
Flags: W
HStem: -14 108<263.866 474.614> 227 103<203 436> 452 108<256.521 392.67>
VStem: 41 160<158.493 227 330 391.75>
LayerCount: 2
Fore
SplineSet
598 275 m 2
 598 227 l 1
 201 227 l 1
 209 140 261 94 354 94 c 0
 423 94 497 116 574 162 c 1
 574 32 l 1
 495 1 417 -14 338 -14 c 0
 151 -14 41 92 41 273 c 0
 41 361 66 432 117 482 c 0
 168 533 239 560 328 560 c 0
 409 560 475 533 523 481 c 1
 573 431 598 361 598 275 c 2
436 330 m 1
 436 403 393 452 327 452 c 0
 258 452 214 409 203 330 c 1
 436 330 l 1
EndSplineSet
Validated: 1
EndChar

StartChar: f
Encoding: 102 102 71
Width: 413
Flags: W
HStem: 0 21G<103 262> 428 119<18 103 262 409> 653 107<273.068 422>
VStem: 103 159<0 428 547 642.869>
LayerCount: 2
Fore
SplineSet
422 760 m 1
 422 653 l 1
 333 653 l 2
 280 653 262 636 262 588 c 2
 262 547 l 1
 409 547 l 1
 409 428 l 1
 262 428 l 1
 262 0 l 1
 103 0 l 1
 103 428 l 1
 18 428 l 1
 18 547 l 1
 103 547 l 1
 103 588 l 2
 103 705 165 760 297 760 c 2
 422 760 l 1
EndSplineSet
Validated: 1
EndChar

StartChar: g
Encoding: 103 103 72
Width: 680
Flags: W
HStem: -216 108<167.155 377.238> 3 119<253.777 358.394> 442 117<257.114 358.394> 528 20G<440 600>
VStem: 43 161<176.752 383.229> 440 160<-42.9995 97 177.451 386.126 465 548>
LayerCount: 2
Fore
SplineSet
440 97 m 1xdc
 393 32 336 3 260 3 c 0
 197 3 145 28 104 81 c 0
 63 134 43 201 43 282 c 0
 43 363 63 430 104 481 c 1
 145 534 197 559 260 559 c 0xec
 336 559 393 530 440 465 c 1
 440 548 l 1
 600 548 l 1
 600 54 l 2
 600 -122 491 -216 290 -216 c 0
 226 -216 166 -206 105 -185 c 1
 105 -55 l 1
 163 -91 218 -108 274 -108 c 0
 389 -108 440 -58 440 54 c 2
 440 97 l 1xdc
323 442 m 0
 248 442 204 383 204 282 c 0
 204 177 245 122 323 122 c 0
 398 122 440 180 440 282 c 0
 440 383 398 442 323 442 c 0
EndSplineSet
Validated: 1
EndChar

StartChar: h
Encoding: 104 104 73
Width: 676
Flags: W
HStem: 0 21G<80 238 444 602> 434 123<325.152 480.5> 740 20G<80 238>
VStem: 80 158<0 372.614 463 760> 444 158<0 402.204>
LayerCount: 2
Fore
SplineSet
602 333 m 2
 602 0 l 1
 444 0 l 1
 444 51 l 1
 444 253 l 2
 444 301 443 336 442 353 c 0
 441 371 436 385 431 394 c 0
 417 419 389 434 358 434 c 0
 283 434 238 372 238 268 c 2
 238 0 l 1
 80 0 l 1
 80 760 l 1
 238 760 l 1
 238 463 l 1
 291 528 349 557 421 557 c 0
 540 557 602 479 602 333 c 2
EndSplineSet
Validated: 1
EndChar

StartChar: i
Encoding: 105 105 74
Width: 326
Flags: W
HStem: 0 21G<80 246> 624 136<80 246>
VStem: 80 166<0 545 624 760>
LayerCount: 2
Fore
SplineSet
80 545 m 1
 246 545 l 1
 246 0 l 1
 80 0 l 1
 80 545 l 1
80 760 m 1
 246 760 l 1
 246 624 l 1
 80 624 l 1
 80 760 l 1
EndSplineSet
Validated: 1
EndChar

StartChar: j
Encoding: 106 106 75
Width: 327
Flags: W
HStem: -216 107<-31 60.7417> 624 136<85 247>
VStem: 85 162<-83.7702 545 624 760>
LayerCount: 2
Fore
SplineSet
85 545 m 1
 247 545 l 1
 247 7 l 2
 247 -138 176 -216 49 -216 c 2
 -31 -216 l 1
 -31 -109 l 1
 -7 -109 l 2
 65 -109 85 -85 85 7 c 2
 85 545 l 1
85 760 m 1
 247 760 l 1
 247 624 l 1
 85 624 l 1
 85 760 l 1
EndSplineSet
Validated: 1
EndChar

StartChar: k
Encoding: 107 107 76
Width: 632
Flags: W
HStem: 0 21G<80 240 435.552 650> 740 20G<80 240>
VStem: 80 160<0 232 341 760>
LayerCount: 2
Fore
SplineSet
80 760 m 1
 240 760 l 1
 240 341 l 1
 443 545 l 1
 630 545 l 1
 370 296 l 1
 650 0 l 1
 454 0 l 1
 240 232 l 1
 240 0 l 1
 80 0 l 1
 80 760 l 1
EndSplineSet
Validated: 1
EndChar

StartChar: l
Encoding: 108 108 77
Width: 326
Flags: W
HStem: 0 21G<80 246> 740 20G<80 246>
VStem: 80 166<0 760>
LayerCount: 2
Fore
SplineSet
80 760 m 1
 246 760 l 1
 246 0 l 1
 80 0 l 1
 80 760 l 1
EndSplineSet
Validated: 1
EndChar

StartChar: m
Encoding: 109 109 78
Width: 990
Flags: W
HStem: 0 21G<79 237 419 575 759 915> 436 124<316.494 439 648.499 794.283> 528 20G<79 237>
VStem: 79 158<0 381.776 466 548> 419 156<0 378.774> 759 156<0 414.897>
LayerCount: 2
Fore
SplineSet
562 454 m 1xdc
 604 523 665 560 735 560 c 0
 851 560 915 482 915 334 c 2
 915 0 l 1
 759 0 l 1
 759 286 l 1
 761 295 761 302 761 319 c 0
 761 401 738 436 683 436 c 0
 615 436 576 377 575 269 c 1
 575 0 l 1
 419 0 l 1
 419 286 l 2
 419 350 414 390 404 408 c 0
 393 426 373 436 344 436 c 0xdc
 275 436 237 377 237 269 c 2
 237 0 l 1
 79 0 l 1
 79 548 l 1
 237 548 l 1xbc
 237 466 l 1
 280 528 336 560 403 560 c 0
 475 560 532 520 562 454 c 1xdc
EndSplineSet
Validated: 1
EndChar

StartChar: n
Encoding: 110 110 79
Width: 676
Flags: W
HStem: 0 21G<80 238 444 602> 436 124<325.152 480.5> 528 20G<80 238>
VStem: 80 158<0 374.405 466 548> 444 158<0 404.068>
LayerCount: 2
Fore
SplineSet
602 334 m 2xd8
 602 0 l 1
 444 0 l 1
 444 51 l 1
 444 255 l 2
 444 303 443 337 442 355 c 0
 441 373 436 387 431 396 c 0
 417 422 389 436 358 436 c 0xd8
 283 436 238 374 238 269 c 2
 238 0 l 1
 80 0 l 1
 80 548 l 1
 238 548 l 1xb8
 238 466 l 1
 291 531 349 560 421 560 c 0
 540 560 602 482 602 334 c 2xd8
EndSplineSet
Validated: 1
EndChar

StartChar: o
Encoding: 111 111 80
Width: 653
Flags: W
HStem: -14 117<260.453 393.024> 443 117<260.453 393.024>
VStem: 41 162<165.037 380.963> 450 162<165.037 380.963>
LayerCount: 2
Fore
SplineSet
327 443 m 0
 247 443 203 383 203 273 c 0
 203 163 247 103 327 103 c 0
 406 103 450 163 450 273 c 0
 450 383 406 443 327 443 c 0
327 560 m 0
 505 560 612 453 612 273 c 0
 612 93 505 -14 327 -14 c 0
 148 -14 41 93 41 273 c 0
 41 453 148 560 327 560 c 0
EndSplineSet
Validated: 1
Substitution2: "sous-table Substitution simple lookups10" ordmasculine
Substitution2: "sous-table 'aalt' Activer toutes les variantes dans Latin lookup 0" ordmasculine
EndChar

StartChar: p
Encoding: 112 112 81
Width: 680
Flags: W
HStem: -208 21G<80 238> -11 118<320.867 425.154> 441 119<322.398 425.154> 527 20G<80 238>
VStem: 80 158<-208 83 164.226 384.197 465 547> 477 160<164.672 383.166>
LayerCount: 2
Fore
SplineSet
238 83 m 1xec
 238 -208 l 1
 80 -208 l 1
 80 547 l 1
 238 547 l 1xdc
 238 465 l 1
 287 530 343 560 420 560 c 0
 483 560 536 533 576 480 c 0
 617 427 637 358 637 274 c 0
 637 189 617 120 576 68 c 1
 536 15 483 -11 420 -11 c 0
 343 -11 287 18 238 83 c 1xec
357 441 m 0xec
 280 441 238 383 238 274 c 0
 238 166 280 107 357 107 c 0
 435 107 477 166 477 274 c 0
 477 383 435 441 357 441 c 0xec
EndSplineSet
Validated: 1
EndChar

StartChar: q
Encoding: 113 113 82
Width: 680
Flags: W
HStem: -208 21G<439 600> -11 118<254.802 356.61> 441 118<254.802 356.61> 527 20G<439 600>
VStem: 43 160<164.672 383.166> 439 161<-208 83 164.226 384.197 464 547>
LayerCount: 2
Fore
SplineSet
323 441 m 0xec
 245 441 203 383 203 274 c 0
 203 166 245 107 323 107 c 0
 399 107 439 166 439 274 c 0
 439 383 399 441 323 441 c 0xec
439 83 m 1
 391 18 336 -11 260 -11 c 0
 196 -11 144 15 104 68 c 1
 63 120 43 189 43 274 c 0
 43 358 63 427 104 480 c 0
 144 532 196 559 260 559 c 0xec
 336 559 391 529 439 464 c 1
 439 547 l 1
 600 547 l 1xdc
 600 -208 l 1
 439 -208 l 1
 439 83 l 1
EndSplineSet
Validated: 1
EndChar

StartChar: r
Encoding: 114 114 83
Width: 469
Flags: W
HStem: 0 21G<80 239> 427 133<323.544 464.764> 528 20G<80 239>
VStem: 80 159<0 357.029 455 548>
LayerCount: 2
Fore
SplineSet
466 405 m 1xd0
 437 421 410 427 382 427 c 0xd0
 291 427 239 365 239 252 c 2
 239 0 l 1
 80 0 l 1
 80 548 l 1
 239 548 l 1xb0
 239 455 l 1
 283 529 341 560 423 560 c 0
 433 560 442 560 466 558 c 1
 466 405 l 1xd0
EndSplineSet
Validated: 1
EndChar

StartChar: s
Encoding: 115 115 84
Width: 565
Flags: W
HStem: -14 108<126.333 353.09> 452 108<199.147 416.703>
VStem: 49 135<358.169 435.638> 373 147<113.812 196.143>
LayerCount: 2
Fore
SplineSet
487 531 m 1
 487 403 l 1
 415 436 348 452 288 452 c 0
 218 452 184 434 184 395 c 0
 184 363 207 349 274 340 c 2
 304 336 l 2
 390 325 447 306 477 280 c 0
 505 255 520 214 520 159 c 0
 520 44 439 -14 276 -14 c 0
 207 -14 131 -4 54 18 c 1
 54 147 l 1
 120 110 191 94 264 94 c 0
 336 94 373 115 373 156 c 0
 373 191 354 206 279 215 c 2
 248 219 l 2
 101 237 49 285 49 391 c 0
 49 506 123 560 279 560 c 0
 340 560 407 551 487 531 c 1
EndSplineSet
Validated: 1
EndChar

StartChar: t
Encoding: 116 116 85
Width: 453
Flags: W
HStem: 0 117<269.965 417> 429 118<12 97 255 431>
VStem: 97 158<129.947 429 547 702>
LayerCount: 2
Fore
SplineSet
255 702 m 1
 255 547 l 1
 431 547 l 1
 431 429 l 1
 255 429 l 1
 255 188 l 2
 255 133 270 117 335 117 c 2
 417 117 l 1
 417 0 l 1
 276 0 l 2
 146 0 97 51 97 188 c 2
 97 429 l 1
 12 429 l 1
 12 547 l 1
 97 547 l 1
 97 702 l 1
 255 702 l 1
EndSplineSet
Validated: 1
EndChar

StartChar: u
Encoding: 117 117 86
Width: 676
Flags: W
HStem: -14 124<196.5 350.66> -1 21G<437 596> 527 20G<74 231 437 596>
VStem: 74 155<141.364 547> 437 159<-1 80 171.595 547>
LayerCount: 2
Fore
SplineSet
74 211 m 2xb8
 74 547 l 1
 231 547 l 1
 231 495 l 2
 231 466 231 427 229 381 c 1
 229 291 l 2
 229 199 233 166 245 148 c 0
 261 124 285 110 318 110 c 0xb8
 392 110 437 172 437 277 c 2
 437 547 l 1
 596 547 l 1
 596 -1 l 1
 437 -1 l 1x78
 437 80 l 1
 385 15 327 -14 256 -14 c 0
 137 -14 74 64 74 211 c 2xb8
EndSplineSet
Validated: 1
EndChar

StartChar: v
Encoding: 118 118 87
Width: 619
Flags: W
HStem: 0 21G<213.431 405.569> 527 20G<14 180.117 439.883 605>
LayerCount: 2
Fore
SplineSet
14 547 m 1
 173 547 l 1
 310 162 l 1
 447 547 l 1
 605 547 l 1
 398 0 l 1
 221 0 l 1
 14 547 l 1
EndSplineSet
Validated: 1
EndChar

StartChar: w
Encoding: 119 119 88
Width: 877
Flags: W
HStem: 0 21G<164.991 349.856 527.091 711.046> 527 20G<33 190.844 368.104 508.908 686.04 844>
LayerCount: 2
Fore
SplineSet
33 547 m 1
 186 547 l 1
 279 163 l 1
 373 547 l 1
 504 547 l 1
 597 168 l 1
 691 547 l 1
 844 547 l 1
 706 0 l 1
 532 0 l 1
 438 383 l 1
 345 0 l 1
 170 0 l 1
 33 547 l 1
EndSplineSet
Validated: 1
EndChar

StartChar: x
Encoding: 120 120 89
Width: 613
Flags: W
HStem: 0 21G<14 197.785 415.102 599> 527 20G<24 206.614 406.265 589>
LayerCount: 2
Fore
SplineSet
217 280 m 1
 24 547 l 1
 193 547 l 1
 306 381 l 1
 420 547 l 1
 589 547 l 1
 396 281 l 1
 599 0 l 1
 429 0 l 1
 306 177 l 1
 184 0 l 1
 14 0 l 1
 217 280 l 1
EndSplineSet
Validated: 1
EndChar

StartChar: y
Encoding: 121 121 90
Width: 619
Flags: W
HStem: -216 108<96 219.889> 527 20G<11 178.819 437.298 602>
LayerCount: 2
Fore
SplineSet
11 547 m 1
 171 547 l 1
 318 171 l 1
 444 547 l 1
 602 547 l 1
 379 -53 l 2
 357 -113 331 -155 302 -179 c 0
 273 -203 236 -216 188 -216 c 2
 96 -216 l 1
 96 -108 l 1
 144 -108 l 2
 206 -108 229 -92 245 -40 c 2
 250 -23 l 1
 11 547 l 1
EndSplineSet
Validated: 1
EndChar

StartChar: z
Encoding: 122 122 91
Width: 553
Flags: W
HStem: 0 120<226 507> 427 120<54 325>
LayerCount: 2
Fore
SplineSet
54 547 m 1
 507 547 l 1
 507 429 l 1
 226 120 l 1
 507 120 l 1
 507 0 l 1
 43 0 l 1
 43 118 l 1
 325 427 l 1
 54 427 l 1
 54 547 l 1
EndSplineSet
Validated: 1
EndChar

StartChar: braceleft
Encoding: 123 123 92
Width: 677
Flags: W
HStem: -163 102<441.917 558> 245 101<119 231.347> 658 102<441.917 558>
VStem: 269 146<-33.8388 206.26 385.548 631.15>
LayerCount: 2
Fore
SplineSet
558 -61 m 1
 558 -163 l 1
 460 -163 l 2
 328 -163 269 -109 269 14 c 2
 269 109 l 2
 269 210 238 245 142 245 c 2
 119 245 l 1
 119 346 l 1
 142 346 l 2
 238 346 269 380 269 482 c 2
 269 583 l 2
 269 707 328 760 460 760 c 2
 558 760 l 1
 558 658 l 1
 530 658 l 2
 483 658 451 651 437 635 c 1
 423 621 415 589 415 541 c 2
 415 459 l 2
 415 355 390 315 320 299 c 1
 390 282 415 241 415 139 c 2
 415 57 l 2
 415 7 423 -24 437 -38 c 1
 451 -54 483 -61 530 -61 c 2
 558 -61 l 1
EndSplineSet
Validated: 1
EndChar

StartChar: bar
Encoding: 124 124 93
Width: 345
Flags: W
HStem: 744 20G<120 225>
VStem: 120 105<-236 764>
LayerCount: 2
Fore
SplineSet
225 764 m 1
 225 -236 l 1
 120 -236 l 1
 120 764 l 1
 225 764 l 1
EndSplineSet
Validated: 1
EndChar

StartChar: braceright
Encoding: 125 125 94
Width: 677
Flags: W
HStem: -163 102<119 234.083> 245 101<445.076 558> 658 102<119 234.083>
VStem: 261 146<-33.8388 204.641 385.548 631.15>
LayerCount: 2
Fore
SplineSet
119 -61 m 1
 146 -61 l 2
 194 -61 225 -54 239 -38 c 1
 253 -24 261 7 261 57 c 2
 261 139 l 2
 261 241 287 282 357 299 c 1
 287 315 261 355 261 459 c 2
 261 541 l 2
 261 589 253 621 239 635 c 1
 225 651 194 658 146 658 c 2
 119 658 l 1
 119 760 l 1
 216 760 l 2
 348 760 407 707 407 583 c 2
 407 482 l 2
 407 380 439 346 534 346 c 2
 558 346 l 1
 558 245 l 1
 534 245 l 2
 439 245 407 210 407 109 c 2
 407 14 l 2
 407 -109 348 -163 216 -163 c 2
 119 -163 l 1
 119 -61 l 1
EndSplineSet
Validated: 1
EndChar

StartChar: asciitilde
Encoding: 126 126 95
Width: 797
Flags: W
HStem: 224 109<438.463 614.551> 294 110<182.943 362.089>
LayerCount: 2
Fore
SplineSet
696 415 m 1x80
 696 297 l 1
 631 245 580 224 521 224 c 0x80
 488 224 451 233 406 253 c 0
 401 255 399 257 396 259 c 0
 394 260 390 261 385 263 c 0
 336 284 296 294 265 294 c 0
 212 294 161 268 101 212 c 1
 101 330 l 1
 166 383 217 404 276 404 c 0x40
 309 404 347 393 392 373 c 1
 397 372 399 370 401 369 c 0
 403 368 407 367 412 365 c 0
 461 344 501 333 532 333 c 0
 584 333 633 357 696 415 c 1x80
EndSplineSet
Validated: 1
EndChar

StartChar: Euro
Encoding: 8364 8364 96
Width: 662
Flags: W
HStem: -14 119<346.337 521.406> 234 89<21 70.9473 259 403> 404 90<21 70.9536 259 476> 622 120<342.004 521.792>
VStem: 71 166<323.609 403.44>
LayerCount: 2
Fore
SplineSet
598 38 m 1
 541 3 476 -14 408 -14 c 0
 245 -14 130 73 83 234 c 1
 -18 234 l 1
 21 323 l 1
 70 323 l 1
 71 333 71 343 71 364 c 0
 71 385 71 394 70 404 c 1
 -18 404 l 1
 21 494 l 1
 83 494 l 1
 132 655 245 742 408 742 c 0
 476 742 541 725 598 690 c 1
 598 544 l 1
 549 596 492 622 431 622 c 0
 348 622 288 578 259 494 c 1
 514 494 l 1
 476 404 l 1
 241 404 l 1
 237 392 237 383 237 358 c 0
 237 349 237 336 241 323 c 1
 442 323 l 1
 403 234 l 1
 259 234 l 1
 291 148 350 105 431 105 c 0
 492 105 547 131 598 183 c 1
 598 38 l 1
EndSplineSet
Validated: 1
EndChar

StartChar: quotesinglbase
Encoding: 8218 8218 97
Width: 360
Flags: W
HStem: -122 311<118 162>
VStem: 118 154<50 189>
LayerCount: 2
Fore
SplineSet
118 189 m 1
 272 189 l 1
 272 50 l 1
 162 -122 l 1
 68 -122 l 1
 118 50 l 1
 118 189 l 1
EndSplineSet
Validated: 1
EndChar

StartChar: florin
Encoding: 402 402 98
Width: 661
Flags: W
HStem: -208 107<14.1185 140.554> 324 111<128 242 420 554> 653 107<481.617 606.628>
LayerCount: 2
Fore
SplineSet
619 742 m 1
 619 623 l 1
 591 644 567 653 543 653 c 0
 482 653 450 618 433 522 c 1
 420 435 l 1
 554 435 l 1
 554 324 l 1
 398 324 l 1
 333 -10 l 2
 308 -141 239 -208 123 -208 c 0
 84 -208 43 -202 3 -190 c 1
 3 -72 l 1
 29 -92 55 -101 79 -101 c 0
 138 -101 170 -67 189 29 c 1
 242 324 l 1
 128 324 l 1
 128 435 l 1
 263 435 l 1
 290 562 l 1
 315 695 383 760 499 760 c 0
 538 760 579 754 619 742 c 1
EndSplineSet
Validated: 1
EndChar

StartChar: quotedblbase
Encoding: 8222 8222 99
Width: 624
Flags: W
HStem: -122 311<266 308 508 551>
VStem: 117 149<50 189> 359 148<49 189>
LayerCount: 2
Fore
SplineSet
117 189 m 1
 266 189 l 1
 266 50 l 1
 159 -122 l 1
 68 -122 l 1
 117 50 l 1
 117 189 l 1
359 189 m 1
 507 189 l 1
 507 49 l 1
 402 -122 l 1
 310 -122 l 1
 359 49 l 1
 359 189 l 1
EndSplineSet
Validated: 1
EndChar

StartChar: ellipsis
Encoding: 8230 8230 100
Width: 950
Flags: W
HStem: 0 189<75 233 396 554 717 875>
VStem: 75 158<0 189> 396 158<0 189> 717 158<0 189>
CounterMasks: 1 70
LayerCount: 2
Fore
SplineSet
717 189 m 1
 875 189 l 1
 875 0 l 1
 717 0 l 1
 717 189 l 1
75 189 m 1
 233 189 l 1
 233 0 l 1
 75 0 l 1
 75 189 l 1
396 189 m 1
 554 189 l 1
 554 0 l 1
 396 0 l 1
 396 189 l 1
EndSplineSet
Validated: 1
EndChar

StartChar: dagger
Encoding: 8224 8224 101
Width: 476
Flags: W
HStem: 432 109<25 163 308 447> 709 20G<163 308>
VStem: 163 145<-96 432 541 729>
LayerCount: 2
Fore
SplineSet
163 729 m 1
 308 729 l 1
 308 541 l 1
 447 541 l 1
 447 432 l 1
 308 432 l 1
 308 -96 l 1
 163 -96 l 1
 163 432 l 1
 25 432 l 1
 25 541 l 1
 163 541 l 1
 163 729 l 1
EndSplineSet
Validated: 1
EndChar

StartChar: daggerdbl
Encoding: 8225 8225 102
Width: 476
Flags: W
HStem: 92 109<24 163 308 447> 432 109<25 163 308 447> 709 20G<163 308>
VStem: 163 145<-96 92 201 432 541 729>
LayerCount: 2
Fore
SplineSet
163 729 m 1
 308 729 l 1
 308 541 l 1
 447 541 l 1
 447 432 l 1
 308 432 l 1
 308 201 l 1
 447 201 l 1
 447 92 l 1
 308 92 l 1
 308 -96 l 1
 163 -96 l 1
 163 92 l 1
 24 92 l 1
 24 201 l 1
 163 201 l 1
 163 432 l 1
 25 432 l 1
 25 541 l 1
 163 541 l 1
 163 729 l 1
EndSplineSet
Validated: 1
EndChar

StartChar: circumflex
Encoding: 710 710 103
Width: 476
Flags: W
HStem: 616 184
LayerCount: 2
Fore
SplineSet
184 800 m 1
 292 800 l 1
 413 616 l 1
 337 616 l 1
 238 733 l 1
 139 616 l 1
 63 616 l 1
 184 800 l 1
EndSplineSet
Validated: 1
EndChar

StartChar: perthousand
Encoding: 8240 8240 104
Width: 1368
Flags: W
HStem: -14 75<687.553 786.067 1116.93 1215.23> 305 73<687.553 786.067 1116.93 1215.23> 350 73<160.753 259.414> 668 74<160.753 259.414>
VStem: 30 102<454.207 637.749> 288 102<454.207 637.749> 556 103<91.1546 274.435> 814 103<91.1546 274.435> 986 103<91.1546 274.435> 1243 103<91.1546 274.435>
LayerCount: 2
Fore
SplineSet
1166 305 m 0xdfc0
 1116 305 1089 262 1089 183 c 0
 1089 104 1116 61 1166 61 c 0
 1216 61 1243 104 1243 183 c 0
 1243 262 1216 305 1166 305 c 0xdfc0
1166 378 m 0
 1278 378 1346 304 1346 183 c 0
 1346 61 1278 -14 1166 -14 c 0
 1055 -14 986 61 986 183 c 0
 986 304 1055 378 1166 378 c 0
210 668 m 0
 160 668 132 625 132 546 c 0
 132 467 160 423 210 423 c 0xbfc0
 260 423 288 467 288 546 c 0
 288 625 260 668 210 668 c 0
210 742 m 0
 322 742 390 668 390 546 c 0
 390 425 322 350 210 350 c 0
 99 350 30 425 30 546 c 0
 30 668 99 742 210 742 c 0
302 -14 m 1
 209 -14 l 1
 645 742 l 1
 738 742 l 1
 302 -14 l 1
737 378 m 0xdfc0
 848 378 917 304 917 183 c 0
 917 61 848 -14 737 -14 c 0
 625 -14 556 61 556 183 c 0
 556 304 625 378 737 378 c 0xdfc0
737 305 m 0
 687 305 659 262 659 183 c 0
 659 104 687 61 737 61 c 0
 787 61 814 104 814 183 c 0
 814 262 787 305 737 305 c 0
EndSplineSet
Validated: 1
Ligature2: "sous-table Remplacement de ligature lookups11" zero fraction zero zero
Ligature2: "sous-table Remplacement de ligature lookups11" zero slash zero zero
EndChar

StartChar: Scaron
Encoding: 352 352 105
Width: 683
Flags: W
HStem: -14 127<192.703 415.274> 556 21G<532 570> 612 127<252.065 485.987>
VStem: 68 151<483.506 580.241> 453 161<145.989 250.521>
LayerCount: 2
Fore
SplineSet
570 705 m 1
 570 556 l 1
 494 594 420 612 355 612 c 0
 264 612 219 586 219 530 c 0
 219 487 244 468 323 450 c 1
 400 434 l 2
 554 403 614 342 614 221 c 0
 614 63 526 -14 339 -14 c 0
 251 -14 160 2 71 36 c 1
 71 190 l 1
 160 139 244 113 321 113 c 0
 405 113 453 143 453 198 c 0
 453 246 430 269 339 290 c 2
 268 306 l 2
 130 337 68 402 68 516 c 0
 68 659 159 739 326 739 c 0
 402 739 483 728 570 705 c 1
260 806 m 1
 157 927 l 1
 232 927 l 1
 330 846 l 1
 428 927 l 1
 503 927 l 1
 400 806 l 1
 260 806 l 1
EndSplineSet
Validated: 1
Position2: "sous-table 'cpsp' Chasses pour composition en capitales dans Latin lookup 1" dx=5 dy=0 dh=10 dv=0
EndChar

StartChar: guilsinglleft
Encoding: 8249 8249 106
Width: 391
Flags: W
VStem: 73 229
LayerCount: 2
Fore
SplineSet
302 519 m 1
 302 405 l 1
 157 293 l 1
 302 181 l 1
 302 67 l 1
 73 248 l 1
 73 337 l 1
 302 519 l 1
EndSplineSet
Validated: 1
EndChar

StartChar: OE
Encoding: 338 338 107
Width: 1109
Flags: W
HStem: -1 135<363.2 552 722 1040> 312 136<722 1011> 594 135<356.933 552 722 1029>
VStem: 48 171<260.572 469.221> 552 170<134 312 448 594>
LayerCount: 2
Fore
SplineSet
552 594 m 1
 498 594 l 2
 312 594 219 519 219 365 c 0
 219 211 312 134 498 134 c 2
 552 134 l 1
 552 594 l 1
504 729 m 2
 1029 729 l 1
 1029 594 l 1
 722 594 l 1
 722 448 l 1
 1011 448 l 1
 1011 312 l 1
 722 312 l 1
 722 134 l 1
 1040 134 l 1
 1040 -1 l 1
 504 -1 l 2
 497 -1 478 -1 471 -1 c 0
 198 -1 48 130 48 365 c 0
 48 600 198 730 471 730 c 0
 477 730 497 729 504 729 c 2
EndSplineSet
Validated: 1
Ligature2: "sous-table 'dpng' Dipthongs (Obsolete) dans Latin lookup 9" O e
Ligature2: "sous-table 'dpng' Dipthongs (Obsolete) dans Latin lookup 9" O E
Position2: "sous-table 'cpsp' Chasses pour composition en capitales dans Latin lookup 1" dx=5 dy=0 dh=10 dv=0
EndChar

StartChar: quoteleft
Encoding: 8216 8216 108
Width: 361
Flags: W
HStem: 418 311<207 252>
VStem: 98 154<418 557>
LayerCount: 2
Fore
SplineSet
252 418 m 1
 98 418 l 1
 98 557 l 1
 207 729 l 1
 302 729 l 1
 252 557 l 1
 252 418 l 1
EndSplineSet
Validated: 1
EndChar

StartChar: quoteright
Encoding: 8217 8217 109
Width: 361
Flags: W
HStem: 418 311<110 155>
VStem: 110 154<591 729>
LayerCount: 2
Fore
SplineSet
110 729 m 1
 264 729 l 1
 264 591 l 1
 155 418 l 1
 60 418 l 1
 110 591 l 1
 110 729 l 1
EndSplineSet
Validated: 1
EndChar

StartChar: quotedblleft
Encoding: 8220 8220 110
Width: 623
Flags: W
HStem: 418 311<203 246 445 488>
VStem: 98 148<418 557> 339 149<418 556>
LayerCount: 2
Fore
SplineSet
488 418 m 1
 339 418 l 1
 339 556 l 1
 445 729 l 1
 536 729 l 1
 488 556 l 1
 488 418 l 1
246 418 m 1
 98 418 l 1
 98 557 l 1
 203 729 l 1
 295 729 l 1
 246 557 l 1
 246 418 l 1
EndSplineSet
Validated: 1
EndChar

StartChar: quotedblright
Encoding: 8221 8221 111
Width: 624
Flags: W
HStem: 418 311<377 420 618 661>
VStem: 136 148<591 729> 377 149<590 729>
LayerCount: 2
Fore
SplineSet
136 729 m 1
 284 729 l 1
 284 591 l 1
 179 418 l 1
 87 418 l 1
 136 591 l 1
 136 729 l 1
377 729 m 1
 526 729 l 1
 526 590 l 1
 420 418 l 1
 328 418 l 1
 377 590 l 1
 377 729 l 1
EndSplineSet
Validated: 1
EndChar

StartChar: bullet
Encoding: 8226 8226 112
Width: 608
Flags: W
HStem: 196 351<226.025 382.906>
VStem: 137 334<284.879 457.668>
LayerCount: 2
Fore
SplineSet
137 372 m 0
 137 419 154 464 186 495 c 0
 219 528 259 547 305 547 c 0
 349 547 391 528 422 495 c 0
 454 462 471 419 471 372 c 0
 471 325 454 280 422 247 c 0
 391 214 349 196 304 196 c 0
 258 196 217 214 186 247 c 0
 154 280 137 325 137 372 c 0
EndSplineSet
Validated: 1
EndChar

StartChar: endash
Encoding: 8211 8211 113
Width: 475
Flags: W
HStem: 211 126<0 475>
LayerCount: 2
Fore
SplineSet
0 337 m 1
 475 337 l 1
 475 211 l 1
 0 211 l 1
 0 337 l 1
EndSplineSet
Validated: 1
EndChar

StartChar: emdash
Encoding: 8212 8212 114
Width: 950
Flags: W
HStem: 211 126<0 950>
LayerCount: 2
Fore
SplineSet
0 337 m 1
 950 337 l 1
 950 211 l 1
 0 211 l 1
 0 337 l 1
EndSplineSet
Validated: 1
EndChar

StartChar: tilde
Encoding: 732 732 115
Width: 475
Flags: W
HStem: 638 72<255.597 335.19> 707 71<139.112 219.07>
VStem: 76 54<638 700.919> 345 54<718.578 778>
LayerCount: 2
Fore
SplineSet
242 668 m 2xb0
 217 687 l 2
 216 688 213 689 211 690 c 0
 194 702 181 707 172 707 c 0x70
 146 707 130 684 130 638 c 1
 76 638 l 1xb0
 76 728 108 778 164 778 c 0x70
 185 778 207 770 231 749 c 1
 262 727 l 2
 279 716 291 710 301 710 c 0xb0
 330 710 345 735 345 778 c 1
 399 778 l 1x70
 399 689 366 638 310 638 c 0
 288 638 271 646 242 668 c 2xb0
EndSplineSet
Validated: 1
EndChar

StartChar: trademark
Encoding: 8482 8482 116
Width: 951
Flags: W
HStem: 447 282<219 288 435 507 680 751> 665 64<137 219 288 370>
VStem: 219 69<447 665> 435 72<447 667> 680 71<447 667>
LayerCount: 2
Fore
SplineSet
533 729 m 1x78
 593 614 l 1
 653 729 l 1x78
 751 729 l 1
 751 447 l 1
 680 447 l 1
 680 667 l 1
 608 538 l 1
 580 538 l 1
 507 667 l 1
 507 447 l 1
 435 447 l 1
 435 729 l 1xb8
 533 729 l 1x78
370 729 m 1
 370 665 l 1
 288 665 l 1x78
 288 447 l 1
 219 447 l 1xb8
 219 665 l 1
 137 665 l 1
 137 729 l 1
 370 729 l 1
EndSplineSet
Validated: 1
EndChar

StartChar: scaron
Encoding: 353 353 117
Width: 565
Flags: W
HStem: -14 107<126.333 353.09> 449 107<199.147 416.703>
VStem: 49 135<355.775 432.611> 373 147<112.995 194.594>
LayerCount: 2
Fore
SplineSet
487 528 m 1
 487 400 l 1
 415 433 348 449 288 449 c 0
 218 449 184 431 184 392 c 0
 184 361 207 347 274 338 c 2
 304 334 l 2
 390 323 447 304 477 278 c 0
 505 253 520 212 520 158 c 0
 520 44 439 -14 276 -14 c 0
 207 -14 131 -4 54 18 c 1
 54 146 l 1
 120 109 191 93 264 93 c 0
 336 93 373 114 373 155 c 0
 373 190 354 204 279 213 c 2
 248 217 l 2
 101 236 49 283 49 388 c 0
 49 503 123 556 279 556 c 0
 340 556 407 547 487 528 c 1
229 622 m 1
 109 800 l 1
 184 800 l 1
 283 687 l 1
 381 800 l 1
 456 800 l 1
 337 622 l 1
 229 622 l 1
EndSplineSet
Validated: 1
EndChar

StartChar: guilsinglright
Encoding: 8250 8250 118
Width: 391
Flags: W
VStem: 89 229
LayerCount: 2
Fore
SplineSet
89 519 m 1
 318 337 l 1
 318 248 l 1
 89 67 l 1
 89 181 l 1
 235 293 l 1
 89 405 l 1
 89 519 l 1
EndSplineSet
Validated: 1
EndChar

StartChar: oe
Encoding: 339 339 119
Width: 1040
Flags: W
HStem: -14 117<258.163 392.372> -14 108<662.499 871.391> 227 103<602 833> 443 117<258.163 391.117> 452 108<655.264 789.727>
VStem: 41 160<165.037 380.963> 445 156<164.364 227 330 381.636>
LayerCount: 2
Fore
SplineSet
833 330 m 1x2e
 833 403 791 452 726 452 c 0
 657 452 614 409 602 330 c 1
 833 330 l 1x2e
994 275 m 2
 994 227 l 1
 601 227 l 1
 609 140 660 94 752 94 c 0
 820 94 894 116 970 162 c 1
 970 32 l 1
 892 1 813 -14 737 -14 c 0x6e
 632 -14 570 11 524 69 c 1
 473 13 406 -14 324 -14 c 0
 147 -14 41 93 41 273 c 0
 41 453 147 560 324 560 c 0xb6
 409 560 471 533 522 476 c 1
 574 534 633 560 718 560 c 0
 803 560 870 533 919 482 c 1
 969 432 994 362 994 275 c 2
324 443 m 0xb6
 245 443 201 383 201 273 c 0
 201 163 245 103 324 103 c 0
 402 103 445 163 445 273 c 0
 445 383 402 443 324 443 c 0xb6
EndSplineSet
Validated: 1
Ligature2: "sous-table 'dpng' Dipthongs (Obsolete) dans Latin lookup 9" o e
EndChar

StartChar: Ydieresis
Encoding: 376 376 120
Width: 688
Flags: W
HStem: 0 21G<259 428> 708 20G<-10 196.97 495.5 697> 814 113<185 288 375 475>
VStem: 185 103<814 927> 259 169<0 307> 375 100<814 927>
LayerCount: 2
Fore
SplineSet
-10 728 m 1xe8
 185 728 l 1xf0
 343 464 l 1
 508 728 l 1
 697 728 l 1
 428 307 l 1
 428 0 l 1
 259 0 l 1
 259 307 l 1
 -10 728 l 1xe8
185 927 m 1
 288 927 l 1
 288 814 l 1
 185 814 l 1
 185 927 l 1
375 927 m 1xe4
 475 927 l 1
 475 814 l 1
 375 814 l 1
 375 927 l 1xe4
EndSplineSet
Validated: 1
Position2: "sous-table 'cpsp' Chasses pour composition en capitales dans Latin lookup 1" dx=5 dy=0 dh=10 dv=0
EndChar

StartChar: exclamdown
Encoding: 161 161 121
Width: 433
Flags: W
HStem: 0 21G<133 300> 561 168<133 300>
VStem: 133 167<0 337.917 561 729>
LayerCount: 2
Fore
SplineSet
133 0 m 1
 133 279 l 1
 157 481 l 1
 276 481 l 1
 300 279 l 1
 300 0 l 1
 133 0 l 1
133 561 m 1
 133 729 l 1
 300 729 l 1
 300 561 l 1
 133 561 l 1
EndSplineSet
Validated: 1
Position2: "sous-table 'cpsp' Chasses pour composition en capitales dans Latin lookup 1" dx=5 dy=0 dh=10 dv=0
EndChar

StartChar: cent
Encoding: 162 162 122
Width: 662
Flags: W
HStem: -12 117<396 496.853> 440 118<396 494.88>
VStem: 81 162<180.167 363.944> 330 66<-153 -12 121 424 558 699>
LayerCount: 2
Fore
SplineSet
330 424 m 1
 271 394 243 346 243 273 c 0
 243 199 271 149 330 121 c 1
 330 424 l 1
539 529 m 1
 539 392 l 1
 494 424 449 440 409 440 c 2
 396 440 l 1
 396 105 l 1
 452 106 503 122 539 152 c 1
 539 16 l 1
 487 -3 442 -12 407 -12 c 2
 396 -12 l 1
 396 -153 l 1
 330 -153 l 1
 330 -12 l 1
 165 13 81 113 81 281 c 0
 81 439 168 535 330 558 c 1
 330 699 l 1
 396 699 l 1
 396 558 l 1
 442 557 489 546 539 529 c 1
EndSplineSet
Validated: 1
EndChar

StartChar: sterling
Encoding: 163 163 123
Width: 661
Flags: W
HStem: 0 124<58 166 326 582> 293 110<74 166 326 504> 623 119<369.637 542.401>
VStem: 166 160<124 293 403 579.148>
LayerCount: 2
Fore
SplineSet
578 718 m 1
 578 583 l 1
 536 609 488 623 443 623 c 0
 363 623 326 580 326 491 c 2
 326 403 l 1
 504 403 l 1
 504 293 l 1
 326 293 l 1
 326 124 l 1
 582 124 l 1
 582 0 l 1
 58 0 l 1
 58 124 l 1
 166 124 l 1
 166 293 l 1
 74 293 l 1
 74 403 l 1
 166 403 l 1
 166 491 l 2
 166 666 241 742 411 742 c 0
 467 742 522 734 578 718 c 1
EndSplineSet
Validated: 1
EndChar

StartChar: currency
Encoding: 164 164 124
Width: 604
Flags: W
HStem: 105 95<237.891 365.998> 425 95<237.205 367.086>
VStem: 106 87<245.295 380.728> 411 88<245.049 380.545>
LayerCount: 2
Fore
SplineSet
193 132 m 1
 100 30 l 1
 34 101 l 1
 133 200 l 1
 116 233 106 269 106 313 c 0
 106 354 116 390 135 422 c 1
 35 522 l 1
 101 594 l 1
 198 491 l 1
 229 511 264 520 303 520 c 0
 338 520 374 512 411 493 c 1
 506 596 l 1
 571 524 l 1
 472 425 l 1
 491 387 499 349 499 313 c 0
 499 271 491 236 471 205 c 1
 570 103 l 1
 504 32 l 1
 407 134 l 1
 376 114 343 105 303 105 c 0
 265 105 230 113 193 132 c 1
303 200 m 0
 363 200 411 250 411 313 c 0
 411 376 363 425 303 425 c 0
 241 425 193 376 193 313 c 0
 193 250 240 200 303 200 c 0
EndSplineSet
Validated: 1
EndChar

StartChar: yen
Encoding: 165 165 125
Width: 661
Flags: W
HStem: 0 21G<246 414> 205 88<31 246 414 630> 376 87<31 171 491 630> 709 20G<11 202.314 458.773 650>
VStem: 246 168<0 205 293 330>
LayerCount: 2
Fore
SplineSet
630 205 m 1
 414 205 l 1
 414 0 l 1
 246 0 l 1
 246 205 l 1
 31 205 l 1
 31 293 l 1
 246 293 l 1
 246 330 l 1
 221 376 l 1
 31 376 l 1
 31 463 l 1
 171 463 l 1
 11 729 l 1
 190 729 l 1
 331 500 l 1
 471 729 l 1
 650 729 l 1
 491 463 l 1
 630 463 l 1
 630 376 l 1
 440 376 l 1
 414 330 l 1
 414 293 l 1
 630 293 l 1
 630 205 l 1
EndSplineSet
Validated: 1
EndChar

StartChar: brokenbar
Encoding: 166 166 126
Width: 345
Flags: W
VStem: 120 105<-171 195 334 699>
LayerCount: 2
Fore
SplineSet
225 699 m 1
 225 334 l 1
 120 334 l 1
 120 699 l 1
 225 699 l 1
225 195 m 1
 225 -171 l 1
 120 -171 l 1
 120 195 l 1
 225 195 l 1
EndSplineSet
Validated: 1
EndChar

StartChar: section
Encoding: 167 167 127
Width: 475
Flags: W
HStem: -95 94<110.882 282.237> 650 92<195.871 364.709>
VStem: 7 121<291.599 393.003> 47 138<563.614 636.696> 294 140<12.7818 84.5051> 354 117<254.246 354.643>
LayerCount: 2
Fore
SplineSet
410 716 m 1xd0
 410 610 l 1
 350 637 301 650 266 650 c 0
 213 650 185 632 185 597 c 0
 185 575 218 549 281 520 c 1
 290 517 295 514 299 512 c 0
 365 484 410 455 435 427 c 0
 459 400 471 366 471 326 c 0xd4
 471 249 436 197 361 166 c 1
 409 139 434 102 434 54 c 0
 434 -39 355 -95 224 -95 c 0
 171 -95 116 -87 52 -69 c 1
 52 42 l 1
 124 13 182 -1 217 -1 c 0
 264 -1 294 18 294 49 c 0
 294 74 263 98 202 125 c 0
 190 130 182 133 176 136 c 0
 50 191 7 243 7 326 c 0xe8
 7 395 42 445 114 479 c 1
 67 512 47 547 47 596 c 0
 47 687 122 742 245 742 c 0
 297 742 353 734 410 716 c 1xd0
200 424 m 1
 152 404 128 378 128 343 c 0xe4
 128 319 138 299 160 281 c 0
 181 265 222 245 282 224 c 1
 329 240 354 269 354 305 c 0
 354 351 312 385 200 424 c 1
EndSplineSet
Validated: 1
EndChar

StartChar: dieresis
Encoding: 168 168 128
Width: 474
Flags: W
HStem: 654 120<91 193 282 383>
VStem: 91 102<654 774> 282 101<654 774>
LayerCount: 2
Fore
SplineSet
91 774 m 1
 193 774 l 1
 193 654 l 1
 91 654 l 1
 91 774 l 1
282 774 m 1
 383 774 l 1
 383 654 l 1
 282 654 l 1
 282 774 l 1
EndSplineSet
Validated: 1
EndChar

StartChar: copyright
Encoding: 169 169 129
Width: 950
Flags: W
HStem: 0 66<365.728 584.085> 155 82<433.454 590.712> 487 82<435.046 587.768> 659 66<365.728 583.71>
VStem: 131 56<248.721 475.855> 281 107<282.826 439.719> 762 57<248.721 475.855>
LayerCount: 2
Fore
SplineSet
611 550 m 1
 611 450 l 1
 577 476 544 487 510 487 c 0
 434 487 388 439 388 362 c 0
 388 283 432 237 510 237 c 0
 548 237 585 250 611 273 c 1
 611 175 l 1
 571 161 531 155 494 155 c 0
 429 155 378 174 339 212 c 0
 301 250 281 300 281 362 c 0
 281 424 301 475 339 512 c 0
 378 550 429 569 494 569 c 0
 536 569 574 564 611 550 c 1
475 659 m 0
 396 659 328 630 272 572 c 0
 215 513 187 444 187 362 c 0
 187 280 215 211 272 152 c 0
 328 94 396 66 475 66 c 0
 554 66 621 94 678 152 c 1
 734 211 762 280 762 362 c 0
 762 444 734 513 678 572 c 1
 620 631 553 659 475 659 c 0
475 725 m 0
 569 725 651 689 718 618 c 0
 786 547 819 461 819 362 c 0
 819 264 786 179 718 108 c 0
 651 37 569 0 475 0 c 0
 381 0 299 37 232 108 c 0
 164 179 131 264 131 362 c 0
 131 461 164 547 232 618 c 0
 299 689 381 725 475 725 c 0
EndSplineSet
Validated: 1
EndChar

StartChar: ordfeminine
Encoding: 170 170 130
Width: 535
Flags: W
HStem: 182 92<80 459> 344 70<188.933 301.426> 534 59<194.555 348> 670 72<134.288 330.226>
VStem: 73 103<427.021 515.847> 349 115<452.708 534 593 650.638> 357 107<353 417>
LayerCount: 2
Fore
SplineSet
80 274 m 1xf8
 459 274 l 1
 459 182 l 1
 80 182 l 1
 80 274 l 1xf8
299 534 m 2
 207 534 176 516 176 473 c 0
 176 436 201 414 244 414 c 0
 304 414 349 458 349 518 c 2
 349 534 l 1xfc
 299 534 l 2
464 571 m 2xfa
 464 353 l 1
 357 353 l 1
 357 417 l 1
 320 367 276 344 214 344 c 0
 125 344 73 388 73 463 c 0
 73 553 136 593 275 593 c 2
 348 593 l 1
 348 608 l 2
 348 648 316 670 257 670 c 0
 203 670 151 659 102 634 c 1
 102 717 l 1
 160 735 212 742 259 742 c 0
 397 742 464 687 464 571 c 2xfa
EndSplineSet
Validated: 1
EndChar

StartChar: guillemotleft
Encoding: 171 171 131
Width: 613
Flags: W
LayerCount: 2
Fore
SplineSet
296 519 m 1
 296 405 l 1
 154 293 l 1
 296 181 l 1
 296 67 l 1
 73 248 l 1
 73 337 l 1
 296 519 l 1
524 519 m 1
 524 405 l 1
 383 293 l 1
 524 181 l 1
 524 67 l 1
 302 248 l 1
 302 337 l 1
 524 519 l 1
EndSplineSet
Validated: 1
EndChar

StartChar: logicalnot
Encoding: 172 172 132
Width: 797
Flags: W
HStem: 333 111<101 596>
VStem: 596 100<140 333>
LayerCount: 2
Fore
SplineSet
101 444 m 1
 696 444 l 1
 696 140 l 1
 596 140 l 1
 596 333 l 1
 101 333 l 1
 101 444 l 1
EndSplineSet
Validated: 1
EndChar

StartChar: minus
Encoding: 8722 8722 133
Width: 797
Flags: W
HStem: 256 115<101 696>
LayerCount: 2
Fore
SplineSet
101 371 m 1
 696 371 l 1
 696 256 l 1
 101 256 l 1
 101 371 l 1
EndSplineSet
Validated: 1
EndChar

StartChar: registered
Encoding: 174 174 134
Width: 950
Flags: W
HStem: 0 66<365.728 584.085> 343 58<425 471.401> 512 59<425 515.234> 659 66<365.728 583.71>
VStem: 131 56<248.721 475.855> 336 89<165 343 401 512> 530 93<416.142 499.106> 762 57<248.721 475.855>
LayerCount: 2
Fore
SplineSet
475 659 m 0
 396 659 328 630 272 572 c 0
 215 513 187 444 187 362 c 0
 187 280 215 211 272 152 c 0
 328 94 396 66 475 66 c 0
 554 66 621 94 678 152 c 1
 734 211 762 280 762 362 c 0
 762 444 734 513 678 572 c 1
 620 631 553 659 475 659 c 0
448 512 m 2
 425 512 l 1
 425 401 l 1
 448 401 l 2
 502 401 530 421 530 457 c 0
 530 494 503 512 448 512 c 2
465 571 m 2
 572 571 623 534 623 457 c 0
 623 402 589 363 528 352 c 1
 554 336 578 308 596 270 c 1
 649 165 l 1
 551 165 l 1
 503 270 l 1
 476 323 457 343 437 343 c 2
 425 343 l 1
 425 165 l 1
 336 165 l 1
 336 571 l 1
 465 571 l 2
475 725 m 0
 569 725 651 689 718 618 c 0
 786 547 819 461 819 362 c 0
 819 264 786 179 718 108 c 0
 651 37 569 0 475 0 c 0
 381 0 299 37 232 108 c 0
 164 179 131 264 131 362 c 0
 131 461 164 547 232 618 c 0
 299 689 381 725 475 725 c 0
EndSplineSet
Validated: 1
EndChar

StartChar: macron
Encoding: 175 175 135
Width: 474
Flags: W
HStem: 668 92<91 383>
VStem: 91 292<668 760>
LayerCount: 2
Fore
SplineSet
91 760 m 1
 383 760 l 1
 383 668 l 1
 91 668 l 1
 91 760 l 1
EndSplineSet
Validated: 1
EndChar

StartChar: degree
Encoding: 176 176 136
Width: 476
Flags: W
HStem: 424 71<177.503 297.83> 677 72<178.409 297.642>
VStem: 83 63<525.884 644.656> 330 62<527.211 644.033>
LayerCount: 2
Fore
SplineSet
238 677 m 0
 187 677 146 637 146 586 c 0
 146 534 185 495 238 495 c 0
 289 495 330 534 330 586 c 0
 330 637 289 677 238 677 c 0
238 749 m 0
 279 749 318 731 347 700 c 0
 377 669 392 629 392 586 c 0
 392 542 376 501 348 472 c 0
 319 441 279 424 237 424 c 0
 193 424 156 439 127 470 c 0
 97 501 83 540 83 586 c 0
 83 631 98 670 128 701 c 0
 157 732 194 749 238 749 c 0
EndSplineSet
Validated: 1
EndChar

StartChar: plusminus
Encoding: 177 177 137
Width: 797
Flags: W
HStem: 0 109<101 696> 343 109<101 348 449 696>
VStem: 348 101<168 343 452 627>
LayerCount: 2
Fore
SplineSet
449 627 m 1
 449 452 l 1
 696 452 l 1
 696 343 l 1
 449 343 l 1
 449 168 l 1
 348 168 l 1
 348 343 l 1
 101 343 l 1
 101 452 l 1
 348 452 l 1
 348 627 l 1
 449 627 l 1
101 109 m 1
 696 109 l 1
 696 0 l 1
 101 0 l 1
 101 109 l 1
EndSplineSet
Validated: 1
EndChar

StartChar: twosuperior
Encoding: 178 178 138
Width: 416
Flags: W
HStem: 326 77<182 363> 679 63<101.296 242.444>
VStem: 257 102<565.246 663.575>
LayerCount: 2
Fore
SplineSet
182 403 m 1
 363 403 l 1
 363 326 l 1
 50 326 l 1
 50 397 l 1
 200 528 l 2
 241 565 257 591 257 618 c 0
 257 654 230 679 186 679 c 0
 148 679 104 664 52 630 c 1
 52 718 l 1
 106 734 158 742 204 742 c 0
 301 742 359 699 359 630 c 0
 359 583 341 549 279 493 c 1
 182 403 l 1
EndSplineSet
Validated: 1
EndChar

StartChar: threesuperior
Encoding: 179 179 139
Width: 416
Flags: W
HStem: 319 62<72.3673 240.99> 514 60<119 239.899> 678 64<68.9133 241.939>
VStem: 253 102<588.449 665.076> 264 101<403.406 493.823>
LayerCount: 2
Fore
SplineSet
272 547 m 1xf0
 331 535 365 496 365 443 c 0
 365 360 305 319 181 319 c 0
 130 319 84 325 42 339 c 1
 42 419 l 1
 83 394 123 381 160 381 c 0
 225 381 264 405 264 448 c 0xe8
 264 493 229 514 149 514 c 2
 119 514 l 1
 119 574 l 1
 154 574 l 2
 223 574 253 591 253 628 c 0
 253 661 225 678 169 678 c 0
 135 678 98 669 55 651 c 1
 55 726 l 1
 97 737 143 742 196 742 c 0
 299 742 355 706 355 638 c 0
 355 593 324 560 272 547 c 1xf0
EndSplineSet
Validated: 1
EndChar

StartChar: acute
Encoding: 180 180 140
Width: 475
Flags: W
HStem: 616 184
VStem: 169 262
LayerCount: 2
Fore
SplineSet
304 800 m 1
 431 800 l 1
 255 616 l 1
 169 616 l 1
 304 800 l 1
EndSplineSet
Validated: 1
EndChar

StartChar: mu
Encoding: 181 181 141
Width: 699
Flags: W
HStem: -209 21G<81 240> -11 122<273.495 410.526 557 668.042> 527 20G<81 240 444 601>
VStem: 81 159<-209 35 146.155 547> 444 157<145.223 547>
LayerCount: 2
Fore
SplineSet
81 -209 m 1
 81 547 l 1
 240 547 l 1
 240 229 l 2
 240 150 273 111 342 111 c 0
 412 111 444 150 444 229 c 2
 444 547 l 1
 601 547 l 1
 601 181 l 2
 601 129 613 113 642 113 c 0
 652 113 660 116 669 125 c 1
 669 9 l 1
 637 -5 611 -11 585 -11 c 0
 529 -11 496 11 474 67 c 1
 443 14 400 -11 345 -11 c 0
 295 -11 260 4 240 35 c 1
 240 -209 l 1
 81 -209 l 1
EndSplineSet
Validated: 1
EndChar

StartChar: paragraph
Encoding: 182 182 142
Width: 605
Flags: W
HStem: 665 64<341 443>
VStem: 60 281<430.718 621.462> 262 79<-96 323.631> 443 79<-96 665>
LayerCount: 2
Fore
SplineSet
280 729 m 2xd0
 522 729 l 1
 522 -96 l 1
 443 -96 l 1
 443 665 l 1
 341 665 l 1
 341 -96 l 1
 262 -96 l 1
 262 321 l 1xb0
 133 337 60 411 60 526 c 0
 60 586 80 636 119 672 c 0
 160 710 213 729 280 729 c 2xd0
EndSplineSet
Validated: 1
EndChar

StartChar: periodcentered
Encoding: 183 183 143
Width: 361
Flags: W
HStem: 253 189<97 264>
VStem: 97 167<253 442>
LayerCount: 2
Fore
SplineSet
97 442 m 1
 264 442 l 1
 264 253 l 1
 97 253 l 1
 97 442 l 1
EndSplineSet
Validated: 1
EndChar

StartChar: cedilla
Encoding: 184 184 144
Width: 476
Flags: W
HStem: -196 65<123.521 257.932> -20 20G<223 299>
VStem: 268 64<-119.681 -39.0599>
LayerCount: 2
Fore
SplineSet
282 0 m 1
 316 -40 332 -75 332 -106 c 0
 332 -167 296 -196 217 -196 c 0
 188 -196 156 -192 122 -185 c 1
 122 -114 l 1
 153 -127 179 -131 199 -131 c 0
 241 -131 268 -113 268 -82 c 0
 268 -65 253 -39 223 0 c 1
 282 0 l 1
EndSplineSet
Validated: 1
EndChar

StartChar: onesuperior
Encoding: 185 185 145
Width: 416
Flags: W
HStem: 326 71<67 165 264 363> 639 73<57 86.0769> 714 20G<66.6364 264>
VStem: 165 99<397 665>
LayerCount: 2
Fore
SplineSet
67 397 m 1
 165 397 l 1
 165 665 l 1
 57 639 l 1
 57 712 l 1
 163 734 l 1
 264 734 l 1
 264 397 l 1
 363 397 l 1
 363 326 l 1
 67 326 l 1
 67 397 l 1
EndSplineSet
Validated: 1
EndChar

StartChar: ordmasculine
Encoding: 186 186 146
Width: 536
Flags: W
HStem: 182 92<76 460> 345 74<209.673 326.314> 668 74<209.673 326.147>
VStem: 54 122<455.352 630.961> 359 123<454.324 632.001>
LayerCount: 2
Fore
SplineSet
268 742 m 0
 400 742 482 666 482 543 c 0
 482 420 401 345 268 345 c 0
 136 345 54 420 54 543 c 0
 54 666 136 742 268 742 c 0
76 274 m 1
 460 274 l 1
 460 182 l 1
 76 182 l 1
 76 274 l 1
268 668 m 0
 209 668 176 623 176 543 c 0
 176 463 209 419 268 419 c 0
 327 419 359 463 359 543 c 0
 359 623 327 668 268 668 c 0
EndSplineSet
Validated: 1
EndChar

StartChar: guillemotright
Encoding: 187 187 147
Width: 614
Flags: W
LayerCount: 2
Fore
SplineSet
318 519 m 1
 541 337 l 1
 541 248 l 1
 318 67 l 1
 318 181 l 1
 460 293 l 1
 318 405 l 1
 318 519 l 1
89 519 m 1
 312 337 l 1
 312 248 l 1
 89 67 l 1
 89 181 l 1
 232 293 l 1
 89 405 l 1
 89 519 l 1
EndSplineSet
Validated: 1
EndChar

StartChar: onequarter
Encoding: 188 188 148
Width: 984
Flags: W
HStem: 1 21G<241 346.534 748 845> 81 68<624 748 845 910> 330 69<57 152 249 345> 638 72<47 76.4> 722 10G<56.4545 249 665.466 771>
VStem: 152 97<399 663> 748 97<1 81 149 318>
LayerCount: 2
Fore
SplineSet
748 318 m 1
 624 149 l 1
 748 149 l 1
 748 318 l 1
738 404 m 1
 845 404 l 1
 845 149 l 1
 910 149 l 1
 910 81 l 1
 845 81 l 1
 845 1 l 1
 748 1 l 1
 748 81 l 1
 566 81 l 1
 566 157 l 1
 738 404 l 1
335 -14 m 1
 241 -14 l 1
 677 742 l 1
 771 742 l 1
 335 -14 l 1
57 399 m 1
 152 399 l 1
 152 663 l 1
 47 638 l 1
 47 710 l 1
 151 732 l 1
 249 732 l 1
 249 399 l 1
 345 399 l 1
 345 330 l 1
 57 330 l 1
 57 399 l 1
EndSplineSet
Validated: 1
Ligature2: "sous-table Remplacement de ligature lookups11" one fraction four
Ligature2: "sous-table Remplacement de ligature lookups11" one slash four
EndChar

StartChar: onehalf
Encoding: 189 189 149
Width: 984
Flags: W
HStem: -14 21G<241 346.534> 1 76<761 938> 330 69<57 152 249 345> 349 62<680.935 819.75> 638 72<47 76.4> 722 10G<56.4545 249 665.466 771>
VStem: 152 97<399 663> 835 98<236.758 333.252>
LayerCount: 2
Fore
SplineSet
761 77 m 1x5f
 938 77 l 1
 938 1 l 1
 632 1 l 1
 632 71 l 1
 779 201 l 2
 820 238 835 262 835 288 c 0
 835 324 807 349 765 349 c 0
 727 349 687 335 635 302 c 1
 635 387 l 1
 688 403 738 411 782 411 c 0
 876 411 933 369 933 299 c 0
 933 253 915 219 855 165 c 1
 761 77 l 1x5f
335 -14 m 1x8f
 241 -14 l 1
 677 742 l 1
 771 742 l 1
 335 -14 l 1x8f
57 399 m 1x2f
 152 399 l 1
 152 663 l 1
 47 638 l 1
 47 710 l 1
 151 732 l 1
 249 732 l 1
 249 399 l 1
 345 399 l 1
 345 330 l 1
 57 330 l 1
 57 399 l 1x2f
EndSplineSet
Validated: 1
Ligature2: "sous-table Remplacement de ligature lookups11" one fraction two
Ligature2: "sous-table Remplacement de ligature lookups11" one slash two
EndChar

StartChar: threequarters
Encoding: 190 190 150
Width: 983
Flags: W
HStem: 1 21G<240 345.534 747 844> 81 68<623 747 844 909> 324 62<75.2334 240.928> 517 58<123 240.011> 678 64<73.8455 242.265>
VStem: 253 99<589.455 665.837> 263 99<406.706 497.243> 747 97<1 81 149 318>
LayerCount: 2
Fore
SplineSet
737 405 m 1xf9
 844 405 l 1
 844 149 l 1
 909 149 l 1
 909 81 l 1
 844 81 l 1
 844 1 l 1
 747 1 l 1
 747 81 l 1
 565 81 l 1
 565 157 l 1
 737 405 l 1xf9
747 318 m 1
 623 149 l 1
 747 149 l 1
 747 318 l 1
271 549 m 1
 329 537 362 499 362 446 c 0
 362 364 304 324 182 324 c 0
 133 324 88 330 48 344 c 1
 48 423 l 1
 87 398 127 386 162 386 c 0
 226 386 263 409 263 451 c 0xfb
 263 496 230 517 152 517 c 2
 123 517 l 1
 123 575 l 1
 157 575 l 2
 224 575 253 593 253 629 c 0
 253 661 226 678 171 678 c 0
 138 678 104 669 60 651 c 1
 60 726 l 1
 101 736 146 742 198 742 c 0
 297 742 352 706 352 639 c 0xfd
 352 595 322 561 271 549 c 1
334 -14 m 1
 240 -14 l 1
 676 742 l 1
 770 742 l 1
 334 -14 l 1
EndSplineSet
Validated: 1
Ligature2: "sous-table Remplacement de ligature lookups11" three fraction four
Ligature2: "sous-table Remplacement de ligature lookups11" three slash four
EndChar

StartChar: questiondown
Encoding: 191 191 151
Width: 550
Flags: W
HStem: -14 119<247.756 407.99> 561 168<228 388>
VStem: 65 156<130.231 245.064> 228 160<400.844 479 561 729>
LayerCount: 2
Fore
SplineSet
228 479 m 1
 388 479 l 1
 388 459 l 2
 388 432 383 409 372 389 c 0
 362 370 340 343 307 311 c 2
 276 282 l 2
 239 248 221 217 221 184 c 0
 221 136 257 105 317 105 c 0
 367 105 426 128 488 172 c 1
 488 24 l 1
 415 -3 353 -14 296 -14 c 0
 145 -14 65 51 65 173 c 0
 65 236 86 281 144 338 c 1
 174 366 l 2
 219 409 228 430 228 461 c 2
 228 479 l 1
388 561 m 1
 228 561 l 1
 228 729 l 1
 388 729 l 1
 388 561 l 1
EndSplineSet
Validated: 1
Position2: "sous-table 'cpsp' Chasses pour composition en capitales dans Latin lookup 1" dx=5 dy=0 dh=10 dv=0
EndChar

StartChar: Agrave
Encoding: 192 192 152
Width: 735
Flags: W
HStem: 0 21G<5 182.519 552.481 730> 135 129<264 471>
LayerCount: 2
Fore
SplineSet
515 135 m 1
 220 135 l 1
 176 0 l 1
 5 0 l 1
 264 727 l 1
 471 727 l 1
 730 0 l 1
 559 0 l 1
 515 135 l 1
264 264 m 1
 471 264 l 1
 368 564 l 1
 264 264 l 1
328 927 m 1
 419 803 l 1
 336 803 l 1
 205 927 l 1
 328 927 l 1
EndSplineSet
Validated: 1
Position2: "sous-table 'cpsp' Chasses pour composition en capitales dans Latin lookup 1" dx=5 dy=0 dh=10 dv=0
EndChar

StartChar: Aacute
Encoding: 193 193 153
Width: 735
Flags: W
HStem: 0 21G<5 182.519 552.481 730> 135 129<264 471>
LayerCount: 2
Fore
SplineSet
515 135 m 1
 220 135 l 1
 176 0 l 1
 5 0 l 1
 264 727 l 1
 471 727 l 1
 730 0 l 1
 559 0 l 1
 515 135 l 1
264 264 m 1
 471 264 l 1
 368 564 l 1
 264 264 l 1
384 927 m 1
 507 927 l 1
 376 803 l 1
 293 803 l 1
 384 927 l 1
EndSplineSet
Validated: 1
Position2: "sous-table 'cpsp' Chasses pour composition en capitales dans Latin lookup 1" dx=5 dy=0 dh=10 dv=0
EndChar

StartChar: Acircumflex
Encoding: 194 194 154
Width: 735
Flags: W
HStem: 0 21G<5 182.519 552.481 730> 135 129<264 471> 708 20G<256.885 478.115>
LayerCount: 2
Fore
SplineSet
515 135 m 1
 220 135 l 1
 176 0 l 1
 5 0 l 1
 264 728 l 1
 471 728 l 1
 730 0 l 1
 559 0 l 1
 515 135 l 1
264 264 m 1
 471 264 l 1
 368 565 l 1
 264 264 l 1
286 927 m 1
 426 927 l 1
 527 805 l 1
 453 805 l 1
 356 887 l 1
 259 805 l 1
 185 805 l 1
 286 927 l 1
EndSplineSet
Validated: 1
Position2: "sous-table 'cpsp' Chasses pour composition en capitales dans Latin lookup 1" dx=5 dy=0 dh=10 dv=0
EndChar

StartChar: Atilde
Encoding: 195 195 155
Width: 735
Flags: W
HStem: 0 21G<5 182.519 552.481 730> 135 129<264 471> 708 20G<256.885 478.115> 806 65<368.969 452.961> 864 64<259.027 342.746>
VStem: 197 53<806 857.447> 460 52<877.03 928>
LayerCount: 2
Fore
SplineSet
515 135 m 1xe6
 220 135 l 1
 176 0 l 1
 5 0 l 1
 264 728 l 1
 471 728 l 1
 730 0 l 1
 559 0 l 1
 515 135 l 1xe6
264 264 m 1
 471 264 l 1
 368 565 l 1
 264 264 l 1
361 830 m 2
 336 847 l 2
 335 848 332 849 330 850 c 0
 313 860 301 864 291 864 c 0xee
 267 864 250 841 250 805 c 1
 197 806 l 1xf6
 197 809 200 814 200 817 c 0
 200 884 234 928 284 928 c 0xee
 307 928 328 920 351 905 c 2
 379 886 l 2
 393 876 407 871 419 871 c 0xf6
 446 871 460 891 460 928 c 1
 515 928 l 1xee
 515 925 512 920 512 918 c 0
 512 850 478 806 428 806 c 0xf6
 405 806 386 813 361 830 c 2
EndSplineSet
Validated: 1
Position2: "sous-table 'cpsp' Chasses pour composition en capitales dans Latin lookup 1" dx=5 dy=0 dh=10 dv=0
EndChar

StartChar: Adieresis
Encoding: 196 196 156
Width: 735
Flags: W
HStem: 0 21G<5 182.519 552.481 730> 135 129<264 471> 708 20G<256.885 478.115> 814 113<213 312 399 499>
VStem: 213 99<814 927> 399 100<814 927>
LayerCount: 2
Fore
SplineSet
515 135 m 1
 220 135 l 1
 176 0 l 1
 5 0 l 1
 264 728 l 1
 471 728 l 1
 730 0 l 1
 559 0 l 1
 515 135 l 1
264 264 m 1
 471 264 l 1
 368 564 l 1
 264 264 l 1
213 927 m 1
 312 927 l 1
 312 814 l 1
 213 814 l 1
 213 927 l 1
399 927 m 1
 499 927 l 1
 499 814 l 1
 399 814 l 1
 399 927 l 1
EndSplineSet
Validated: 1
Position2: "sous-table 'cpsp' Chasses pour composition en capitales dans Latin lookup 1" dx=5 dy=0 dh=10 dv=0
EndChar

StartChar: Aring
Encoding: 197 197 157
Width: 735
Flags: W
HStem: 0 21G<5 182.519 552.481 730> 135 129<264 471> 862 66<317.708 417.406>
VStem: 241 57<742.856 842.646> 437 57<742.579 842.646>
LayerCount: 2
Fore
SplineSet
473 719 m 1
 730 0 l 1
 559 0 l 1
 515 135 l 1
 220 135 l 1
 176 0 l 1
 5 0 l 1
 262 719 l 1
 248 740 241 765 241 793 c 0
 241 829 253 861 278 888 c 0
 303 914 333 928 368 928 c 0
 402 928 432 914 457 888 c 0
 482 861 494 829 494 793 c 0
 494 762 488 738 473 719 c 1
298 793 m 0
 298 755 330 723 368 723 c 0
 406 723 437 755 437 793 c 0
 437 831 405 862 368 862 c 0
 330 862 298 831 298 793 c 0
264 264 m 1
 471 264 l 1
 368 565 l 1
 264 264 l 1
EndSplineSet
Validated: 1
Position2: "sous-table 'cpsp' Chasses pour composition en capitales dans Latin lookup 1" dx=5 dy=0 dh=10 dv=0
EndChar

StartChar: AE
Encoding: 198 198 158
Width: 1030
Flags: W
HStem: 0 136<644 961> 174 128<285 474> 313 135<644 932> 594 135<644 951> 611 118<408 474>
VStem: 474 170<136 174 302 313 448 594>
LayerCount: 2
Fore
SplineSet
408 611 m 1xec
 285 302 l 1
 474 302 l 1
 474 611 l 1
 408 611 l 1xec
290 729 m 1
 951 729 l 1
 951 594 l 1
 644 594 l 1xf4
 644 448 l 1
 932 448 l 1
 932 313 l 1
 644 313 l 1
 644 136 l 1
 961 136 l 1
 961 0 l 1
 474 0 l 1
 474 174 l 1
 233 174 l 1
 163 0 l 1
 0 0 l 1
 290 729 l 1
EndSplineSet
Validated: 1
Ligature2: "sous-table 'dpng' Dipthongs (Obsolete) dans Latin lookup 9" A e
Ligature2: "sous-table 'dpng' Dipthongs (Obsolete) dans Latin lookup 9" A E
Position2: "sous-table 'cpsp' Chasses pour composition en capitales dans Latin lookup 1" dx=5 dy=0 dh=10 dv=0
EndChar

StartChar: Ccedilla
Encoding: 199 199 159
Width: 698
Flags: W
HStem: -196 63<298.428 428.122> -11.3305 126.331<337.687 413.348> 615 127<337.88 552.006>
VStem: 48 173<243.959 486.015> 437 62<-122.581 -42.3847>
LayerCount: 2
Fore
SplineSet
397.473648658 -11.3305205635 m 1
 295.089330723 -6.2719821455 211.488750674 27.4302015407 149 89 c 0
 81 157 48 249 48 365 c 0
 48 481 81 573 149 640 c 0
 217 708 310 742 425 742 c 0
 501 742 572 725 637 689 c 1
 637 544 l 1
 572 593 510 615 439 615 c 0
 303 615 221 521 221 365 c 0
 221 209 303 115 439 115 c 0
 510 115 572 136 637 186 c 1
 637 40 l 1
 580.491374086 9.57227835396 519.447991056 -7.25117194331 454.526909621 -11.127409771 c 1
 485.070518088 -47.4661349617 498.999999989 -80.0903316454 499 -109 c 0
 499 -168 464 -196 389 -196 c 0
 360 -196 329 -192 297 -185 c 1
 297 -117 l 1
 326 -129 352 -133 371 -133 c 0
 412 -133 437 -116 437 -86 c 0
 437 -70.6316231952 425.006128621 -46.0371914836 397.473648658 -11.3305205635 c 1
EndSplineSet
Validated: 524289
Position2: "sous-table 'cpsp' Chasses pour composition en capitales dans Latin lookup 1" dx=5 dy=0 dh=10 dv=0
EndChar

StartChar: Egrave
Encoding: 200 200 160
Width: 648
Flags: W
HStem: 0 135<258 579> 311 135<258 550> 591 136<258 569>
VStem: 87 171<135 311 446 591>
LayerCount: 2
Fore
SplineSet
87 727 m 1
 569 727 l 1
 569 591 l 1
 258 591 l 1
 258 446 l 1
 550 446 l 1
 550 311 l 1
 258 311 l 1
 258 135 l 1
 579 135 l 1
 579 0 l 1
 87 0 l 1
 87 727 l 1
293 927 m 1
 384 803 l 1
 300 803 l 1
 169 927 l 1
 293 927 l 1
EndSplineSet
Validated: 1
Position2: "sous-table 'cpsp' Chasses pour composition en capitales dans Latin lookup 1" dx=5 dy=0 dh=10 dv=0
EndChar

StartChar: Eacute
Encoding: 201 201 161
Width: 648
Flags: W
HStem: 0 135<258 579> 311 135<258 550> 591 136<258 569>
VStem: 87 171<135 311 446 591>
LayerCount: 2
Fore
SplineSet
87 727 m 1
 569 727 l 1
 569 591 l 1
 258 591 l 1
 258 446 l 1
 550 446 l 1
 550 311 l 1
 258 311 l 1
 258 135 l 1
 579 135 l 1
 579 0 l 1
 87 0 l 1
 87 727 l 1
349 927 m 1
 472 927 l 1
 341 803 l 1
 258 803 l 1
 349 927 l 1
EndSplineSet
Validated: 1
Position2: "sous-table 'cpsp' Chasses pour composition en capitales dans Latin lookup 1" dx=5 dy=0 dh=10 dv=0
EndChar

StartChar: Ecircumflex
Encoding: 202 202 162
Width: 648
Flags: W
HStem: 0 135<258 579> 312 135<258 550> 593 135<258 569>
VStem: 87 171<135 312 447 593>
LayerCount: 2
Fore
SplineSet
87 728 m 1
 569 728 l 1
 569 593 l 1
 258 593 l 1
 258 447 l 1
 550 447 l 1
 550 312 l 1
 258 312 l 1
 258 135 l 1
 579 135 l 1
 579 0 l 1
 87 0 l 1
 87 728 l 1
251 927 m 1
 391 927 l 1
 493 805 l 1
 418 805 l 1
 321 887 l 1
 223 805 l 1
 149 805 l 1
 251 927 l 1
EndSplineSet
Validated: 1
Position2: "sous-table 'cpsp' Chasses pour composition en capitales dans Latin lookup 1" dx=5 dy=0 dh=10 dv=0
EndChar

StartChar: Edieresis
Encoding: 203 203 163
Width: 648
Flags: W
HStem: 0 135<258 579> 312 135<258 550> 592 135<258 569> 814 113<177 277 364 465>
VStem: 87 171<135 312 447 592> 177 100<814 927> 364 101<814 927>
LayerCount: 2
Fore
SplineSet
87 727 m 1xfa
 569 727 l 1
 569 592 l 1
 258 592 l 1
 258 447 l 1
 550 447 l 1
 550 312 l 1
 258 312 l 1
 258 135 l 1
 579 135 l 1
 579 0 l 1
 87 0 l 1
 87 727 l 1xfa
177 927 m 1xf6
 277 927 l 1
 277 814 l 1
 177 814 l 1
 177 927 l 1xf6
364 927 m 1
 465 927 l 1
 465 814 l 1
 364 814 l 1
 364 927 l 1
EndSplineSet
Validated: 1
Position2: "sous-table 'cpsp' Chasses pour composition en capitales dans Latin lookup 1" dx=5 dy=0 dh=10 dv=0
EndChar

StartChar: Igrave
Encoding: 204 204 164
Width: 353
Flags: W
HStem: 0 21G<90 266>
VStem: 90 176<0 727>
LayerCount: 2
Fore
SplineSet
90 727 m 1
 266 727 l 1
 266 0 l 1
 90 0 l 1
 90 727 l 1
137 927 m 1
 231 803 l 1
 145 803 l 1
 10 927 l 1
 137 927 l 1
EndSplineSet
Validated: 1
Position2: "sous-table 'cpsp' Chasses pour composition en capitales dans Latin lookup 1" dx=5 dy=0 dh=10 dv=0
EndChar

StartChar: Iacute
Encoding: 205 205 165
Width: 353
Flags: W
HStem: 0 21G<87 264>
VStem: 87 177<0 727>
LayerCount: 2
Fore
SplineSet
87 727 m 1
 264 727 l 1
 264 0 l 1
 87 0 l 1
 87 727 l 1
193 927 m 1
 320 927 l 1
 185 803 l 1
 98 803 l 1
 193 927 l 1
EndSplineSet
Validated: 1
Position2: "sous-table 'cpsp' Chasses pour composition en capitales dans Latin lookup 1" dx=5 dy=0 dh=10 dv=0
EndChar

StartChar: Icircumflex
Encoding: 206 206 166
Width: 353
Flags: W
HStem: 0 21G<90 264> 708 20G<90 264>
VStem: 90 174<0 728>
LayerCount: 2
Fore
SplineSet
90 728 m 1
 264 728 l 1
 264 0 l 1
 90 0 l 1
 90 728 l 1
94 927 m 1
 236 927 l 1
 340 805 l 1
 264 805 l 1
 165 887 l 1
 66 805 l 1
 -10 805 l 1
 94 927 l 1
EndSplineSet
Validated: 1
Position2: "sous-table 'cpsp' Chasses pour composition en capitales dans Latin lookup 1" dx=5 dy=0 dh=10 dv=0
EndChar

StartChar: Idieresis
Encoding: 207 207 167
Width: 353
Flags: W
HStem: 0 21G<90 264> 814 113<19 121 209 311>
VStem: 19 102<814 927> 90 174<0 727> 209 102<814 927>
LayerCount: 2
Fore
SplineSet
90 727 m 1xd0
 264 727 l 1
 264 0 l 1
 90 0 l 1
 90 727 l 1xd0
19 927 m 1xe0
 121 927 l 1
 121 814 l 1
 19 814 l 1
 19 927 l 1xe0
209 927 m 1xc8
 311 927 l 1
 311 814 l 1
 209 814 l 1
 209 927 l 1xc8
EndSplineSet
Validated: 1
Position2: "sous-table 'cpsp' Chasses pour composition en capitales dans Latin lookup 1" dx=5 dy=0 dh=10 dv=0
EndChar

StartChar: Eth
Encoding: 208 208 168
Width: 796
Flags: W
HStem: 0 135<268 455.4> 307 120<15 98 268 379> 594 135<268 456.722>
VStem: 98 170<135 307 427 594> 576 172<254.367 479.115>
LayerCount: 2
Fore
SplineSet
268 594 m 1
 268 427 l 1
 379 427 l 1
 379 307 l 1
 268 307 l 1
 268 135 l 1
 338 135 l 2
 491 135 576 216 576 366 c 0
 576 515 493 594 338 594 c 2
 268 594 l 1
98 729 m 1
 283 729 l 2
 390 729 468 721 520 705 c 0
 571 690 615 663 652 625 c 0
 717 560 748 474 748 366 c 0
 748 257 717 170 652 105 c 0
 615 67 571 41 519 24 c 1
 466 8 388 0 283 0 c 2
 98 0 l 1
 98 307 l 1
 15 307 l 1
 15 427 l 1
 98 427 l 1
 98 729 l 1
EndSplineSet
Validated: 1
Position2: "sous-table 'cpsp' Chasses pour composition en capitales dans Latin lookup 1" dx=5 dy=0 dh=10 dv=0
EndChar

StartChar: Ntilde
Encoding: 209 209 169
Width: 794
Flags: W
HStem: 0 21G<87 249 503.526 707> 708 20G<87 290.474 545 707> 806 64<394.734 477.023> 864 64<283.335 366.746>
VStem: 87 162<0 506> 221 54<806 857.447> 485 51<877.03 928> 545 162<222 728>
LayerCount: 2
Fore
SplineSet
87 728 m 1xcb
 280 728 l 1
 545 222 l 1
 545 728 l 1
 707 728 l 1
 707 0 l 1
 514 0 l 1
 249 506 l 1
 249 0 l 1
 87 0 l 1
 87 728 l 1xcb
385 830 m 2
 360 847 l 2
 359 848 356 849 354 850 c 0
 337 860 325 864 315 864 c 0xd7
 291 864 275 841 275 805 c 1
 221 806 l 1xe7
 221 809 224 814 224 817 c 0
 224 884 258 928 308 928 c 0xd7
 331 928 352 920 375 905 c 2
 403 886 l 2
 417 876 431 870 443 870 c 0xe7
 470 870 485 891 485 928 c 1
 539 928 l 1xd7
 539 925 536 920 536 918 c 0
 536 850 502 806 452 806 c 0xe7
 429 806 410 813 385 830 c 2
EndSplineSet
Validated: 1
Position2: "sous-table 'cpsp' Chasses pour composition en capitales dans Latin lookup 1" dx=5 dy=0 dh=10 dv=0
EndChar

StartChar: Ograve
Encoding: 210 210 170
Width: 809
Flags: W
HStem: -14 127<320.066 489.395> 611 127<320.066 489.395>
VStem: 48 173<228.182 495.626> 588 173<228.182 495.626>
LayerCount: 2
Fore
SplineSet
405 611 m 0
 288 611 221 519 221 362 c 0
 221 205 288 113 405 113 c 0
 521 113 588 205 588 362 c 0
 588 519 521 611 405 611 c 0
405 738 m 0
 515 738 603 704 666 637 c 1
 730 571 761 479 761 362 c 0
 761 245 730 152 666 86 c 1
 603 19 515 -14 405 -14 c 0
 294 -14 207 19 143 86 c 0
 79 152 48 245 48 362 c 0
 48 479 79 571 143 637 c 0
 207 704 294 738 405 738 c 0
365 927 m 1
 456 803 l 1
 373 803 l 1
 241 927 l 1
 365 927 l 1
EndSplineSet
Validated: 1
Position2: "sous-table 'cpsp' Chasses pour composition en capitales dans Latin lookup 1" dx=5 dy=0 dh=10 dv=0
EndChar

StartChar: Oacute
Encoding: 211 211 171
Width: 809
Flags: W
HStem: -14 127<320.066 489.395> 611 127<320.066 489.395>
VStem: 48 173<228.182 495.626> 588 173<228.182 495.626>
LayerCount: 2
Fore
SplineSet
405 611 m 0
 288 611 221 519 221 362 c 0
 221 205 288 113 405 113 c 0
 521 113 588 205 588 362 c 0
 588 519 521 611 405 611 c 0
405 738 m 0
 515 738 603 704 666 637 c 1
 730 571 761 479 761 362 c 0
 761 245 730 152 666 86 c 1
 603 19 515 -14 405 -14 c 0
 294 -14 207 19 143 86 c 0
 79 152 48 245 48 362 c 0
 48 479 79 571 143 637 c 0
 207 704 294 738 405 738 c 0
421 927 m 1
 544 927 l 1
 413 803 l 1
 330 803 l 1
 421 927 l 1
EndSplineSet
Validated: 1
Position2: "sous-table 'cpsp' Chasses pour composition en capitales dans Latin lookup 1" dx=5 dy=0 dh=10 dv=0
EndChar

StartChar: Ocircumflex
Encoding: 212 212 172
Width: 809
Flags: W
HStem: -14 127<320.066 489.395> 613 127<320.066 489.395>
VStem: 48 173<228.796 497.012> 588 173<228.796 497.012>
LayerCount: 2
Fore
SplineSet
405 613 m 0
 288 613 221 521 221 363 c 0
 221 205 288 113 405 113 c 0
 521 113 588 205 588 363 c 0
 588 521 521 613 405 613 c 0
405 740 m 0
 515 740 603 706 666 639 c 0
 730 572 761 480 761 363 c 0
 761 246 730 153 666 86 c 0
 603 19 515 -14 405 -14 c 0
 294 -14 207 19 143 86 c 0
 79 153 48 246 48 363 c 0
 48 480 79 572 143 639 c 0
 207 706 294 740 405 740 c 0
323 927 m 1
 463 927 l 1
 565 805 l 1
 490 805 l 1
 393 886 l 1
 296 805 l 1
 221 805 l 1
 323 927 l 1
EndSplineSet
Validated: 1
Position2: "sous-table 'cpsp' Chasses pour composition en capitales dans Latin lookup 1" dx=5 dy=0 dh=10 dv=0
EndChar

StartChar: Otilde
Encoding: 213 213 173
Width: 809
Flags: W
HStem: -14 127<321.927 489.395> 613 127<321.927 489.395> 806 64<406.744 490.023> 864 64<295.968 379.726>
VStem: 48 181<228.796 497.012> 229 58<806 857.047> 498 51<877.03 928> 588 173<228.796 497.012>
LayerCount: 2
Fore
SplineSet
405 613 m 0xcb
 293 613 229 521 229 363 c 0
 229 205 293 113 405 113 c 0
 521 113 588 205 588 363 c 0
 588 521 521 613 405 613 c 0xcb
405 740 m 0
 515 740 603 706 666 639 c 0
 730 572 761 480 761 363 c 0
 761 246 730 153 666 86 c 0
 603 19 515 -14 405 -14 c 0
 294 -14 207 19 143 86 c 0
 79 153 48 246 48 363 c 0
 48 480 79 572 143 639 c 0
 207 706 294 740 405 740 c 0
398 830 m 2
 373 847 l 2
 372 848 369 849 367 850 c 0
 350 860 338 864 328 864 c 0xd7
 304 864 287 841 287 805 c 1
 234 806 l 1xe7
 234 809 229 814 229 817 c 0
 229 883 266 928 321 928 c 0xd7
 343 928 365 920 388 905 c 1
 416 885 l 2
 430 875 444 870 456 870 c 0xe7
 483 870 498 891 498 928 c 1
 552 928 l 1xd7
 552 925 549 920 549 918 c 0
 549 850 515 806 465 806 c 0xe7
 442 806 423 813 398 830 c 2
EndSplineSet
Validated: 1
Position2: "sous-table 'cpsp' Chasses pour composition en capitales dans Latin lookup 1" dx=5 dy=0 dh=10 dv=0
EndChar

StartChar: Odieresis
Encoding: 214 214 174
Width: 809
Flags: W
HStem: -14 127<320.066 489.395> 612 127<320.066 489.395> 814 113<249 349 437 537>
VStem: 48 173<228.584 496.626> 249 100<814 927> 437 100<814 927> 588 173<228.584 496.626>
LayerCount: 2
Fore
SplineSet
405 612 m 0
 288 612 221 520 221 363 c 0
 221 205 288 113 405 113 c 0
 521 113 588 205 588 363 c 0
 588 520 521 612 405 612 c 0
405 739 m 0
 515 739 603 705 666 638 c 1
 730 572 761 480 761 363 c 0
 761 245 730 153 666 86 c 0
 603 19 515 -14 405 -14 c 0
 294 -14 207 19 143 86 c 0
 79 153 48 245 48 363 c 0
 48 480 79 572 143 638 c 0
 207 705 294 739 405 739 c 0
249 927 m 1
 349 927 l 1
 349 814 l 1
 249 814 l 1
 249 927 l 1
437 927 m 1
 537 927 l 1
 537 814 l 1
 437 814 l 1
 437 927 l 1
EndSplineSet
Validated: 1
Position2: "sous-table 'cpsp' Chasses pour composition en capitales dans Latin lookup 1" dx=5 dy=0 dh=10 dv=0
EndChar

StartChar: multiply
Encoding: 215 215 175
Width: 796
Flags: W
LayerCount: 2
Fore
SplineSet
677 529 m 1
 470 313 l 1
 677 99 l 1
 605 20 l 1
 398 235 l 1
 191 20 l 1
 119 99 l 1
 326 313 l 1
 119 529 l 1
 191 607 l 1
 398 392 l 1
 605 607 l 1
 677 529 l 1
EndSplineSet
Validated: 1
EndChar

StartChar: Oslash
Encoding: 216 216 176
Width: 808
Flags: W
HStem: -14 127<320.286 488.395> 614 127<319.468 486.471> 745 20G<717.212 753.692>
VStem: 48 173<249.82 498.012> 587 173<229.266 482.562>
LayerCount: 2
Fore
SplineSet
270 178 m 1
 304 135 348 113 404 113 c 0
 520 113 587 206 587 364 c 0
 587 410 581 451 567 484 c 1
 270 178 l 1
536 552 m 1
 502 592 458 614 404 614 c 0
 288 614 221 522 221 364 c 0
 221 320 228 279 240 248 c 1
 536 552 l 1
118 116 m 1
 71 181 48 263 48 364 c 0
 48 481 79 573 143 640 c 0
 207 707 293 741 404 741 c 0
 501 741 578 718 643 666 c 1
 736 765 l 1
 782 713 l 1
 687 615 l 1
 736 549 760 465 760 364 c 0
 760 246 729 153 665 86 c 0
 602 19 514 -14 404 -14 c 0
 307 -14 227 11 162 64 c 1
 67 -36 l 1
 21 14 l 1
 118 116 l 1
EndSplineSet
Validated: 1
Position2: "sous-table 'cpsp' Chasses pour composition en capitales dans Latin lookup 1" dx=5 dy=0 dh=10 dv=0
EndChar

StartChar: Ugrave
Encoding: 217 217 177
Width: 771
Flags: W
HStem: -14 129<306.541 464.01>
VStem: 87 169<170.212 726> 515 169<170.212 726>
LayerCount: 2
Fore
SplineSet
87 726 m 1
 256 726 l 1
 256 290 l 2
 256 164 294 115 385 115 c 0
 477 115 515 164 515 290 c 2
 515 726 l 1
 684 726 l 1
 684 290 l 2
 684 84 587 -14 385 -14 c 0
 184 -14 87 84 87 290 c 2
 87 726 l 1
346 927 m 1
 437 803 l 1
 353 803 l 1
 222 927 l 1
 346 927 l 1
EndSplineSet
Validated: 1
Position2: "sous-table 'cpsp' Chasses pour composition en capitales dans Latin lookup 1" dx=5 dy=0 dh=10 dv=0
EndChar

StartChar: Uacute
Encoding: 218 218 178
Width: 771
Flags: W
HStem: -14 129<306.541 464.01>
VStem: 87 169<170.212 726> 515 169<170.212 726>
LayerCount: 2
Fore
SplineSet
87 726 m 1
 256 726 l 1
 256 290 l 2
 256 164 294 115 385 115 c 0
 477 115 515 164 515 290 c 2
 515 726 l 1
 684 726 l 1
 684 290 l 2
 684 84 587 -14 385 -14 c 0
 184 -14 87 84 87 290 c 2
 87 726 l 1
402 927 m 1
 525 927 l 1
 394 803 l 1
 311 803 l 1
 402 927 l 1
EndSplineSet
Validated: 1
Position2: "sous-table 'cpsp' Chasses pour composition en capitales dans Latin lookup 1" dx=5 dy=0 dh=10 dv=0
EndChar

StartChar: Ucircumflex
Encoding: 219 219 179
Width: 771
Flags: W
HStem: -14 129<306.541 464.01> 708 20G<87 256 515 684>
VStem: 87 169<170.212 728> 515 169<170.212 728>
LayerCount: 2
Fore
SplineSet
87 728 m 1
 256 728 l 1
 256 290 l 2
 256 165 294 115 385 115 c 0
 477 115 515 165 515 290 c 2
 515 728 l 1
 684 728 l 1
 684 290 l 2
 684 84 587 -14 385 -14 c 0
 184 -14 87 84 87 290 c 2
 87 728 l 1
304 927 m 1
 444 927 l 1
 546 805 l 1
 471 805 l 1
 374 886 l 1
 277 805 l 1
 202 805 l 1
 304 927 l 1
EndSplineSet
Validated: 1
Position2: "sous-table 'cpsp' Chasses pour composition en capitales dans Latin lookup 1" dx=5 dy=0 dh=10 dv=0
EndChar

StartChar: Udieresis
Encoding: 220 220 180
Width: 771
Flags: W
HStem: -14 129<306.541 464.01> 814 113<230 330 418 518>
VStem: 87 169<170.212 727> 230 100<814 927> 418 100<814 927> 515 169<170.212 727>
LayerCount: 2
Fore
SplineSet
87 727 m 1xe4
 256 727 l 1
 256 290 l 2
 256 165 294 115 385 115 c 0
 477 115 515 165 515 290 c 2
 515 727 l 1
 684 727 l 1
 684 290 l 2
 684 84 587 -14 385 -14 c 0
 184 -14 87 84 87 290 c 2
 87 727 l 1xe4
230 927 m 1xd0
 330 927 l 1
 330 814 l 1
 230 814 l 1
 230 927 l 1xd0
418 927 m 1xc8
 518 927 l 1
 518 814 l 1
 418 814 l 1
 418 927 l 1xc8
EndSplineSet
Validated: 1
Position2: "sous-table 'cpsp' Chasses pour composition en capitales dans Latin lookup 1" dx=5 dy=0 dh=10 dv=0
EndChar

StartChar: Yacute
Encoding: 221 221 181
Width: 688
Flags: W
HStem: 0 21G<259 428> 708 20G<-10 191.424 495.5 697>
VStem: 259 169<0 306>
LayerCount: 2
Fore
SplineSet
-10 728 m 1
 179 728 l 1
 343 464 l 1
 508 728 l 1
 697 728 l 1
 428 306 l 1
 428 0 l 1
 259 0 l 1
 259 306 l 1
 -10 728 l 1
360 927 m 1
 483 927 l 1
 352 803 l 1
 269 803 l 1
 360 927 l 1
EndSplineSet
Validated: 1
Position2: "sous-table 'cpsp' Chasses pour composition en capitales dans Latin lookup 1" dx=5 dy=0 dh=10 dv=0
EndChar

StartChar: Thorn
Encoding: 222 222 182
Width: 701
Flags: W
HStem: 0 21G<87 259> 127 129<259 439.598> 472 128<259 439.598> 709 20G<87 259>
VStem: 87 172<0 127 256 472 600 729> 484 173<296.711 431.423>
LayerCount: 2
Fore
SplineSet
259 127 m 1
 259 0 l 1
 87 0 l 1
 87 729 l 1
 259 729 l 1
 259 600 l 1
 385 600 l 2
 560 600 657 516 657 364 c 0
 657 213 560 127 385 127 c 2
 259 127 l 1
259 472 m 1
 259 256 l 1
 366 256 l 2
 440 256 484 295 484 364 c 0
 484 433 440 472 366 472 c 2
 259 472 l 1
EndSplineSet
Validated: 1
Position2: "sous-table 'cpsp' Chasses pour composition en capitales dans Latin lookup 1" dx=5 dy=0 dh=10 dv=0
EndChar

StartChar: germandbls
Encoding: 223 223 183
Width: 683
Flags: W
HStem: -14 107<318.371 469.404> -1 21G<80 237> 652 108<271.067 407.477>
VStem: 80 157<-1 618.069> 302 133<387.734 478.742> 436 141<550.383 623.076> 490 152<114.204 210.929>
LayerCount: 2
Fore
SplineSet
80 546 m 2x7c
 80 689 164 760 331 760 c 0
 493 760 577 686 577 546 c 2
 577 514 l 1x7c
 479 507 435 481 435 431 c 0
 435 405 445 390 507 355 c 2
 540 336 l 2
 611 296 642 242 642 167 c 0
 642 46 573 -14 431 -14 c 0
 391 -14 349 -7 304 8 c 1
 304 122 l 1
 337 103 373 93 406 93 c 0
 457 93 490 122 490 162 c 0xba
 490 178 484 193 474 205 c 0
 466 216 445 232 413 250 c 1
 380 270 l 2
 327 301 302 344 302 401 c 0
 302 477 345 527 436 558 c 1
 435 620 401 652 340 652 c 0
 272 652 237 614 237 539 c 2
 237 -1 l 1
 80 -1 l 1
 80 546 l 2x7c
EndSplineSet
Validated: 1
EndChar

StartChar: agrave
Encoding: 224 224 184
Width: 641
Flags: W
HStem: -14 107<192.5 323.669> 0 21G<407 566> 247 96<224.807 407> 448 108<139.002 373.697>
VStem: 41 156<116.68 220.48> 407 159<0 82 146.786 247 343 415.509>
LayerCount: 2
Fore
SplineSet
312 247 m 2xbc
 236 247 197 221 197 170 c 0
 197 122 231 93 287 93 c 0
 355 93 407 149 407 223 c 2
 407 247 l 1
 312 247 l 2xbc
566 310 m 2
 566 0 l 1
 407 0 l 1x7c
 407 82 l 1
 359 14 304 -14 219 -14 c 0
 166 -14 123 2 90 34 c 0
 57 67 41 109 41 161 c 0
 41 287 122 343 302 343 c 2
 407 343 l 1
 407 363 l 2
 407 421 363 448 269 448 c 0
 198 448 137 432 85 402 c 1
 85 529 l 1
 157 547 228 556 302 556 c 0
 488 556 566 483 566 310 c 2
256 800 m 1
 387 620 l 1
 302 620 l 1
 132 800 l 1
 256 800 l 1
EndSplineSet
Validated: 1
EndChar

StartChar: aacute
Encoding: 225 225 185
Width: 641
Flags: W
HStem: -14 107<192.5 323.669> 0 21G<407 566> 247 96<224.207 407> 448 108<138.784 373.38>
VStem: 41 156<116.68 220.48> 407 159<0 82 146.786 247 343 415.509>
LayerCount: 2
Fore
SplineSet
312 247 m 2xbc
 236 247 197 221 197 170 c 0
 197 122 231 93 287 93 c 0
 355 93 407 149 407 223 c 2
 407 247 l 1
 312 247 l 2xbc
566 310 m 2
 566 0 l 1
 407 0 l 1x7c
 407 82 l 1
 359 14 304 -14 219 -14 c 0
 166 -14 123 2 90 34 c 0
 57 67 41 109 41 161 c 0
 41 287 122 343 301 343 c 2
 407 343 l 1
 407 363 l 2
 407 421 363 448 269 448 c 0
 198 448 137 432 85 402 c 1
 85 529 l 1
 156 547 228 556 301 556 c 0
 488 556 566 483 566 310 c 2
392 800 m 1
 516 800 l 1
 344 620 l 1
 261 620 l 1
 392 800 l 1
EndSplineSet
Validated: 1
EndChar

StartChar: acircumflex
Encoding: 226 226 186
Width: 641
Flags: W
HStem: -14 107<192.5 323.669> 0 21G<407 566> 248 96<224.223 407> 449 107<138.784 373.38>
VStem: 41 156<116.68 220.922> 407 159<0 82 147.012 248 344 415.509>
LayerCount: 2
Fore
SplineSet
312 248 m 2xbc
 236 248 197 222 197 170 c 0
 197 122 231 93 287 93 c 0
 355 93 407 149 407 224 c 2
 407 248 l 1
 312 248 l 2xbc
566 310 m 2
 566 0 l 1
 407 0 l 1x7c
 407 82 l 1
 359 14 304 -14 219 -14 c 0
 166 -14 123 2 90 34 c 0
 57 67 41 109 41 161 c 0
 41 287 122 344 301 344 c 2
 407 344 l 1
 407 363 l 2
 407 422 363 449 269 449 c 0
 198 449 137 433 85 403 c 1
 85 530 l 1
 156 548 228 556 301 556 c 0
 488 556 566 483 566 310 c 2
270 800 m 1
 378 800 l 1
 497 621 l 1
 422 621 l 1
 324 734 l 1
 226 621 l 1
 151 621 l 1
 270 800 l 1
EndSplineSet
Validated: 1
EndChar

StartChar: atilde
Encoding: 227 227 187
Width: 641
Flags: W
HStem: -14 107<192.5 323.669> 0 21G<407 566> 248 96<224.223 407> 450 107<138.784 373.38> 646 67<340.143 421.169> 711 67<226.661 306.979>
VStem: 41 156<116.878 221.099> 164 54<646 705.092> 407 159<0 82 147.012 248 344 416.509> 430 54<719.163 778>
LayerCount: 2
Fore
SplineSet
312 248 m 2xb280
 236 248 197 222 197 170 c 0
 197 123 231 93 287 93 c 0
 355 93 407 149 407 224 c 2
 407 248 l 1
 312 248 l 2xb280
566 311 m 2
 566 0 l 1
 407 0 l 1x7280
 407 82 l 1
 359 14 304 -14 219 -14 c 0
 166 -14 123 2 90 34 c 0
 57 67 41 109 41 161 c 0
 41 288 122 344 301 344 c 2
 407 344 l 1
 407 364 l 2
 407 422 363 450 269 450 c 0
 198 450 137 434 85 403 c 1
 85 531 l 1
 156 549 228 557 301 557 c 0
 488 557 566 484 566 311 c 2
329 674 m 1
 303 692 l 2
 302 693 300 694 298 695 c 0
 281 706 268 711 260 711 c 0x3540
 233 711 218 689 218 646 c 1
 164 646 l 1x3940
 164 730 196 778 252 778 c 0x3540
 272 778 294 770 318 751 c 1
 348 729 l 1
 365 719 378 713 387 713 c 0x3940
 416 713 430 737 430 778 c 1
 484 778 l 1x3540
 484 694 452 646 396 646 c 0x3940
 375 646 357 653 329 674 c 1
EndSplineSet
Validated: 1
EndChar

StartChar: adieresis
Encoding: 228 228 188
Width: 641
Flags: W
HStem: -14 107<192.5 323.669> 0 21G<407 566> 248 96<224.223 407> 449 107<138.784 373.38> 661 113<179 280 368 469>
VStem: 41 156<116.68 220.922> 179 101<661 774> 368 101<661 774> 407 159<0 82 147.012 248 344 416.37>
LayerCount: 2
Fore
SplineSet
312 248 m 2xbc80
 236 248 197 222 197 170 c 0
 197 122 231 93 287 93 c 0
 355 93 407 149 407 224 c 2
 407 248 l 1
 312 248 l 2xbc80
566 311 m 2
 566 0 l 1
 407 0 l 1x7c80
 407 82 l 1
 359 14 304 -14 219 -14 c 0
 166 -14 123 2 90 34 c 0
 57 67 41 109 41 161 c 0
 41 287 122 344 301 344 c 2
 407 344 l 1
 407 363 l 2
 407 422 363 449 269 449 c 0
 198 449 137 433 85 403 c 1
 85 530 l 1
 156 548 228 556 301 556 c 0
 488 556 566 484 566 311 c 2
179 774 m 1x3a
 280 774 l 1
 280 661 l 1
 179 661 l 1
 179 774 l 1x3a
368 774 m 1x39
 469 774 l 1
 469 661 l 1
 368 661 l 1
 368 774 l 1x39
EndSplineSet
Validated: 1
EndChar

StartChar: aring
Encoding: 229 229 189
Width: 641
Flags: W
HStem: -14 107<192.5 323.669> 0 21G<407 566> 248 96<224.223 407> 449 107<138.784 373.38> 617 66<273.265 374.655> 822 66<273.083 374.473>
VStem: 41 156<116.68 220.922> 196 58<701.741 802.657> 394 58<701.923 802.657> 407 159<0 82 147.012 248 344 415.509>
LayerCount: 2
Fore
SplineSet
312 248 m 2xbe40
 236 248 197 222 197 170 c 0
 197 122 231 93 287 93 c 0
 355 93 407 149 407 224 c 2
 407 248 l 1
 312 248 l 2xbe40
566 310 m 2
 566 0 l 1
 407 0 l 1x7e40
 407 82 l 1
 359 14 304 -14 219 -14 c 0
 166 -14 123 2 90 34 c 0
 57 67 41 109 41 161 c 0
 41 287 122 344 301 344 c 2
 407 344 l 1
 407 363 l 2
 407 422 363 449 269 449 c 0
 198 449 137 433 85 403 c 1
 85 530 l 1
 156 548 228 556 301 556 c 0
 488 556 566 483 566 310 c 2
254 752 m 0x3d80
 254 713 286 683 324 683 c 0
 363 683 394 714 394 752 c 0
 394 791 362 822 324 822 c 0
 285 822 254 791 254 752 c 0x3d80
196 752 m 0
 196 790 208 821 233 847 c 0
 258 874 288 888 324 888 c 0
 360 888 389 874 414 847 c 0
 439 821 452 790 452 752 c 0
 452 715 439 683 414 656 c 0
 389 630 360 617 324 617 c 0
 288 617 258 630 233 656 c 0
 208 683 196 715 196 752 c 0
EndSplineSet
Validated: 1
EndChar

StartChar: ae
Encoding: 230 230 190
Width: 996
Flags: W
HStem: -14 108<219.069 342.934 618.747 827.861> 227 103<559 789> 249 97<222.747 404> 452 108<138.663 370.495 611.904 746.703>
VStem: 41 155<117.324 222.834> 404 153<155.895 227 346 390.397>
LayerCount: 2
Fore
SplineSet
789 330 m 1xdc
 789 403 747 452 682 452 c 0
 615 452 571 409 559 330 c 1
 789 330 l 1xdc
310 249 m 2xbc
 234 249 196 223 196 171 c 0
 196 123 229 94 284 94 c 0
 353 94 404 150 404 225 c 2
 404 249 l 1
 310 249 l 2xbc
85 533 m 1
 157 552 227 560 286 560 c 0
 380 560 448 534 493 482 c 1
 542 532 606 560 683 560 c 0
 763 560 828 533 876 481 c 1
 925 431 950 361 950 275 c 2
 950 227 l 1
 557 227 l 1xdc
 565 140 615 94 708 94 c 0
 777 94 850 116 926 162 c 1
 926 32 l 1
 848 1 771 -14 693 -14 c 0
 581 -14 496 22 450 89 c 1
 388 18 319 -14 231 -14 c 0
 114 -14 41 54 41 162 c 0
 41 289 121 346 298 346 c 2
 404 346 l 1
 404 365 l 2
 404 424 361 452 267 452 c 0
 197 452 137 436 85 405 c 1
 85 533 l 1
EndSplineSet
Validated: 1
Ligature2: "sous-table 'dpng' Dipthongs (Obsolete) dans Latin lookup 9" a e
EndChar

StartChar: ccedilla
Encoding: 231 231 191
Width: 564
Flags: W
HStem: -196 63<210.451 340.53> 444 116<274.5 455.651>
VStem: 41 162<180.582 367.771> 350 63<-122.043 -43.1756>
LayerCount: 2
Fore
SplineSet
500 532 m 1
 500 394 l 1
 455 429 411 444 363 444 c 0
 263 444 203 382 203 275 c 0
 203 167 263 105 363 105 c 0
 415 105 462 122 500 155 c 1
 500 17 l 1
 456.658921788 1.16383680732 411.928458177 -7.72539938632 367.545651329 -10.2467228232 c 1
 398.146699348 -47.4050358264 412.999999989 -79.0950147526 413 -108 c 0
 413 -167 377 -196 301 -196 c 0
 273 -196 241 -192 209 -184 c 1
 209 -117 l 1
 239 -129 264 -133 284 -133 c 0
 325 -133 350 -116 350 -85 c 0
 350 -69.5685155384 336.97722665 -45.7652482089 310.034533858 -10.0016136435 c 1
 140.766838983 1.14615109381 40.9999999999 105.114387669 41 275 c 0
 41 454 153 560 341 560 c 0
 395 560 447 551 500 532 c 1
EndSplineSet
Validated: 524289
EndChar

StartChar: egrave
Encoding: 232 232 192
Width: 644
Flags: W
HStem: -14 107<263.866 474.614> 225 102<203 436> 448 108<256.521 392.67>
VStem: 41 160<157.183 225 327 388.875>
LayerCount: 2
Fore
SplineSet
598 273 m 2
 598 225 l 1
 201 225 l 1
 209 138 261 93 354 93 c 0
 423 93 497 115 574 161 c 1
 574 31 l 1
 495 1 417 -14 338 -14 c 0
 151 -14 41 91 41 271 c 0
 41 359 66 428 117 479 c 0
 168 529 239 556 328 556 c 0
 409 556 475 529 523 478 c 1
 573 427 598 359 598 273 c 2
436 327 m 1
 436 400 393 448 327 448 c 0
 258 448 214 406 203 327 c 1
 436 327 l 1
270 800 m 1
 401 620 l 1
 318 620 l 1
 146 800 l 1
 270 800 l 1
EndSplineSet
Validated: 1
EndChar

StartChar: eacute
Encoding: 233 233 193
Width: 644
Flags: W
HStem: -14 107<263.866 474.614> 225 102<203 436> 448 108<256.521 392.67>
VStem: 41 160<157.183 225 327 388.875>
LayerCount: 2
Fore
SplineSet
598 273 m 2
 598 225 l 1
 201 225 l 1
 209 138 261 93 354 93 c 0
 423 93 497 115 574 161 c 1
 574 31 l 1
 495 1 417 -14 338 -14 c 0
 151 -14 41 91 41 271 c 0
 41 359 66 428 117 479 c 0
 168 529 239 556 328 556 c 0
 409 556 475 529 523 478 c 1
 573 427 598 359 598 273 c 2
436 327 m 1
 436 400 393 448 327 448 c 0
 258 448 214 406 203 327 c 1
 436 327 l 1
406 800 m 1
 530 800 l 1
 359 620 l 1
 275 620 l 1
 406 800 l 1
EndSplineSet
Validated: 1
EndChar

StartChar: ecircumflex
Encoding: 234 234 194
Width: 644
Flags: W
HStem: -14 107<263.866 474.614> 226 102<203 436> 449 107<256.521 392.67>
VStem: 41 160<157.183 226 328 389.25>
LayerCount: 2
Fore
SplineSet
598 273 m 2
 598 226 l 1
 201 226 l 1
 209 139 261 93 354 93 c 0
 423 93 497 115 574 161 c 1
 574 31 l 1
 495 1 417 -14 338 -14 c 0
 151 -14 41 91 41 271 c 0
 41 359 66 429 117 479 c 0
 168 530 239 556 328 556 c 0
 409 556 475 530 523 478 c 1
 573 428 598 359 598 273 c 2
436 328 m 1
 436 400 393 449 327 449 c 0
 258 449 214 407 203 328 c 1
 436 328 l 1
284 800 m 1
 392 800 l 1
 511 621 l 1
 436 621 l 1
 338 734 l 1
 241 621 l 1
 166 621 l 1
 284 800 l 1
EndSplineSet
Validated: 1
EndChar

StartChar: edieresis
Encoding: 235 235 195
Width: 644
Flags: W
HStem: -14 107<263.866 474.614> 226 102<203 436> 449 107<256.521 392.67> 661 113<194 294 382 482>
VStem: 41 160<157.183 226 328 389.375> 194 100<661 774> 382 100<661 774>
LayerCount: 2
Fore
SplineSet
598 273 m 2xfa
 598 226 l 1
 201 226 l 1
 209 139 261 93 354 93 c 0
 423 93 497 115 574 161 c 1
 574 31 l 1
 495 1 417 -14 338 -14 c 0
 151 -14 41 91 41 271 c 0
 41 359 66 429 117 480 c 0
 168 530 239 556 328 556 c 0
 409 556 475 530 523 479 c 1
 573 428 598 359 598 273 c 2xfa
436 328 m 1
 436 401 393 449 327 449 c 0
 258 449 214 407 203 328 c 1
 436 328 l 1
194 774 m 1xf6
 294 774 l 1
 294 661 l 1
 194 661 l 1
 194 774 l 1xf6
382 774 m 1
 482 774 l 1
 482 661 l 1
 382 661 l 1
 382 774 l 1
EndSplineSet
Validated: 1
EndChar

StartChar: igrave
Encoding: 236 236 196
Width: 326
Flags: W
HStem: 0 21G<84 246>
VStem: 84 162<0 544>
LayerCount: 2
Fore
SplineSet
84 544 m 1
 246 544 l 1
 246 0 l 1
 84 0 l 1
 84 544 l 1
107 800 m 1
 241 620 l 1
 155 620 l 1
 -20 800 l 1
 107 800 l 1
EndSplineSet
Validated: 1
EndChar

StartChar: iacute
Encoding: 237 237 197
Width: 326
Flags: W
HStem: 0 21G<80 242>
VStem: 80 162<0 544>
LayerCount: 2
Fore
SplineSet
80 544 m 1
 242 544 l 1
 242 0 l 1
 80 0 l 1
 80 544 l 1
242 800 m 1
 368 800 l 1
 193 620 l 1
 108 620 l 1
 242 800 l 1
EndSplineSet
Validated: 1
EndChar

StartChar: icircumflex
Encoding: 238 238 198
Width: 326
Flags: W
HStem: 0 21G<82 243>
VStem: 82 161<0 544>
LayerCount: 2
Fore
SplineSet
82 544 m 1
 243 544 l 1
 243 0 l 1
 82 0 l 1
 82 544 l 1
119 800 m 1
 228 800 l 1
 349 621 l 1
 272 621 l 1
 174 734 l 1
 75 621 l 1
 -1 621 l 1
 119 800 l 1
EndSplineSet
Validated: 1
EndChar

StartChar: idieresis
Encoding: 239 239 199
Width: 325
Flags: W
HStem: 0 21G<81 242> 661 113<27 128 217 319>
VStem: 27 101<661 774> 81 161<0 545> 217 102<661 774>
LayerCount: 2
Fore
SplineSet
81 545 m 1xd0
 242 545 l 1
 242 0 l 1
 81 0 l 1
 81 545 l 1xd0
27 774 m 1xe0
 128 774 l 1
 128 661 l 1
 27 661 l 1
 27 774 l 1xe0
217 774 m 1xc8
 319 774 l 1
 319 661 l 1
 217 661 l 1
 217 774 l 1xc8
EndSplineSet
Validated: 1
EndChar

StartChar: eth
Encoding: 240 240 200
Width: 653
Flags: W
HStem: -14 116<261.341 393.024> 394 117<250.767 383.903> 557 21G<108.737 173.661> 740 20G<156 332.305 483.966 549.828>
VStem: 41 162<164.666 344.415> 450 162<163.755 364.402>
LayerCount: 2
Fore
SplineSet
435 365 m 1
 398 384 363 394 327 394 c 0
 248 394 203 346 203 263 c 0
 203 163 251 102 327 102 c 0
 406 102 450 162 450 271 c 0
 450 302 445 333 435 365 c 1
507 535 m 2
 580 447 612 367 612 271 c 0
 612 92 505 -14 327 -14 c 0
 148 -14 41 92 41 271 c 0
 41 421 139 511 302 511 c 0
 334 511 360 508 385 500 c 1
 290 616 l 1
 114 557 l 1
 99 614 l 1
 247 663 l 1
 156 760 l 1
 314 760 l 1
 368 701 l 1
 545 759 l 1
 559 701 l 1
 408 653 l 1
 507 535 l 2
EndSplineSet
Validated: 1
EndChar

StartChar: ntilde
Encoding: 241 241 201
Width: 676
Flags: W
HStem: 0 21G<80 238 444 602> 434 123<325.152 480.5> 647 66<366.143 447.169> 711 67<252.982 333.95>
VStem: 80 158<0 372.614 463 545> 190 54<647 702.484> 444 158<0 402.558> 456 54<719.348 778>
LayerCount: 2
Fore
SplineSet
602 333 m 2xca
 602 0 l 1
 444 0 l 1
 444 51 l 1
 444 254 l 2
 444 302 443 336 442 353 c 0
 441 371 436 386 431 395 c 0
 417 420 389 434 358 434 c 0
 283 434 238 372 238 268 c 2
 238 0 l 1
 80 0 l 1
 80 545 l 1
 238 545 l 1
 238 463 l 1
 291 528 349 557 421 557 c 0
 540 557 602 480 602 333 c 2xca
355 674 m 2
 330 692 l 2
 329 693 326 694 324 695 c 0
 307 706 295 711 286 711 c 0xd5
 260 711 244 689 244 647 c 1
 190 647 l 1xe5
 190 730 223 778 278 778 c 0xd5
 298 778 320 770 344 751 c 1
 374 729 l 1
 391 719 404 713 413 713 c 0xe5
 442 713 456 738 456 778 c 1
 510 778 l 1xd5
 510 694 478 647 422 647 c 0xe5
 401 647 383 654 355 674 c 2
EndSplineSet
Validated: 1
EndChar

StartChar: ograve
Encoding: 242 242 202
Width: 653
Flags: W
HStem: -14 116<260.453 393.024> 439 117<256.72 393.024>
VStem: 41 162<163.755 377.864> 450 162<163.755 377.864>
LayerCount: 2
Fore
SplineSet
327 439 m 0
 247 439 203 380 203 271 c 0
 203 162 247 102 327 102 c 0
 406 102 450 162 450 271 c 0
 450 380 406 439 327 439 c 0
327 556 m 0
 505 556 612 449 612 271 c 0
 612 92 505 -14 327 -14 c 0
 148 -14 41 92 41 271 c 0
 41 449 148 556 327 556 c 0
269 800 m 1
 401 620 l 1
 317 620 l 1
 145 800 l 1
 269 800 l 1
EndSplineSet
Validated: 1
EndChar

StartChar: oacute
Encoding: 243 243 203
Width: 653
Flags: W
HStem: -14 116<260.453 393.024> 439 117<256.72 393.024>
VStem: 41 162<163.755 377.864> 450 162<163.755 377.864>
LayerCount: 2
Fore
SplineSet
327 439 m 0
 247 439 203 380 203 271 c 0
 203 162 247 102 327 102 c 0
 406 102 450 162 450 271 c 0
 450 380 406 439 327 439 c 0
327 556 m 0
 505 556 612 449 612 271 c 0
 612 92 505 -14 327 -14 c 0
 148 -14 41 92 41 271 c 0
 41 449 148 556 327 556 c 0
406 800 m 1
 530 800 l 1
 358 620 l 1
 274 620 l 1
 406 800 l 1
EndSplineSet
Validated: 1
EndChar

StartChar: ocircumflex
Encoding: 244 244 204
Width: 653
Flags: W
HStem: -14 116<260.453 393.024> 440 116<260.453 393.024>
VStem: 41 162<163.755 378.245> 450 162<163.755 378.245>
LayerCount: 2
Fore
SplineSet
327 440 m 0
 247 440 203 380 203 271 c 0
 203 162 247 102 327 102 c 0
 406 102 450 162 450 271 c 0
 450 380 406 440 327 440 c 0
327 556 m 0
 505 556 612 450 612 271 c 0
 612 92 505 -14 327 -14 c 0
 148 -14 41 92 41 271 c 0
 41 450 148 556 327 556 c 0
284 800 m 1
 391 800 l 1
 510 621 l 1
 435 621 l 1
 337 734 l 1
 240 621 l 1
 165 621 l 1
 284 800 l 1
EndSplineSet
Validated: 1
EndChar

StartChar: otilde
Encoding: 245 245 205
Width: 653
Flags: W
HStem: -14 116<260.453 393.024> 441 116<260.453 393.024> 646 67<354.405 434.841> 711 67<239.982 320.733>
VStem: 41 162<163.755 378.902> 177 54<646 705.092> 444 54<719.163 778> 450 162<163.755 378.902>
LayerCount: 2
Fore
SplineSet
327 441 m 0xc9
 247 441 203 381 203 271 c 0
 203 162 247 102 327 102 c 0
 406 102 450 162 450 271 c 0
 450 381 406 441 327 441 c 0xc9
327 557 m 0
 505 557 612 451 612 271 c 0
 612 92 505 -14 327 -14 c 0
 148 -14 41 92 41 271 c 0
 41 451 148 557 327 557 c 0
342 674 m 2
 317 692 l 2
 316 693 313 694 311 695 c 0
 295 706 282 711 273 711 c 0xd6
 247 711 231 689 231 646 c 1
 177 646 l 1xe6
 177 730 210 778 265 778 c 0xd6
 286 778 307 770 332 751 c 2
 362 729 l 1
 378 719 391 713 401 713 c 0xe6
 429 713 444 737 444 778 c 1
 498 778 l 1xd6
 498 694 465 646 410 646 c 0xe6
 388 646 371 653 342 674 c 2
EndSplineSet
Validated: 1
EndChar

StartChar: odieresis
Encoding: 246 246 206
Width: 653
Flags: W
HStem: -14 116<260.453 393.024> 440 116<260.453 393.024> 661 113<193 294 381 482>
VStem: 41 162<163.755 378.245> 193 101<661 774> 381 101<661 774> 450 162<163.755 378.245>
LayerCount: 2
Fore
SplineSet
327 440 m 0xf2
 247 440 203 380 203 271 c 0
 203 162 247 102 327 102 c 0
 406 102 450 162 450 271 c 0
 450 380 406 440 327 440 c 0xf2
327 556 m 0
 505 556 612 450 612 271 c 0
 612 92 505 -14 327 -14 c 0
 148 -14 41 92 41 271 c 0
 41 450 148 556 327 556 c 0
193 774 m 1xe8
 294 774 l 1
 294 661 l 1
 193 661 l 1
 193 774 l 1xe8
381 774 m 1xe4
 482 774 l 1
 482 661 l 1
 381 661 l 1
 381 774 l 1xe4
EndSplineSet
Validated: 1
EndChar

StartChar: divide
Encoding: 247 247 207
Width: 797
Flags: W
HStem: 42 145<332 466> 259 108<101 696> 440 145<332 466>
VStem: 332 134<42 187 440 585>
LayerCount: 2
Fore
SplineSet
332 187 m 1
 466 187 l 1
 466 42 l 1
 332 42 l 1
 332 187 l 1
332 585 m 1
 466 585 l 1
 466 440 l 1
 332 440 l 1
 332 585 l 1
101 367 m 1
 696 367 l 1
 696 259 l 1
 101 259 l 1
 101 367 l 1
EndSplineSet
Validated: 1
EndChar

StartChar: oslash
Encoding: 248 248 208
Width: 653
Flags: W
HStem: -13 117<257.562 393.024> 443 117<260.453 395.687>
VStem: 41 162<203.846 380.963> 450 162<165.694 346.108>
LayerCount: 2
Fore
SplineSet
407 410 m 1
 386 434 360 443 327 443 c 0
 247 443 203 383 203 273 c 0
 203 244 209 221 215 202 c 1
 407 410 l 1
244 138 m 1
 265 115 293 104 327 104 c 0
 406 104 450 164 450 273 c 0
 450 304 444 327 437 347 c 1
 244 138 l 1
105 74 m 1
 62 126 41 192 41 273 c 0
 41 453 148 560 327 560 c 0
 394 560 452 546 499 516 c 1
 569 594 l 1
 613 550 l 1
 545 475 l 1
 589 423 612 356 612 273 c 0
 612 94 505 -13 327 -13 c 0
 259 -13 201 2 151 32 c 1
 82 -46 l 1
 36 -4 l 1
 105 74 l 1
EndSplineSet
Validated: 1
EndChar

StartChar: ugrave
Encoding: 249 249 209
Width: 676
Flags: W
HStem: -14 123<196.5 350.66> -1 21G<437 596>
VStem: 74 155<140.796 543> 437 159<-1 80 170.386 543>
LayerCount: 2
Fore
SplineSet
74 210 m 2xb0
 74 543 l 1
 231 543 l 1
 231 492 l 2
 231 463 231 424 229 379 c 1
 229 289 l 2
 229 198 233 165 245 147 c 0
 261 123 285 109 318 109 c 0xb0
 392 109 437 171 437 275 c 2
 437 543 l 1
 596 543 l 1
 596 -1 l 1
 437 -1 l 1x70
 437 80 l 1
 385 15 327 -14 256 -14 c 0
 137 -14 74 64 74 210 c 2xb0
281 800 m 1
 412 620 l 1
 329 620 l 1
 157 800 l 1
 281 800 l 1
EndSplineSet
Validated: 1
EndChar

StartChar: uacute
Encoding: 250 250 210
Width: 676
Flags: W
HStem: -14 123<196.5 350.66> -1 21G<437 596>
VStem: 74 155<140.796 543> 437 159<-1 80 170.386 543>
LayerCount: 2
Fore
SplineSet
74 210 m 2xb0
 74 543 l 1
 231 543 l 1
 231 492 l 2
 231 463 231 424 229 379 c 1
 229 289 l 2
 229 198 233 165 245 147 c 0
 261 123 285 109 318 109 c 0xb0
 392 109 437 171 437 275 c 2
 437 543 l 1
 596 543 l 1
 596 -1 l 1
 437 -1 l 1x70
 437 80 l 1
 385 15 327 -14 256 -14 c 0
 137 -14 74 64 74 210 c 2xb0
417 800 m 1
 541 800 l 1
 369 620 l 1
 286 620 l 1
 417 800 l 1
EndSplineSet
Validated: 1
EndChar

StartChar: ucircumflex
Encoding: 251 251 211
Width: 676
Flags: W
HStem: -14 123<196.5 350.66> -1 21G<437 596>
VStem: 74 155<140.796 544> 437 159<-1 80 170.386 544>
LayerCount: 2
Fore
SplineSet
74 210 m 2xb0
 74 544 l 1
 231 544 l 1
 231 493 l 2
 231 463 231 425 229 379 c 1
 229 289 l 2
 229 198 233 165 245 148 c 0
 261 123 285 109 318 109 c 0xb0
 392 109 437 171 437 275 c 2
 437 544 l 1
 596 544 l 1
 596 -1 l 1
 437 -1 l 1x70
 437 80 l 1
 385 15 327 -14 256 -14 c 0
 137 -14 74 64 74 210 c 2xb0
296 800 m 1
 403 800 l 1
 521 621 l 1
 446 621 l 1
 349 734 l 1
 252 621 l 1
 177 621 l 1
 296 800 l 1
EndSplineSet
Validated: 1
EndChar

StartChar: udieresis
Encoding: 252 252 212
Width: 676
Flags: W
HStem: -14 123<196.5 350.66> -1 21G<437 596> 661 113<205 305 393 493>
VStem: 74 155<140.796 544> 205 100<661 774> 393 100<661 774> 437 159<-1 80 170.386 544>
LayerCount: 2
Fore
SplineSet
74 210 m 2xb2
 74 544 l 1
 231 544 l 1
 231 493 l 2
 231 463 231 425 229 379 c 1
 229 289 l 2
 229 198 233 165 245 148 c 0
 261 123 285 109 318 109 c 0xb2
 392 109 437 171 437 275 c 2
 437 544 l 1
 596 544 l 1
 596 -1 l 1
 437 -1 l 1x72
 437 80 l 1
 385 15 327 -14 256 -14 c 0
 137 -14 74 64 74 210 c 2xb2
205 774 m 1x28
 305 774 l 1
 305 661 l 1
 205 661 l 1
 205 774 l 1x28
393 774 m 1x24
 493 774 l 1
 493 661 l 1
 393 661 l 1
 393 774 l 1x24
EndSplineSet
Validated: 1
EndChar

StartChar: yacute
Encoding: 253 253 213
Width: 619
Flags: W
HStem: -216 107<96 219.889>
LayerCount: 2
Fore
SplineSet
11 544 m 1
 171 544 l 1
 318 169 l 1
 444 544 l 1
 602 544 l 1
 379 -53 l 2
 357 -114 331 -155 302 -179 c 0
 273 -204 236 -216 188 -216 c 2
 96 -216 l 1
 96 -109 l 1
 144 -109 l 2
 206 -109 229 -93 245 -41 c 2
 250 -24 l 1
 11 544 l 1
378 800 m 1
 501 800 l 1
 330 621 l 1
 247 621 l 1
 378 800 l 1
EndSplineSet
Validated: 1
EndChar

StartChar: thorn
Encoding: 254 254 214
Width: 680
Flags: W
HStem: -208 21G<80 238> -11 118<320.867 425.154> 440 118<322.398 425.154> 740 20G<80 238>
VStem: 80 158<-208 83 163.61 382.774 464 760> 477 160<164.289 381.903>
LayerCount: 2
Fore
SplineSet
238 83 m 1
 238 -208 l 1
 80 -208 l 1
 80 760 l 1
 238 760 l 1
 238 464 l 1
 287 528 343 558 420 558 c 0
 483 558 536 531 576 478 c 1
 617 426 637 357 637 273 c 0
 637 189 617 120 576 68 c 1
 536 15 483 -11 420 -11 c 0
 343 -11 287 18 238 83 c 1
357 440 m 0
 280 440 238 381 238 273 c 0
 238 165 280 107 357 107 c 0
 435 107 477 165 477 273 c 0
 477 381 435 440 357 440 c 0
EndSplineSet
Validated: 1
EndChar

StartChar: ydieresis
Encoding: 255 255 215
Width: 619
Flags: W
HStem: -216 107<96 219.889> 661 113<166 266 354 454>
VStem: 166 100<661 774> 354 100<661 774>
LayerCount: 2
Fore
SplineSet
11 545 m 1
 171 545 l 1
 318 170 l 1
 444 545 l 1
 602 545 l 1
 379 -53 l 2
 357 -114 331 -155 302 -180 c 0
 273 -204 236 -216 188 -216 c 2
 96 -216 l 1
 96 -109 l 1
 144 -109 l 2
 206 -109 229 -93 245 -41 c 2
 250 -24 l 1
 11 545 l 1
166 774 m 1
 266 774 l 1
 266 661 l 1
 166 661 l 1
 166 774 l 1
354 774 m 1
 454 774 l 1
 454 661 l 1
 354 661 l 1
 354 774 l 1
EndSplineSet
Validated: 1
EndChar

StartChar: fraction
Encoding: 8260 8260 216
Width: 159
Flags: W
HStem: -14 21G<-189 -82.3069> 722 20G<240.333 348>
LayerCount: 2
Fore
SplineSet
-94 -14 m 1
 -189 -14 l 1
 252 742 l 1
 348 742 l 1
 -94 -14 l 1
EndSplineSet
Validated: 1
EndChar

StartChar: fi
Encoding: 64257 64257 217
Width: 704
Flags: W
HStem: 0 21G<103 261 466 624> 428 119<20 103 261 466> 624 136<466 624> 653 107<271.279 419>
VStem: 103 158<0 428 547 642.869> 466 158<0 428 624 760>
LayerCount: 2
Fore
SplineSet
466 760 m 1xec
 624 760 l 1
 624 624 l 1
 466 624 l 1
 466 760 l 1xec
419 760 m 1xdc
 419 653 l 1
 331 653 l 2
 280 653 261 636 261 588 c 2
 261 547 l 1
 624 547 l 1
 624 0 l 1
 466 0 l 1
 466 428 l 1
 261 428 l 1
 261 0 l 1
 103 0 l 1
 103 428 l 1
 20 428 l 1
 20 547 l 1
 103 547 l 1
 103 588 l 2
 103 705 164 760 295 760 c 2
 419 760 l 1xdc
EndSplineSet
Validated: 1
Ligature2: "sous-table 'liga' Ligatures standard dans Latin lookup 6" f i
EndChar

StartChar: fl
Encoding: 64258 64258 218
Width: 704
Flags: W
HStem: 0 21G<102 259 466 624> 428 119<18 102 259 393> 653 107<270.256 466>
VStem: 102 157<0 428 547 642.869> 466 158<0 653>
LayerCount: 2
Fore
SplineSet
294 760 m 2
 624 760 l 1
 624 0 l 1
 466 0 l 1
 466 653 l 1
 330 653 l 2
 278 653 259 636 259 588 c 2
 259 547 l 1
 393 547 l 1
 393 428 l 1
 259 428 l 1
 259 0 l 1
 102 0 l 1
 102 428 l 1
 18 428 l 1
 18 547 l 1
 102 547 l 1
 102 588 l 2
 102 705 163 760 294 760 c 2
EndSplineSet
Validated: 1
Ligature2: "sous-table 'liga' Ligatures standard dans Latin lookup 7" f l
EndChar

StartChar: breve
Encoding: 728 728 219
Width: 475
Flags: W
HStem: 639 69<169.275 305.98>
VStem: 82 58<736.084 784> 335 58<736.084 784>
LayerCount: 2
Fore
SplineSet
82 784 m 1
 140 784 l 1
 147 735 180 708 238 708 c 0
 295 708 328 735 335 784 c 1
 393 784 l 1
 389 691 333 639 238 639 c 0
 142 639 86 691 82 784 c 1
EndSplineSet
Validated: 1
EndChar

StartChar: dotaccent
Encoding: 729 729 220
Width: 478
Flags: W
HStem: 654 120<175 303>
VStem: 175 128<654 774>
LayerCount: 2
Fore
SplineSet
175 774 m 1
 303 774 l 1
 303 654 l 1
 175 654 l 1
 175 774 l 1
EndSplineSet
Validated: 1
EndChar

StartChar: ring
Encoding: 730 730 221
Width: 474
Flags: W
HStem: 610 67<185.068 288.25> 821 67<185.5 288.062>
VStem: 105 59<698.067 799.867> 310 59<698.442 799.105>
LayerCount: 2
Fore
SplineSet
164 749 m 0
 164 708 198 677 237 677 c 0
 277 677 310 710 310 749 c 0
 310 788 276 821 237 821 c 0
 197 821 164 788 164 749 c 0
105 749 m 0
 105 787 117 819 143 846 c 0
 168 873 200 888 237 888 c 0
 274 888 305 873 330 846 c 0
 356 819 369 787 369 749 c 0
 369 711 356 677 330 650 c 0
 305 623 274 610 237 610 c 0
 200 610 168 623 143 650 c 0
 117 677 105 711 105 749 c 0
EndSplineSet
Validated: 1
EndChar

StartChar: hungarumlaut
Encoding: 733 733 222
Width: 474
Flags: W
HStem: 616 184
LayerCount: 2
Fore
SplineSet
179 800 m 1
 273 800 l 1
 157 616 l 1
 89 616 l 1
 179 800 l 1
354 800 m 1
 454 800 l 1
 326 616 l 1
 253 616 l 1
 354 800 l 1
EndSplineSet
Validated: 1
EndChar

StartChar: ogonek
Encoding: 731 731 223
Width: 476
Flags: W
HStem: -196 65<234.048 356.597> -20 20G<191.5 269>
VStem: 159 65<-120.327 -39.255>
LayerCount: 2
Fore
SplineSet
209 0 m 1
 269 0 l 1
 235 -44 224 -65 224 -81 c 0
 224 -111 248 -131 286 -131 c 0
 309 -131 333 -126 358 -113 c 1
 358 -187 l 1
 323 -193 295 -196 269 -196 c 0
 198 -196 159 -166 159 -113 c 0
 159 -76 174 -42 209 0 c 1
EndSplineSet
Validated: 1
EndChar

StartChar: caron
Encoding: 711 711 224
Width: 476
Flags: W
HStem: 616 184
LayerCount: 2
Fore
SplineSet
184 616 m 1
 63 800 l 1
 139 800 l 1
 238 683 l 1
 337 800 l 1
 413 800 l 1
 292 616 l 1
 184 616 l 1
EndSplineSet
Validated: 1
EndChar

StartChar: Lslash
Encoding: 321 321 225
Width: 610
Flags: W
HStem: 0 136<264 584> 709 20G<92 264>
VStem: 92 172<136 259 524 729>
LayerCount: 2
Fore
SplineSet
92 729 m 1
 264 729 l 1
 264 524 l 1
 389 614 l 1
 450 525 l 1
 264 391 l 1
 264 136 l 1
 584 136 l 1
 584 0 l 1
 92 0 l 1
 92 259 l 1
 18 207 l 1
 -43 295 l 1
 92 391 l 1
 92 729 l 1
EndSplineSet
Validated: 1
Position2: "sous-table 'cpsp' Chasses pour composition en capitales dans Latin lookup 1" dx=5 dy=0 dh=10 dv=0
EndChar

StartChar: dotlessi
Encoding: 305 305 226
Width: 326
Flags: W
HStem: 0 21G<80 246> 527 20G<80 246>
VStem: 80 166<0 547>
LayerCount: 2
Fore
SplineSet
80 547 m 1
 246 547 l 1
 246 0 l 1
 80 0 l 1
 80 547 l 1
EndSplineSet
Validated: 1
EndChar

StartChar: lslash
Encoding: 322 322 227
Width: 353
Flags: W
HStem: 0 21G<94 257> 535 20G<292.837 337.429> 740 20G<94 257>
VStem: 94 163<0 316 512 760>
LayerCount: 2
Fore
SplineSet
94 760 m 1
 257 760 l 1
 257 512 l 1
 324 555 l 1
 371 485 l 1
 257 405 l 1
 257 0 l 1
 94 0 l 1
 94 316 l 1
 30 275 l 1
 -17 345 l 1
 94 425 l 1
 94 760 l 1
EndSplineSet
Validated: 1
EndChar

StartChar: Zcaron
Encoding: 381 381 228
Width: 690
Flags: W
HStem: 0 136<256 647> 591 136<53 423>
LayerCount: 2
Fore
SplineSet
53 727 m 1
 635 727 l 1
 635 618 l 1
 256 136 l 1
 647 136 l 1
 647 0 l 1
 43 0 l 1
 43 109 l 1
 423 591 l 1
 53 591 l 1
 53 727 l 1
264 806 m 1
 162 927 l 1
 236 927 l 1
 333 846 l 1
 430 927 l 1
 505 927 l 1
 403 806 l 1
 264 806 l 1
EndSplineSet
Validated: 1
Position2: "sous-table 'cpsp' Chasses pour composition en capitales dans Latin lookup 1" dx=5 dy=0 dh=10 dv=0
EndChar

StartChar: zcaron
Encoding: 382 382 229
Width: 553
Flags: W
HStem: 0 119<226 507> 425 119<54 325>
LayerCount: 2
Fore
SplineSet
54 544 m 1
 507 544 l 1
 507 427 l 1
 226 119 l 1
 507 119 l 1
 507 0 l 1
 43 0 l 1
 43 117 l 1
 325 425 l 1
 54 425 l 1
 54 544 l 1
223 622 m 1
 104 800 l 1
 179 800 l 1
 277 687 l 1
 375 800 l 1
 450 800 l 1
 331 622 l 1
 223 622 l 1
EndSplineSet
Validated: 1
EndChar

StartChar: notequal
Encoding: 8800 8800 231
Width: 797
Flags: W
HStem: -5 21G<186.621 223.705> 144 111<101 214 415 696> 371 110<101 386 584 696>
LayerCount: 2
Fore
SplineSet
101 481 m 1
 472 481 l 1
 590 631 l 1
 652 574 l 1
 584 481 l 1
 696 481 l 1
 696 371 l 1
 501 371 l 1
 415 255 l 1
 696 255 l 1
 696 144 l 1
 325 144 l 1
 208 -5 l 1
 146 53 l 1
 214 144 l 1
 101 144 l 1
 101 255 l 1
 299 255 l 1
 386 371 l 1
 101 371 l 1
 101 481 l 1
EndSplineSet
Validated: 1
EndChar

StartChar: infinity
Encoding: 8734 8734 232
Width: 791
Flags: W
HStem: 91 114<174.341 284.07 489.456 627.804> 391 113<164.583 301.017 508.166 619.886>
VStem: 90 42<238.814 359.17> 660 42<236.175 356.541>
LayerCount: 2
Fore
SplineSet
437 274 m 1
 466 226 506 201 556 201 c 0
 618 201 660 240 660 296 c 0
 660 350 620 391 568 391 c 0
 519 391 483 359 437 274 c 1
355 322 m 1
 326 370 287 394 236 394 c 0
 174 394 132 355 132 299 c 0
 132 244 172 205 225 205 c 0
 273 205 311 239 355 322 c 1
397 219 m 1
 354 132 305 91 243 91 c 0
 201 91 165 111 135 150 c 0
 105 189 90 238 90 297 c 0
 90 359 103 409 130 447 c 0
 157 485 191 503 233 503 c 0
 290 503 333 471 395 375 c 1
 441 462 490 504 549 504 c 0
 592 504 628 485 657 446 c 1
 688 407 702 358 702 298 c 0
 702 237 689 187 662 148 c 0
 636 110 602 91 560 91 c 0
 502 91 461 122 397 219 c 1
EndSplineSet
Validated: 1
EndChar

StartChar: lessequal
Encoding: 8804 8804 233
Width: 797
Flags: W
HStem: 0 110<101 696>
LayerCount: 2
Fore
SplineSet
696 110 m 1
 696 0 l 1
 101 0 l 1
 101 110 l 1
 696 110 l 1
696 468 m 1
 270 362 l 1
 696 256 l 1
 696 142 l 1
 101 307 l 1
 101 418 l 1
 696 582 l 1
 696 468 l 1
EndSplineSet
Validated: 1
EndChar

StartChar: greaterequal
Encoding: 8805 8805 234
Width: 797
Flags: W
HStem: 0 110<101 696>
LayerCount: 2
Fore
SplineSet
101 110 m 1
 696 110 l 1
 696 0 l 1
 101 0 l 1
 101 110 l 1
101 468 m 1
 101 582 l 1
 696 418 l 1
 696 307 l 1
 101 142 l 1
 101 256 l 1
 528 362 l 1
 101 468 l 1
EndSplineSet
Validated: 1
EndChar

StartChar: partialdiff
Encoding: 8706 8706 235
Width: 518
Flags: W
HStem: -12 27<179.335 259.215> 382 34<215.037 294.339> 619 46<261 364.743>
VStem: 28 115<90.7631 286.688> 388 102<359.254 518.161>
LayerCount: 2
Fore
SplineSet
360 329 m 1
 377 405 388 472 388 511 c 0
 388 571 361 619 333 619 c 0
 321 619 298 604 263 572 c 1
 235 542 208 527 184 527 c 0
 157 527 137 550 137 580 c 0
 137 601 151 620 178 637 c 0
 207 656 242 665 280 665 c 0
 345 665 396 640 433 587 c 1
 471 535 490 463 490 372 c 0
 490 259 465 167 413 94 c 0
 363 23 299 -12 220 -12 c 0
 164 -12 118 7 82 45 c 0
 46 82 28 131 28 189 c 0
 28 255 46 310 83 352 c 0
 120 395 166 416 221 416 c 0
 285 416 329 389 360 329 c 1
335 259 m 0
 335 336 307 382 259 382 c 0
 226 382 197 358 175 311 c 0
 153 265 143 208 143 137 c 0
 143 57 171 15 220 15 c 0
 253 15 281 39 303 85 c 0
 325 131 335 188 335 259 c 0
EndSplineSet
Validated: 1
EndChar

StartChar: summation
Encoding: 8721 8721 236
Width: 682
Flags: W
HStem: -192 124<220 662> 596 123<221 637>
LayerCount: 2
Fore
SplineSet
31 719 m 1
 637 719 l 1
 637 596 l 1
 221 596 l 1
 513 275 l 1
 220 -68 l 1
 662 -68 l 1
 662 -192 l 1
 19 -192 l 1
 19 -113 l 1
 351 269 l 1
 31 611 l 1
 31 719 l 1
EndSplineSet
Validated: 1
EndChar

StartChar: product
Encoding: 8719 8719 237
Width: 748
Flags: W
HStem: 585 134<221 525>
VStem: 69 152<-192 585> 525 152<-192 585>
LayerCount: 2
Fore
SplineSet
69 719 m 1
 677 719 l 1
 677 -192 l 1
 525 -192 l 1
 525 585 l 1
 221 585 l 1
 221 -192 l 1
 69 -192 l 1
 69 719 l 1
EndSplineSet
Validated: 1
EndChar

StartChar: pi
Encoding: 960 960 238
Width: 612
Flags: W
HStem: 0 21G<83 211.302 331 458.395> 430 103<89.8314 155 279 402 528 611>
VStem: -16 90<365 415.355>
LayerCount: 2
Fore
SplineSet
628 533 m 1
 611 430 l 1
 528 430 l 1
 455 0 l 1
 331 0 l 1
 402 430 l 1
 279 430 l 1
 208 0 l 1
 83 0 l 1
 155 430 l 1
 137 430 l 2
 99 430 82 410 74 365 c 1
 -16 365 l 1
 -7 428 12 470 41 495 c 0
 70 520 117 533 184 533 c 2
 628 533 l 1
EndSplineSet
Validated: 1
EndChar

StartChar: integral
Encoding: 8747 8747 239
Width: 580
Flags: W
HStem: -182 52<97.5 187.508> 710 50<392.83 483.5>
VStem: 24 117<-129.688 -42.2576> 230 119<58.1562 505.844> 441 116<619.934 709.28>
LayerCount: 2
Fore
SplineSet
165 -130 m 0
 200 -130 222 -18 230 204 c 0
 231 238 231 263 232 280 c 0
 236 451 257 573 292 649 c 0
 326 723 380 760 453 760 c 0
 514 760 557 724 557 671 c 0
 557 633 532 605 495 605 c 0
 459 605 441 630 441 675 c 0
 441 704 435 710 417 710 c 0
 381 710 359 598 351 376 c 0
 350 356 350 341 349 331 c 0
 346 222 341 146 334 98 c 0
 328 51 321 12 308 -21 c 1
 270 -128 211 -182 129 -182 c 0
 66 -182 24 -147 24 -93 c 0
 24 -53 51 -27 90 -27 c 0
 123 -27 142 -49 142 -91 c 0
 142 -95 142 -98 141 -102 c 1
 141 -104 l 2
 141 -124 147 -130 165 -130 c 0
EndSplineSet
Validated: 1
EndChar

StartChar: Omega
Encoding: 8486 8486 240
Width: 731
Flags: W
HStem: 0 120<26 164 566 704> 615 122<275.009 456.583>
VStem: 48 130<271.478 510.594> 552 130<271.478 510.594>
LayerCount: 2
Fore
SplineSet
566 120 m 1
 704 120 l 1
 704 0 l 1
 429 0 l 1
 429 138 l 1
 508 194 552 285 552 394 c 0
 552 531 482 615 365 615 c 0
 248 615 178 531 178 394 c 0
 178 285 221 194 300 138 c 1
 300 0 l 1
 26 0 l 1
 26 120 l 1
 164 120 l 1
 85 200 48 292 48 401 c 0
 48 502 76 584 134 645 c 0
 192 706 268 737 365 737 c 0
 461 737 537 706 595 645 c 0
 653 584 682 502 682 401 c 0
 682 292 645 200 566 120 c 1
EndSplineSet
Validated: 1
EndChar

StartChar: radical
Encoding: 8730 8730 241
Width: 633
Flags: W
HStem: 771 66<590 635>
LayerCount: 2
Fore
SplineSet
544 837 m 1
 635 837 l 1
 635 771 l 1
 590 771 l 1
 311 -20 l 1
 265 -20 l 1
 117 398 l 1
 49 369 l 1
 35 427 l 1
 196 487 l 1
 304 174 l 1
 544 837 l 1
EndSplineSet
Validated: 1
EndChar

StartChar: approxequal
Encoding: 8776 8776 242
Width: 797
Flags: W
HStem: 121 107<434.911 615.884> 190 106<180.346 362.089> 330 107<434.911 614.551> 399 106<182.739 362.025>
LayerCount: 2
Fore
SplineSet
696 517 m 1x20
 696 402 l 1
 631 351 580 330 521 330 c 0x20
 488 330 450 341 405 360 c 1
 400 361 399 363 396 364 c 0
 394 365 390 366 385 368 c 0
 336 389 296 399 265 399 c 0
 212 399 161 373 101 319 c 1
 101 434 l 1
 165 484 217 505 276 505 c 0x10
 310 505 349 494 394 475 c 0
 397 474 399 473 401 472 c 0
 404 471 407 470 412 468 c 0
 461 447 501 437 532 437 c 0
 584 437 633 461 696 517 c 1x20
696 308 m 1
 696 193 l 1
 631 142 580 121 521 121 c 0x80
 488 121 450 130 405 150 c 0
 400 152 399 154 396 155 c 0
 394 156 390 157 385 159 c 0
 336 180 296 190 265 190 c 0
 212 190 161 166 101 110 c 1
 101 225 l 1
 166 276 217 296 276 296 c 0x40
 309 296 347 286 392 267 c 1
 397 266 399 264 401 263 c 0
 404 262 407 261 412 259 c 0
 461 238 501 228 532 228 c 0x80
 584 228 633 250 696 308 c 1
EndSplineSet
Validated: 1
EndChar

StartChar: increment
Encoding: 57355 57355 243
Width: 662
Flags: W
HStem: 0 120<169 492>
LayerCount: 2
Fore
SplineSet
330 549 m 1
 169 120 l 1
 492 120 l 1
 330 549 l 1
264 719 m 1
 397 719 l 1
 662 0 l 1
 0 0 l 1
 264 719 l 1
EndSplineSet
Validated: 1
EndChar

StartChar: lozenge
Encoding: 9674 9674 245
Width: 469
Flags: W
LayerCount: 2
Fore
SplineSet
235 697 m 1
 42 289 l 1
 235 -123 l 1
 427 289 l 1
 235 697 l 1
235 807 m 1
 466 289 l 1
 235 -233 l 1
 3 289 l 1
 235 807 l 1
EndSplineSet
Validated: 1
EndChar

StartChar: middot
Encoding: 57356 57356 246
Width: 361
Flags: W
HStem: 253 189<97 264>
VStem: 97 167<253 442>
LayerCount: 2
Fore
SplineSet
97 442 m 1
 264 442 l 1
 264 253 l 1
 97 253 l 1
 97 442 l 1
EndSplineSet
Validated: 1
EndChar

StartChar: overscore
Encoding: 57358 57358 247
Width: 474
Flags: W
HStem: 668 92<91 383>
VStem: 91 292<668 760>
LayerCount: 2
Fore
SplineSet
91 760 m 1
 383 760 l 1
 383 668 l 1
 91 668 l 1
 91 760 l 1
EndSplineSet
Validated: 1
EndChar

StartChar: Gbreve
Encoding: 286 286 248
Width: 779
Flags: W
HStem: -14 127<340.368 548.212> 281 119<438 549> 612 127<343.792 584.257> 806 60<308.192 448.6>
VStem: 47 173<238.573 481.95> 549 160<122.69 281>
LayerCount: 2
Fore
SplineSet
709 53 m 1
 621 8 525 -14 423 -14 c 0
 308 -14 216 20 148 87 c 0
 80 155 47 246 47 363 c 0
 47 479 81 572 149 638 c 0
 219 705 313 739 433 739 c 0
 525 739 609 722 684 687 c 1
 684 541 l 1
 608 590 532 612 455 612 c 0
 306 612 220 522 220 363 c 0
 220 203 302 113 446 113 c 0
 487 113 521 118 549 130 c 1
 549 281 l 1
 438 281 l 1
 438 400 l 1
 709 400 l 1
 709 53 l 1
225 927 m 1
 282 927 l 1
 296 886 328 866 378 866 c 0
 429 866 461 886 475 927 c 1
 532 927 l 1
 521 848 468 806 378 806 c 0
 289 806 236 848 225 927 c 1
EndSplineSet
Validated: 1
EndChar

StartChar: gbreve
Encoding: 287 287 249
Width: 680
Flags: W
HStem: -216 107<167.155 373.176> 2 118<253.777 358.394> 439 117<257.114 358.394> 647 65<269.754 410.321>
VStem: 43 161<175.015 380.416> 186 58<738.679 784> 437 57<738.679 784> 440 160<-44.0116 96 175.874 383.32 462 545>
LayerCount: 2
Fore
SplineSet
440 96 m 1xf9
 393 31 336 2 260 2 c 0
 197 2 145 27 104 80 c 0
 63 132 43 199 43 280 c 0
 43 360 63 427 104 478 c 1
 145 531 197 556 260 556 c 0
 336 556 393 527 440 462 c 1
 440 545 l 1
 600 545 l 1
 600 52 l 2
 600 -122 491 -216 290 -216 c 0
 226 -216 166 -206 105 -186 c 1
 105 -55 l 1
 163 -92 218 -109 274 -109 c 0
 389 -109 440 -58 440 52 c 2
 440 96 l 1xf9
323 439 m 0
 248 439 204 380 204 280 c 0
 204 176 245 120 323 120 c 0
 398 120 440 179 440 280 c 0
 440 380 398 439 323 439 c 0
186 784 m 1xf6
 244 784 l 1
 250 738 283 712 340 712 c 0
 397 712 430 738 437 784 c 1
 494 784 l 1
 490 696 435 647 340 647 c 0
 245 647 190 696 186 784 c 1xf6
EndSplineSet
Validated: 1
EndChar

StartChar: Idot
Encoding: 57345 57345 250
Width: 355
Flags: W
HStem: 0 21G<88 267> 814 113<104 227>
VStem: 88 179<0 727> 104 123<814 927>
LayerCount: 2
Fore
SplineSet
88 727 m 1xe0
 267 727 l 1
 267 0 l 1
 88 0 l 1
 88 727 l 1xe0
104 927 m 1xd0
 227 927 l 1
 227 814 l 1
 104 814 l 1
 104 927 l 1xd0
EndSplineSet
Validated: 1
EndChar

StartChar: Scedilla
Encoding: 350 350 251
Width: 683
Flags: W
HStem: -196 63<227.428 357.086> -11.8997 126.9<196.582 340.023> 559 21G<532 570> 615 127<252.065 482.319>
VStem: 68 151<486.015 583.024> 366 63<-122.262 -43.873> 453 161<148.154 255.43>
LayerCount: 2
Fore
SplineSet
570 708 m 1
 570 559 l 1
 494 596 420 615 355 615 c 0
 264 615 219 588 219 533 c 0
 219 489 244 470 323 453 c 2
 401 437 l 2
 555 405 614 345 614 223 c 0
 614 77.9394725533 539.823386363 1.15514629523 382.957422738 -10.448518718 c 1
 413.956372135 -47.0599196326 429.000000039 -79.9104135711 429 -109 c 0
 429 -168 394 -196 317 -196 c 0
 289 -196 258 -192 226 -185 c 1
 226 -117 l 1
 255 -129 280 -133 300 -133 c 0
 341 -133 366 -116 366 -86 c 0
 366 -70.7157679529 354.137106482 -46.3062332 326.924488351 -11.899687962 c 1
 242.692000653 -10.5009738083 155.935256998 5.55282316335 71 38 c 1
 71 192 l 1
 160 142 244 115 321 115 c 0
 405 115 453 146 453 200 c 0
 453 249 430 271 339 292 c 2
 268 308 l 2
 130 340 68 404 68 519 c 0
 68 662 159 742 326 742 c 0
 402 742 483 731 570 708 c 1
EndSplineSet
Validated: 524289
EndChar

StartChar: scedilla
Encoding: 351 351 252
Width: 565
Flags: W
HStem: -196 63<169.428 299.696> -10.9729 106.973<127.023 285.169> 453 107<199.147 416.703>
VStem: 49 135<359.759 436.611> 309 63<-122.043 -43.0359> 373 147<116.364 199.375>
LayerCount: 2
Fore
SplineSet
487 532 m 1
 487 404 l 1
 415 437 348 453 288 453 c 0
 218 453 184 435 184 396 c 0
 184 365 207 351 274 342 c 1
 304 337 l 1
 390 326 447 308 477 282 c 1
 505 256 520 216 520 161 c 0
 520 59.2017897047 455.411440046 2.05739863703 325.52227773 -9.00908862094 c 1
 356.815599366 -46.7021749329 371.999999976 -78.7746248836 372 -108 c 0
 372 -167 337 -196 260 -196 c 0
 231 -196 200 -192 168 -184 c 1
 168 -117 l 1
 197 -129 223 -133 242 -133 c 0
 284 -133 309 -116 309 -85 c 0
 309 -69.7086381225 296.212654403 -46.1968397896 269.765034951 -10.9728919852 c 1
 202.434553011 -10.3885804056 128.687697501 -0.339342140998 54 21 c 1
 54 149 l 1
 120 113 191 96 264 96 c 0
 336 96 373 118 373 158 c 0
 373 194 354 208 279 217 c 2
 248 221 l 2
 101 239 49 287 49 392 c 0
 49 507 123 560 279 560 c 0
 340 560 407 551 487 532 c 1
EndSplineSet
Validated: 524289
EndChar

StartChar: Cacute
Encoding: 262 262 253
Width: 698
Flags: W
HStem: -14 127<337.88 552.006> 611 127<337.88 552.006>
VStem: 48 173<241.311 482.662>
LayerCount: 2
Fore
SplineSet
637 38 m 1
 572 3 501 -14 425 -14 c 0
 310 -14 217 20 149 87 c 0
 81 154 48 246 48 362 c 0
 48 478 81 570 149 636 c 1
 217 704 310 738 425 738 c 0
 501 738 572 721 637 686 c 1
 637 541 l 1
 572 590 510 611 439 611 c 0
 303 611 221 517 221 362 c 0
 221 207 303 113 439 113 c 0
 510 113 572 134 637 184 c 1
 637 38 l 1
433 927 m 1
 557 927 l 1
 425 803 l 1
 342 803 l 1
 433 927 l 1
EndSplineSet
Validated: 1
EndChar

StartChar: cacute
Encoding: 263 263 254
Width: 563
Flags: W
HStem: -14 116<274.5 457.99> 439 117<274.5 455.651>
VStem: 41 162<177.764 363.914>
LayerCount: 2
Fore
SplineSet
500 527 m 1
 500 390 l 1
 455 424 411 439 363 439 c 0
 263 439 203 378 203 271 c 0
 203 164 263 102 363 102 c 0
 415 102 462 118 500 152 c 1
 500 14 l 1
 448 -5 394 -14 341 -14 c 0
 153 -14 41 92 41 271 c 0
 41 449 153 556 341 556 c 0
 395 556 447 546 500 527 c 1
405 800 m 1
 529 800 l 1
 357 620 l 1
 273 620 l 1
 405 800 l 1
EndSplineSet
Validated: 1
EndChar

StartChar: Ccaron
Encoding: 268 268 255
Width: 698
Flags: W
HStem: -14 127<337.88 552.006> 612 127<337.88 552.006>
VStem: 48 173<241.739 483.662>
LayerCount: 2
Fore
SplineSet
637 38 m 1
 572 3 501 -14 425 -14 c 0
 310 -14 217 20 149 87 c 0
 81 155 48 246 48 363 c 0
 48 479 81 571 149 637 c 1
 217 705 310 739 425 739 c 0
 501 739 572 722 637 687 c 1
 637 541 l 1
 572 591 510 612 439 612 c 0
 303 612 221 518 221 363 c 0
 221 207 303 113 439 113 c 0
 510 113 572 134 637 184 c 1
 637 38 l 1
335 806 m 1
 233 927 l 1
 308 927 l 1
 405 846 l 1
 502 927 l 1
 577 927 l 1
 475 806 l 1
 335 806 l 1
EndSplineSet
Validated: 1
EndChar

StartChar: ccaron
Encoding: 269 269 256
Width: 563
Flags: W
HStem: -14 116<275.115 458.292> 440 116<275.115 455.965>
VStem: 41 163<177.764 364.236>
LayerCount: 2
Fore
SplineSet
500 528 m 1
 500 390 l 1
 455 425 411 440 363 440 c 0
 263 440 204 378 204 271 c 0
 204 164 263 102 363 102 c 0
 415 102 462 118 500 152 c 1
 500 14 l 1
 449 -5 395 -14 342 -14 c 0
 154 -14 41 92 41 271 c 0
 41 450 154 556 342 556 c 0
 396 556 448 547 500 528 c 1
283 622 m 1
 163 800 l 1
 239 800 l 1
 337 687 l 1
 435 800 l 1
 510 800 l 1
 391 622 l 1
 283 622 l 1
EndSplineSet
Validated: 1
EndChar

StartChar: dslash
Encoding: 57354 57354 257
Width: 681
Flags: W
HStem: -14 118<254.982 358.294> -1 21G<439 600> 438 119<254.982 356.792> 610 93<286 439 600 672> 740 20G<439 600>
VStem: 43 161<161.672 379.954> 439 161<-1 80 161.226 380.774 462 610 703 760>
LayerCount: 2
Fore
SplineSet
439 462 m 1xbe
 439 610 l 1
 286 610 l 1
 286 703 l 1
 439 703 l 1
 439 760 l 1
 600 760 l 1
 600 703 l 1
 672 703 l 1
 672 610 l 1
 600 610 l 1
 600 -1 l 1
 439 -1 l 1x7e
 439 80 l 1
 392 15 336 -14 260 -14 c 0
 197 -14 144 12 105 65 c 1
 64 117 43 186 43 271 c 0
 43 355 64 424 105 477 c 1
 144 530 197 557 260 557 c 0
 336 557 392 527 439 462 c 1xbe
323 104 m 0xbe
 399 104 439 163 439 271 c 0
 439 379 399 438 323 438 c 0
 245 438 204 379 204 271 c 0
 204 163 245 104 323 104 c 0xbe
EndSplineSet
Validated: 1
EndChar

StartChar: sfthyphen
Encoding: 57359 57359 258
Width: 394
Flags: W
HStem: 217 142<51 343>
VStem: 51 292<217 359>
LayerCount: 2
Fore
SplineSet
51 359 m 1
 343 359 l 1
 343 217 l 1
 51 217 l 1
 51 359 l 1
EndSplineSet
Validated: 1
EndChar

StartChar: c6459
Encoding: 57346 57346 259
Width: 474
Flags: W
HStem: 625 120<91 193 282 383>
VStem: 91 102<625 745> 282 101<625 745>
LayerCount: 2
Fore
SplineSet
91 745 m 1
 193 745 l 1
 193 625 l 1
 91 625 l 1
 91 745 l 1
282 745 m 1
 383 745 l 1
 383 625 l 1
 282 625 l 1
 282 745 l 1
EndSplineSet
Validated: 1
EndChar

StartChar: c6460
Encoding: 57347 57347 260
Width: 475
Flags: W
HStem: 616 129
VStem: 169 223
LayerCount: 2
Fore
SplineSet
264 745 m 1
 392 745 l 1
 256 616 l 1
 169 616 l 1
 264 745 l 1
EndSplineSet
Validated: 1
EndChar

StartChar: c6461
Encoding: 57348 57348 261
Width: 475
Flags: W
HStem: 617 68<252.487 335.745> 678 68<139.11 222.41>
VStem: 76 54<617 670.908> 344 52<692.092 746>
LayerCount: 2
Fore
SplineSet
242 642 m 2xb0
 217 660 l 2
 216 661 213 662 211 664 c 0
 194 674 181 678 171 678 c 0x70
 147 678 130 654 130 616 c 1
 76 617 l 1xb0
 76 620 79 625 79 628 c 0
 79 699 113 746 164 746 c 0x70
 187 746 209 737 232 721 c 2
 261 701 l 1
 275 690 289 685 301 685 c 0xb0
 329 685 344 706 344 746 c 1
 399 746 l 1x70
 399 742 396 737 396 735 c 0
 396 664 361 617 310 617 c 0
 287 617 268 624 242 642 c 2xb0
EndSplineSet
Validated: 1
EndChar

StartChar: c6462
Encoding: 57349 57349 262
Width: 475
Flags: W
HStem: 616 129
VStem: 83 223
LayerCount: 2
Fore
SplineSet
211 745 m 1
 306 616 l 1
 219 616 l 1
 83 745 l 1
 211 745 l 1
EndSplineSet
Validated: 1
EndChar

StartChar: c6463
Encoding: 57350 57350 263
Width: 476
Flags: W
HStem: 616 129
LayerCount: 2
Fore
SplineSet
167 745 m 1
 309 745 l 1
 413 616 l 1
 337 616 l 1
 238 702 l 1
 139 616 l 1
 63 616 l 1
 167 745 l 1
EndSplineSet
Validated: 1
EndChar

StartChar: c6466
Encoding: 57351 57351 264
Width: 476
Flags: W
HStem: 616 129
LayerCount: 2
Fore
SplineSet
167 616 m 1
 63 745 l 1
 139 745 l 1
 238 659 l 1
 337 745 l 1
 413 745 l 1
 309 616 l 1
 167 616 l 1
EndSplineSet
Validated: 1
EndChar

StartChar: c6467
Encoding: 57352 57352 265
Width: 475
Flags: W
HStem: 616 64<167.186 306.417> 725 20G<82 147 328 393>
VStem: 82 58<708.504 745> 335 58<708.504 745>
LayerCount: 2
Fore
SplineSet
82 745 m 1
 140 745 l 1
 154 701 186 680 238 680 c 0
 289 680 321 701 335 745 c 1
 393 745 l 1
 382 661 328 616 238 616 c 0
 147 616 93 661 82 745 c 1
EndSplineSet
Validated: 1
EndChar

StartChar: c6468
Encoding: 57353 57353 266
Width: 478
Flags: W
HStem: 625 120<175 303>
VStem: 175 128<625 745>
LayerCount: 2
Fore
SplineSet
175 745 m 1
 303 745 l 1
 303 625 l 1
 175 625 l 1
 175 745 l 1
EndSplineSet
Validated: 1
EndChar

StartChar: uni00AD
Encoding: 173 173 268
Width: 394
Flags: W
HStem: 217 142<51 343>
VStem: 51 292<217 359>
LayerCount: 2
Fore
SplineSet
51 359 m 1
 343 359 l 1
 343 217 l 1
 51 217 l 1
 51 359 l 1
EndSplineSet
Validated: 1
EndChar
